<?xml version="1.0" encoding="UTF-8"?>
<svg id="Layer_1" data-name="Layer 1" xmlns="http://www.w3.org/2000/svg" viewBox="0 0 1080 1080">
  <defs>
    <style>
      .cls-1 {
        fill: #fff;
      }
    </style>
  </defs>
  <path class="cls-1" d="m68.52,539.93c0-17.1.01-34.2-.03-51.3,0-1.11.33-1.7,1.3-2.26,29.68-17.09,59.34-34.21,88.99-51.36,1-.58,1.72-.57,2.71,0,29.73,17.2,59.48,34.37,89.23,51.52.79.45,1,.95,1,1.82-.02,34.21-.03,68.43.01,102.64,0,1.38-.39,2.09-1.6,2.79-29.64,17.06-59.26,34.16-88.86,51.29-.88.51-1.48.47-2.33-.02-29.73-17.19-59.48-34.36-89.24-51.51-.92-.53-1.21-1.12-1.21-2.16.03-17.15.02-34.3.02-51.45Zm9.13.04c0,15.42,0,30.83-.01,46.25,0,.86.1,1.46.99,1.98,26.68,15.36,53.34,30.75,79.99,46.18,1.09.63,1.86.67,2.98.02,18.85-10.94,37.73-21.82,56.6-32.71,7.71-4.45,15.42-8.89,23.12-13.36.49-.28,1.18-.38,1.16-1.27-.03-1.44.13-2.88.13-4.32,0-29.48,0-58.96.04-88.45,0-1.45-.44-2.2-1.68-2.91-26.43-15.21-52.85-30.46-79.24-45.74-1.2-.7-2.04-.68-3.23,0-26.56,15.38-53.14,30.72-79.73,46.04-.89.51-1.14,1.06-1.14,2.04.03,15.42.02,30.83.02,46.25Z"/>
  <path class="cls-1" d="m698.85,540c2.28,2.67,4.35,5.28,4.57,9.12.21,3.6.14,7.18.17,10.77.04,3.98-1.6,7.23-4.43,10.08-2.83,2.85-5.72,5.45-9.85,6.12-.99.16-2.01.29-3.01.29-10.98.02-21.97,0-32.95.05-1.19,0-1.52-.28-1.52-1.49.05-23.36.07-46.72.04-70.08,0-1.22.32-1.49,1.5-1.48,10.69.05,21.39,0,32.08.04,4.7.01,8.82,1.48,12.1,5.02,1.98,2.15,4.24,4.04,5.25,6.95.63,1.8.68,3.67.75,5.49.13,3.73.21,7.47-.24,11.2-.39,3.26-2.12,5.75-4.48,7.92Zm-22.99,24.15h9.25s.1,0,.14,0c2.58-.01,5.44-2.74,5.48-5.3.04-2.55.04-5.1,0-7.66-.04-2.19-3.16-5.29-5.32-5.29-6.5-.02-13,.01-19.51-.03-.9,0-1.11.24-1.11,1.12.04,5.34.05,10.69,0,16.04-.01,1.02.37,1.16,1.24,1.14,3.27-.04,6.55-.02,9.82-.02Zm-.08-30.11c3.18,0,6.36,0,9.54,0,2.47,0,5.37-2.75,5.42-5.23.06-2.6.06-5.2,0-7.8-.05-2.26-3.23-5.32-5.45-5.32-6.41,0-12.81.02-19.22-.03-1.03,0-1.27.29-1.26,1.28.05,5.3.06,10.59,0,15.89-.01,1.07.34,1.24,1.3,1.23,3.23-.06,6.45-.02,9.68-.02Z"/>
  <path class="cls-1" d="m765.33,529.47c0,15.22,0,30.45.03,45.67,0,.86-.12,1.29-1.15,1.28-3.56-.06-7.13-.06-10.7,0-.93.01-1.1-.3-1.1-1.16.02-23.61.02-47.22,0-70.82,0-.79.17-1.07,1.02-1.06,3.9.05,7.81.03,11.71.01.61,0,1.09.08,1.4.71,1.78,3.51,3.59,6.99,5.38,10.5,2.74,5.37,5.46,10.75,8.19,16.13,2.51,4.95,4.99,9.92,7.51,14.86,1.07,2.1,2.21,4.16,3.6,6.21v-1.46c0-15.13.02-30.26-.04-45.38,0-1.38.42-1.62,1.67-1.59,3.37.08,6.75.06,10.12,0,.86-.01,1.15.18,1.15,1.1-.03,22.64-.02,45.29-.03,67.93,0,.48-.11.95-.14,1.43-.04.81.26,1.96-.16,2.35-.6.57-1.74.19-2.65.19-3.18.02-6.36-.02-9.54.03-.84.01-1.26-.26-1.65-1.02-4.02-7.77-8.08-15.52-12.13-23.28-2.58-4.95-5.15-9.9-7.74-14.84-1.31-2.5-2.66-4.99-3.96-7.49-.13-.24-.25-.37-.49-.43.16-.26-.06-.59-.18-.55-.31.11-.16.42-.11.67Z"/>
  <path class="cls-1" d="m972.67,528.53c0,15.41-.03,30.82,0,46.24,0,1.33-.34,1.7-1.66,1.66-3.32-.1-6.65-.07-9.97,0-.98.02-1.29-.21-1.29-1.25.03-23.55.03-47.1,0-70.66,0-.84.14-1.15,1.08-1.14,3.95.06,7.9.05,11.85,0,.68,0,.99.24,1.27.81,1.7,3.44,3.4,6.88,5.15,10.3,1.81,3.54,3.68,7.05,5.49,10.59,3.01,5.92,5.99,11.85,8.99,17.77,1.14,2.25,2.33,4.47,3.47,6.71.21.42.35.85.95.74.73-.13.5-.69.5-1.12.02-14.74.06-29.47.02-44.21,0-1.38.41-1.64,1.67-1.61,3.37.08,6.74.07,10.11,0,.96-.02,1.19.27,1.19,1.2-.03,22.44-.01,44.89-.04,67.33,0,1.28-.34,2.56-.21,3.85.06.58-.23.63-.66.63-4.05,0-8.09-.01-12.14,0-.69,0-.87-.46-1.12-.93-5.92-11.37-11.85-22.73-17.78-34.1-2.08-3.98-4.15-7.97-6.23-11.96-.17-.33-.3-.72-.69-.89,0,0,0-.11,0-.11,0,0,.01.1.01.1Z"/>
  <path class="cls-1" d="m514.76,539.87c0-11.61.03-23.22-.04-34.83,0-1.45.41-1.68,1.74-1.67,10.46.06,20.91.06,31.37.02,4.85-.02,9,1.5,12.37,5.06,1.76,1.85,3.63,3.58,4.82,5.92.95,1.86,1.44,3.8,1.47,5.86.05,3.56.05,7.13,0,10.69-.05,3.26-1.07,6.14-3.25,8.67-2.34,2.71-4.77,5.27-8.05,6.82-.9.43-.3.88-.13,1.25,2.61,5.4,5.25,10.79,7.88,16.19,1.87,3.84,3.73,7.69,5.63,11.51.4.81.33,1.07-.63,1.06-4-.03-8-.03-12,0-.69,0-1.01-.25-1.29-.86-2.95-6.45-6.14-12.79-8.97-19.29-.89-2.04-1.98-3.98-2.97-5.98-.21-.42-.44-.85-.5-1.31-.15-1.03-.72-1.37-1.71-1.36-3.9.02-7.81.05-11.71-.02-1.02-.02-1.27.27-1.27,1.27.04,8.67,0,17.34.05,26.01,0,1.17-.24,1.57-1.47,1.53-3.32-.09-6.65-.08-9.97,0-1.14.03-1.43-.3-1.43-1.44.04-11.71.03-23.41.03-35.12Zm24.02-24.18c-3.37,0-6.75.02-10.12-.01-.73,0-1.12.05-1.11.97.04,5.88.04,11.75,0,17.63,0,.81.22,1.08,1.05,1.08,6.6-.03,13.2,0,19.8-.03,2.06,0,5.15-2.94,5.17-4.88.04-3.32.05-6.65,0-9.97-.03-2.14-2.84-4.78-4.97-4.78-3.28,0-6.55,0-9.83,0Z"/>
  <path class="cls-1" d="m944.12,540.36c0,6.31.02,12.62,0,18.93-.02,3.55-1.5,6.5-3.97,8.99-1.46,1.47-2.92,2.94-4.39,4.4-3.03,3.02-6.71,4.41-10.96,4.4-5.44-.01-10.89-.05-16.33.01-4.66.06-8.67-1.4-12.02-4.68-1.79-1.75-3.55-3.52-5.14-5.47-1.77-2.16-2.63-4.67-2.64-7.43-.03-13.39-.05-26.77.02-40.16.01-2.12.91-4.1,2.21-5.79,2.15-2.79,4.56-5.35,7.35-7.52,2.61-2.03,5.58-3.1,8.92-3.09,5.97.02,11.94,0,17.92,0,4.15,0,7.78,1.33,10.83,4.21,1.93,1.82,3.71,3.77,5.48,5.75,2.07,2.32,2.66,5.14,2.7,8.09.08,6.45.02,12.91.02,19.36Zm-12.92-.31c0-5.2-.23-10.41.08-15.59.2-3.34-1.09-5.6-3.48-7.54-.26-.21-.5-.45-.75-.68-.81-.76-1.73-1.07-2.87-1.05-4.33.06-8.69.29-12.99-.06-3.61-.29-6.09,1.08-8.13,3.77-.26.34-.53.69-.82,1.01-.48.53-.64,1.12-.64,1.84.02,12.23.02,24.45,0,36.68,0,.69.07,1.37.53,1.86,1.21,1.29,2.46,2.54,3.75,3.76.64.6,1.46.72,2.35.71,4.81-.03,9.63-.14,14.44.04,2.29.09,4.07-.55,5.64-2.13,1.74-1.75,3.11-3.46,2.97-6.3-.28-5.43-.08-10.88-.08-16.31Z"/>
  <path class="cls-1" d="m580.73,539.95c0-6.79-.05-13.59.04-20.38.02-1.6.52-3.26,1.41-4.61,2.82-4.24,6.18-7.99,10.73-10.47,2-1.09,4.19-1.55,6.49-1.54,5.35.03,10.7.16,16.04-.03,5.86-.22,10.67,1.72,14.53,6.1.83.94,1.68,1.86,2.56,2.74,2.74,2.74,3.77,6.04,3.74,9.9-.09,12.33-.03,24.67-.04,37,0,3.68-1.21,6.8-3.83,9.53-2.04,2.12-3.96,4.31-6.39,6.03-2.58,1.83-5.41,2.81-8.55,2.83-5.97.04-11.95.05-17.93,0-4.12-.03-7.73-1.45-10.68-4.38-2.48-2.46-5.17-4.75-6.84-7.91-.8-1.52-1.26-3.18-1.28-4.88-.06-6.65-.02-13.3-.02-19.94Zm42.64.16c0-5.34-.2-10.7.08-16.03.15-2.89-.95-4.87-2.92-6.66-.46-.42-.95-.82-1.41-1.24-.78-.72-1.66-1.01-2.74-1-5.25.05-10.5.02-15.74.03-.48,0-1.06-.09-1.41.14-2.4,1.56-4.44,3.51-5.7,6.13-.21.43-.2,1.1-.03,1.56.25.67.19,1.31.19,1.97,0,10.93,0,21.86.01,32.78,0,.7-.16,1.44.31,2.08,1.16,1.59,2.54,2.96,4.07,4.2.63.52,1.3.67,2.08.67,5.54-.01,11.07-.02,16.61,0,.77,0,1.4-.21,1.98-.67,1.26-1.03,2.44-2.12,3.51-3.38.85-1.01,1.16-1.99,1.15-3.26-.04-5.78-.02-11.55-.02-17.33Z"/>
  <path class="cls-1" d="m393.95,504.72c0-1.07.51-1.37,1.58-1.35,3.37.08,6.74.07,10.12,0,1.06-.02,1.35.21,1.35,1.32-.05,9.3,0,18.59-.06,27.89,0,1.18.24,1.51,1.47,1.5,7.9-.06,15.8-.05,23.7-.01,1.08,0,1.45-.23,1.44-1.41-.06-9.3,0-18.59-.06-27.89,0-1.16.33-1.41,1.43-1.39,3.37.07,6.74.08,10.12,0,1.1-.03,1.33.27,1.33,1.34-.04,19.22-.03,38.44-.03,57.65,0,4.24-.04,8.48.03,12.72.02,1.12-.32,1.36-1.38,1.34-3.32-.07-6.65-.11-9.97.01-1.37.05-1.53-.45-1.53-1.63.05-8.96,0-17.92.06-26.88.01-1.39-.44-1.63-1.69-1.62-7.8.05-15.61.05-23.41,0-1.16,0-1.52.21-1.51,1.46.06,9.1.01,18.21.06,27.31,0,1.08-.25,1.38-1.34,1.35-3.47-.08-6.94-.06-10.4-.01-.96.01-1.33-.2-1.31-1.26.35-22.92.07-45.84.16-68.76,0-.57.13-1.16-.14-1.71,0,0,0,.03,0,.03Z"/>
  <path class="cls-1" d="m817.52,563.07c3.79-1.27,7.56-2.53,11.31-3.81.65-.22,1.02-.03,1.46.49q4.17,4.99,10.63,4.98c4.19,0,8.4-.25,12.57.08,3.22.25,5.04-1.53,7-3.45,1.29-1.26,1.74-2.73,1.59-4.52-.13-1.53-.07-3.08-.02-4.62.05-1.38-.61-2.16-1.88-2.52-10.62-3-21.23-6.01-31.85-9.01-4.36-1.23-8.31-6.14-8.76-11.17-.35-3.89-.31-7.79.06-11.68.1-1.09.51-2.16,1.12-3.05,3.08-4.49,6.67-8.47,11.77-10.73,1.8-.8,3.74-1.12,5.73-1.11,5.35.03,10.7.15,16.04-.03,5.33-.18,9.61,1.83,13.22,5.55,2.28,2.35,4.39,4.85,5.88,7.81.45.89.33,1.2-.64,1.46-3.38.92-6.75,1.9-10.11,2.9-.86.26-1.39.1-1.9-.68-2.28-3.51-5.25-5.34-9.74-4.84-3.9.44-7.89.13-11.84.07-1.19-.02-2.16.31-3.04,1.05-.22.19-.43.39-.66.56-2.33,1.78-3.47,3.93-3.25,7.04.31,4.57-.46,4.45,4.39,5.85,6.84,1.97,13.7,3.91,20.51,6.01,2.68.83,5.42,1.5,8.11,2.33,5.2,1.6,8.25,5.21,9.29,10.55.93,4.78.67,9.56-.02,14.34-.09.6-.29,1.25-.63,1.75-3.26,4.77-6.86,9.18-12.46,11.39-1.81.71-3.7,1.02-5.64,1.02-6.12,0-12.25-.18-18.36.05-5.79.22-10.33-2.02-14.18-6.09-2.25-2.37-4.23-4.95-5.68-7.96Z"/>
  <path class="cls-1" d="m303.41,540.39c0-6.98-.04-13.97.02-20.95.02-2.32.91-4.41,2.38-6.22,1.95-2.39,4.04-4.65,6.41-6.64,2.84-2.38,6.11-3.59,9.81-3.61,4.24-.02,8.49.18,12.72-.05,5.78-.32,10.32,1.98,14.22,5.97,2.2,2.25,4.15,4.67,5.64,7.46.39.73.53,1.09-.49,1.36-3.53.94-7.03,1.98-10.54,3-.67.2-1.18.13-1.59-.52-2.58-4-6.1-5.75-10.96-5.04-2.55.37-5.19.1-7.8.05-.98-.02-1.79.24-2.51.87-.51.44-1.04.86-1.55,1.3-2.06,1.77-3.08,3.79-3.03,6.73.2,11.32.12,22.64.04,33.96-.01,1.73.79,2.88,1.87,3.94.85.85,1.83,1.57,2.81,2.27.49.35,1.1.47,1.74.47,4.53-.02,9.06-.02,13.59,0,.78,0,1.39-.31,1.97-.75,1.58-1.22,2.82-2.75,3.95-4.38.39-.56.71-.69,1.4-.49,3.54.99,7.09,1.92,10.65,2.81.83.21.96.44.57,1.23-2.57,5.19-6.29,9.3-11.32,12.18-2.17,1.25-4.56,1.74-7.07,1.73-4.67-.02-9.35,0-14.02,0-3.68,0-6.96-1.13-9.83-3.44-2.33-1.88-4.44-3.99-6.33-6.3-1.97-2.4-2.91-5.14-2.87-8.29.08-6.21.02-12.43.02-18.64h.1Z"/>
  <path class="cls-1" d="m733.68,539.92c0,11.7-.02,23.4.03,35.11,0,1.18-.35,1.41-1.44,1.39-3.42-.06-6.84-.06-10.26,0-1.04.02-1.39-.23-1.37-1.35.35-23.49.08-46.99.15-70.48,0-.92.21-1.22,1.19-1.21,3.52.06,7.03.07,10.55,0,1.06-.02,1.23.34,1.22,1.3-.03,11.75-.02,23.5-.02,35.25-.02,0-.03,0-.05,0Z"/>
  <path class="cls-1" d="m459.06,568.6c0-2.22.03-4.43-.01-6.65-.01-.75.21-1,.98-.99,4.38.03,8.77.04,13.15,0,.87,0,1.03.32,1.03,1.09-.03,4.43-.03,8.86,0,13.3,0,.81-.23,1.08-1.06,1.07-4.34-.04-8.67-.04-13.01,0-.93,0-1.12-.31-1.1-1.17.06-2.21.02-4.43.02-6.65Z"/>
  <path class="cls-1" d="m381.38,568.87c0,2.12-.03,4.24.02,6.36.02.83-.14,1.2-1.09,1.19-4.34-.05-8.67-.04-13.01,0-.8,0-1.08-.21-1.07-1.05.04-4.43.03-8.86,0-13.3,0-.76.13-1.12,1.01-1.11,4.38.04,8.77.05,13.15,0,.92-.01,1,.4.99,1.13-.03,2.26-.01,4.53,0,6.79Z"/>
  <path class="cls-1" d="m252.57,608.79c0,3.94-2.82,6.77-6.77,6.78-3.52,0-6.52-3.18-6.54-6.86-.01-3.22,2.27-6.61,6.44-6.67,3.49-.06,7.36,2.48,6.86,6.76Zm-6.66,5.33c3.77-.12,5.64-2.19,5.51-6.13-.09-2.86-2.61-4.64-6.3-4.58-2.92.05-4.79,3.25-4.69,5.51.13,2.98,2.55,5.29,5.48,5.19Z"/>
  <path class="cls-1" d="m765.33,529.47c-.05-.24-.2-.56.11-.67.12-.04.34.29.18.55,0,.29-.12.26-.29.12Z"/>
  <polygon class="cls-1" points="972.67 528.53 972.65 528.43 972.64 528.54 972.67 528.53"/>
  <path class="cls-1" d="m393.95,504.72s0-.03,0-.03c-.03,0-.06.02-.08.03.03,0,.06,0,.09,0Z"/>
  <path class="cls-1" d="m215.52,502.68c-6.19-3.57-12.22-7.08-18.28-10.52-1.01-.57-1.3-.99-.61-2.06,1.18-1.82,2.23-3.71,3.26-5.62.41-.75.75-.92,1.54-.46,8.98,5.22,17.99,10.41,27,15.59.57.33.79.69.79,1.36-.02,10.41-.02,20.81,0,31.22,0,.84-.28,1.06-1.08,1.04-2.22-.05-4.44-.07-6.65.01-1.07.04-1.38-.25-1.37-1.35.06-6.5.03-13.01.03-19.51,0-.52,0-1.03,0-1.53-.54-.12-.83.2-1.15.38-17.75,10.24-35.5,20.49-53.26,30.72-.74.43-1.08.85-1.08,1.77.03,20.52.02,41.05.02,61.57,0,.29,0,.57,0,.9.76.12,1.12-.45,1.64-.72,5.76-3.01,11.33-6.37,16.95-9.63.91-.53,1.25-.36,1.71.5,1.04,1.94,2.16,3.85,3.31,5.73.47.77.48,1.16-.4,1.66-8.98,5.14-17.93,10.31-26.88,15.5-.62.36-1.09.39-1.71.02-8.99-5.21-17.99-10.41-27-15.58-.82-.47-.76-.86-.34-1.55,1.17-1.93,2.31-3.89,3.38-5.88.44-.82.81-.91,1.62-.43,5.58,3.3,11.2,6.54,16.81,9.8.45.26.92.47,1.48.74.29-.89.36-1.71.36-2.55,0-19.95,0-39.89.01-59.84,0-.88-.13-1.48-1.01-1.99-17.85-10.26-35.68-20.56-53.52-30.85-.24-.14-.49-.26-.92-.48v2.29c0,6.31-.03,12.62.03,18.93,0,1.09-.29,1.4-1.37,1.36-2.21-.09-4.43-.05-6.65-.01-.82.02-1.19-.13-1.19-1.09.03-10.36.03-20.72,0-31.08,0-.73.25-1.1.87-1.46,9.01-5.18,18.01-10.37,26.99-15.6.83-.48,1.14-.23,1.53.47,1.07,1.94,2.13,3.89,3.32,5.74.62.97.35,1.34-.53,1.84-5.81,3.31-11.6,6.66-17.39,10.01-.29.17-.57.35-1.04.63.51.31.92.58,1.34.82,17.62,10.18,35.25,20.35,52.86,30.55.78.45,1.35.58,2.21.08,17.77-10.3,35.57-20.56,53.36-30.83.29-.17.56-.37.98-.64Z"/>
  <path class="cls-1" d="m104.71,577.25c6.02,3.48,11.89,6.87,17.76,10.26q1.86,1.07.83,2.87c-1.01,1.75-2.04,3.48-3.02,5.25-.36.65-.68.74-1.33.35-9.07-5.26-18.16-10.49-27.24-15.72-.52-.3-.71-.67-.71-1.27.02-10.4.02-20.81,0-31.21,0-.81.23-1.09,1.06-1.07,2.26.05,4.53.08,6.79-.01,1.11-.04,1.36.31,1.35,1.38-.05,6.5-.02,13-.03,19.51,0,.51,0,1.02,0,1.77,3.32-1.92,6.43-3.71,9.54-5.51,10.04-5.79,20.09-11.57,30.1-17.41.98-.57,1.63-.39,2.61,0,2.69,1.05,3.62,2.83,3.23,5.64-.15,1.09-.34,1.75-1.37,2.34-12.65,7.24-25.26,14.55-37.88,21.84-.53.31-1.05.63-1.7,1.01Z"/>
  <path class="cls-1" d="m220.14,569.29v-1.57c0-6.6.02-13.2-.02-19.8,0-.92.22-1.26,1.19-1.23,2.26.07,4.53.05,6.79.01.76-.01,1.11.13,1.11,1.01-.03,10.45-.02,20.91,0,31.36,0,.62-.24.94-.76,1.24-9.01,5.18-18.01,10.37-27,15.58-.74.43-1.11.42-1.55-.4-1.09-2.04-2.24-4.04-3.46-6-.52-.82-.25-1.1.47-1.51,5.76-3.3,11.5-6.63,17.25-9.95.42-.24.83-.49,1.39-.82-3.79-2.2-7.48-4.34-11.17-6.47-9.5-5.48-18.99-10.98-28.51-16.43-.93-.53-1.09-1.17-1.24-2.15-.46-2.96.61-4.78,3.4-5.86.92-.36,1.51-.42,2.36.07,12.82,7.44,25.65,14.84,38.49,22.25.36.21.75.38,1.28.65Z"/>
  <path class="cls-1" d="m164.68,473.52v1.79c0,14.64-.01,29.28.03,43.92,0,1.06-.43,1.52-1.22,2.14-2.27,1.77-4.32,1.93-6.64.05-.83-.67-1.28-1.16-1.28-2.27.04-14.64.03-29.28.02-43.92,0-.5.29-1.18-.21-1.48-.56-.33-1.07.27-1.53.53-5.57,3.21-11.14,6.43-16.66,9.72-1.06.63-1.48.46-2.01-.58-.99-1.92-2.11-3.78-3.23-5.63-.43-.7-.48-1.06.34-1.53,9.01-5.16,18-10.36,26.99-15.57.61-.35,1.08-.38,1.71-.01,8.94,5.19,17.89,10.36,26.86,15.51.79.45,1.02.79.49,1.64-1.22,1.96-2.37,3.96-3.47,5.99-.4.73-.72.77-1.42.36-3.81-2.25-7.65-4.45-11.49-6.64-2.32-1.32-4.68-2.59-7.26-4.02Z"/>
  <path class="cls-1" d="m248.76,611.98c-.71.26-1.17.09-1.48-.55-.12-.26-.28-.51-.47-.72-.49-.57-.58-1.8-1.65-1.45-.84.27-.23,1.25-.4,1.88-.09.33.22.86-.38.92-.73.07-.52-.54-.53-.91-.02-1.58-.01-3.17,0-4.75,0-.32-.12-.87.23-.9,1.27-.11,2.58-.35,3.81.24.92.45.57,1.32.63,2.04.03.3,0,.65-.28.77-1.65.71-.66,1.52-.13,2.32.23.35.43.73.64,1.11Zm-2.69-5.67c-.6.05-1.38-.29-1.33.88.03.79.09,1.28,1.07,1.16.76-.09,1.68.06,1.76-.99.07-.99-.74-1.07-1.5-1.05Z"/>
</svg>