<svg width="149" height="40" viewBox="0 0 149 40" fill="none" xmlns="http://www.w3.org/2000/svg">
<g id="Company logo" clip-path="url(#clip0_962_817)">
<path id="Vector" d="M6.03982 18.3611C5.98599 18.2907 5.9149 18.2353 5.83342 18.2004C5.75194 18.1655 5.66282 18.1521 5.57469 18.1617C5.48655 18.1713 5.40238 18.2034 5.3303 18.255C5.25822 18.3067 5.20068 18.376 5.16323 18.4564L0.721443 27.3372C0.680979 27.4181 0.661874 27.508 0.665942 27.5984C0.67001 27.6888 0.697116 27.7767 0.744687 27.8537C0.792257 27.9306 0.858713 27.9942 0.937745 28.0382C1.01678 28.0823 1.10576 28.1055 1.19625 28.1055H7.38121C7.48027 28.1078 7.57787 28.0813 7.66216 28.0292C7.74644 27.9771 7.81379 27.9016 7.85602 27.812C9.1902 25.055 8.38164 20.8632 6.03982 18.3611Z" fill="white"/>
<path id="Vector_2" d="M9.29747 10.2839C8.1907 11.9869 7.54572 13.9483 7.42583 15.9758C7.30593 18.0033 7.71524 20.0271 8.61358 21.8486L11.5954 27.8123C11.6395 27.9005 11.7073 27.9746 11.7911 28.0265C11.875 28.0783 11.9716 28.1058 12.0702 28.1058H18.2541C18.3446 28.1058 18.4336 28.0826 18.5126 28.0386C18.5916 27.9945 18.6581 27.931 18.7056 27.854C18.7532 27.777 18.7803 27.6892 18.7844 27.5988C18.7885 27.5084 18.7694 27.4184 18.7289 27.3375C18.7289 27.3375 10.4095 10.6968 10.2004 10.2806C10.1591 10.1959 10.0947 10.1245 10.0147 10.0747C9.93463 10.0249 9.84218 9.99868 9.74791 9.99903C9.65364 9.99937 9.56138 10.0263 9.48171 10.0767C9.40204 10.1271 9.33818 10.1989 9.29747 10.2839Z" fill="white"/>
<path id="Vector_3" d="M81.8312 17.4043C81.8312 19.6034 82.8514 21.3494 86.8417 22.1201C89.2223 22.6199 89.721 23.0042 89.721 23.7978C89.721 24.5686 89.2212 25.0676 87.5444 25.0676C85.5178 25.0311 83.5317 24.4937 81.7632 23.5032V27.0851C82.9649 27.6745 84.5518 28.332 87.4992 28.332C91.6708 28.332 93.3259 26.4717 93.3259 23.707L81.8312 17.4043ZM93.3259 23.707C93.3259 21.0997 91.9429 19.8752 88.0434 19.0367C85.8896 18.5605 85.3681 18.0846 85.3681 17.4043C85.3681 16.5435 86.1389 16.1801 87.5672 16.1801C89.2904 16.1801 90.9908 16.7015 92.6004 17.4271V14.0035C91.057 13.301 89.376 12.9524 87.6805 12.9833C83.8262 12.9833 81.8312 14.661 81.8312 17.4043" fill="white"/>
<path id="Vector_4" d="M135.425 13.21V28.1055H138.599V16.7468L139.937 19.762L144.426 28.1055H148.416V13.21H145.242V22.823L144.04 20.0341L140.435 13.21H135.425Z" fill="white"/>
<path id="Vector_5" d="M115.237 13.21H111.769V28.1055H115.237V13.21Z" fill="white"/>
<path id="Vector_6" d="M107.766 23.707C107.766 21.0997 106.383 19.8752 102.484 19.0367C100.33 18.5605 99.8083 18.0846 99.8083 17.4043C99.8083 16.5435 100.579 16.1801 102.007 16.1801C103.731 16.1801 105.431 16.7015 107.041 17.4271V14.0035C105.497 13.301 103.816 12.9524 102.121 12.9833C98.2664 12.9833 96.2714 14.661 96.2714 17.4043C96.2714 19.6034 97.2915 21.3494 101.282 22.1201C103.663 22.6199 104.161 23.0042 104.161 23.7978C104.161 24.5686 103.661 25.0676 101.985 25.0676C99.958 25.0311 97.9718 24.4937 96.2034 23.5032V27.0851C97.4051 27.6745 98.9919 28.332 101.939 28.332C106.111 28.332 107.766 26.4717 107.766 23.707Z" fill="white"/>
<path id="Vector_7" d="M54.8833 13.21V28.1055H62.0132L63.1358 24.886H58.3747V13.21H54.8833Z" fill="white"/>
<path id="Vector_8" d="M40.7976 13.21V16.4292H44.6519V28.1055H48.1432V16.4292H52.2696V13.21H40.7976Z" fill="white"/>
<path id="Vector_9" d="M35.7347 13.21H31.1591L25.9648 28.1055H29.9316L30.6679 25.5968C32.4815 26.1294 34.4099 26.1294 36.2234 25.5968L36.9598 28.1055H40.9273L35.7347 13.21ZM33.4468 22.9107C32.8006 22.9107 32.1578 22.8182 31.5378 22.6361L33.4468 16.1357L35.3557 22.6383C34.7356 22.8197 34.0928 22.9114 33.4468 22.9107Z" fill="white"/>
<path id="Vector_10" d="M74.3055 13.21H69.7302L64.5359 28.1055H68.5034L69.2398 25.5968C71.0533 26.1294 72.9817 26.1294 74.7953 25.5968L75.5317 28.1055H79.4992L74.3055 13.21ZM72.0178 22.9107C71.3717 22.9107 70.7288 22.8182 70.1089 22.6361L72.0178 16.1357L73.9268 22.6383C73.3067 22.8197 72.6639 22.9114 72.0178 22.9107Z" fill="white"/>
<path id="Vector_11" d="M127.737 13.21H123.162L117.968 28.1055H121.935L122.672 25.5968C124.485 26.1294 126.414 26.1294 128.227 25.5968L128.963 28.1055H132.931L127.737 13.21ZM125.448 22.9107C124.802 22.9107 124.159 22.8182 123.539 22.6361L125.448 16.1357L127.357 22.6383C126.737 22.8197 126.094 22.9114 125.448 22.9107Z" fill="white"/>
</g>
<defs>
<clipPath id="clip0_962_817">
<rect width="148.333" height="40" fill="white" transform="translate(0.666626)"/>
</clipPath>
</defs>
</svg>