<?xml version="1.0" encoding="UTF-8"?>
<svg id="Layer_1" data-name="Layer 1" xmlns="http://www.w3.org/2000/svg" viewBox="0 0 1080 1080">
  <defs>
    <style>
      .cls-1 {
        fill: #fff;
      }
    </style>
  </defs>
  <path class="cls-1" d="m569.28,543.85c.69-3.27,1.82-6.18,1.83-9.09.11-43.98.12-87.95,0-131.93,0-3.05-1.18-6.11-1.82-9.24,21.47,0,43.67-.31,65.85.11,13.68.26,21.28,9.11,21.32,23.79.1,34.1.03,68.2.03,102.3,0,.92-.05,1.85-.11,2.77-.85,13.06-8.92,21.11-22.02,21.23-21.91.2-43.81.05-65.08.05Zm59.56-75.07c0-13.27.03-26.54-.01-39.8-.02-6.27-2.02-8.2-8.36-8.26-4.32-.04-8.64-.03-12.96,0-6.85.05-8.73,1.91-8.75,8.84-.04,14.04-.01,28.08-.01,42.12,0,12.19-.04,24.38.02,36.56.03,6.56,2,8.44,8.62,8.5,4.32.03,8.64.04,12.96,0,6.55-.06,8.47-1.98,8.49-8.6.03-13.11,0-26.23,0-39.34Z"/>
  <path class="cls-1" d="m494.88,494.51c-.57,3.39-1.4,6.46-1.53,9.57-.26,6.01-.04,12.03-.16,18.04-.28,13.56-7.68,21.37-21.18,21.65-14.34.31-28.69.32-43.03,0-13.35-.3-21.16-8.45-21.23-22.29-.18-35.32-.21-70.64.01-105.96.09-14.12,8.33-21.83,22.49-21.92,13.26-.08,26.53-.06,39.79,0,14.31.06,23.01,8.63,23.16,23.02.09,8.62,1.26,17.6-.68,25.8-3.99,16.86-13.49,29.77-31.21,35.16-5.83,1.77-11.45,4.54-16.79,7.54-6.04,3.39-9.38,8.72-8.84,16.05.23,3.07,0,6.17.08,9.25.1,3.83,2.06,6.15,5.96,6.24,5.86.14,11.72.1,17.58.02,3.4-.05,5.54-1.87,5.95-5.26.33-2.74.27-5.53.46-8.3.4-5.66,3.14-8.44,8.77-8.55,6.93-.14,13.87-.03,20.38-.03Zm-59.04-32.68c7.54-4.44,14.08-8.33,20.66-12.17,9.46-5.53,10.23-14.25,8.75-23.78-.49-3.18-2.46-5.01-5.64-5.08-6.01-.13-12.03-.12-18.05-.01-3.19.06-5.58,1.87-5.64,5.02-.22,11.51-.09,23.03-.09,36.02Z"/>
  <path class="cls-1" d="m773.61,494.51c-.58,3.32-1.43,6.25-1.55,9.2-.25,6.16-.03,12.34-.17,18.5-.29,13.51-7.77,21.3-21.27,21.57-14.18.28-28.38.25-42.57.01-13.58-.22-21.53-8.36-21.6-22.41-.17-35.17-.16-70.33,0-105.5.06-14.37,8.24-22.21,22.61-22.28,13.26-.07,26.53-.07,39.79,0,14.1.07,22.96,8.62,23.03,22.65.05,9.37,1.05,19.15-1.21,28.02-4.05,15.91-13.52,28.06-30.31,33.18-5.83,1.78-11.47,4.5-16.83,7.45-6.21,3.43-9.72,8.82-9.14,16.35.22,2.91.02,5.86.05,8.79.05,4.29,2.19,6.61,6.54,6.64,5.55.04,11.1.02,16.66,0,3.87-.02,6.04-2.07,6.44-5.84.27-2.6.17-5.24.35-7.85.4-5.62,3.17-8.35,8.86-8.46,6.93-.13,13.87-.03,20.31-.03Zm-59.17-32.68c7.3-4.23,13.45-7.91,19.7-11.4,9.56-5.33,11.41-13.82,10.01-23.73-.56-3.98-2.77-6.01-6.84-5.99-4.94.03-9.87-.05-14.81,0-6.24.06-8.02,1.81-8.05,7.95-.05,7.56-.01,15.12-.01,22.68,0,3.02,0,6.04,0,10.49Z"/>
  <path class="cls-1" d="m279.54,543.85c.63-3.7,1.75-7.23,1.76-10.76.12-42.88.12-85.75,0-128.63,0-3.53-1.09-7.07-1.72-10.83,6.28,0,13.45-.26,20.59.08,6.1.29,8.74,3.49,8.75,9.6.03,14.04-.02,28.07.02,42.11.02,7.54,1.77,9.25,9.24,9.28,7.56.02,15.12.04,22.67,0,6.14-.04,8.01-1.77,8.07-8,.11-12.65.04-25.29.05-37.94,0-1.85-.03-3.7.06-5.55.35-6.59,3.13-9.41,9.85-9.57,6.62-.16,13.25-.03,19.15-.03-.48,4.47-1.35,8.86-1.36,13.26-.1,41.8-.1,83.6,0,125.39.01,3.83.98,7.67,1.51,11.6-6.01,0-12.79.16-19.56-.05-6.6-.2-9.48-3.09-9.57-9.81-.18-13.42-.08-26.84-.09-40.25,0-11.1-.8-11.91-11.66-11.91-6.32,0-12.65-.01-18.97,0-7.71.02-9.39,1.71-9.4,9.59-.03,14.04,0,28.07-.02,42.11,0,7.1-2.87,10.15-10,10.3-6.63.14-13.26.03-19.39.03Z"/>
  <path class="cls-1" d="m796.94,494.51c5.91,0,12.38-.08,18.86.02,7.44.11,10.64,3.41,10.72,10.81.02,1.7-.06,3.4.04,5.09.22,3.77,2.12,6.13,6.03,6.22,5.86.12,11.72.09,17.58.01,3.68-.05,5.83-2.18,5.99-5.73.21-4.76.31-9.57-.14-14.31-.65-6.77-4.83-11.47-10.89-13.81-9.02-3.47-18.29-6.36-27.53-9.23-13.69-4.26-19.23-11.41-19.14-25.65.08-11.86-.32-23.78.73-35.56,1.11-12.46,8.4-18.51,20.98-18.73,14.19-.25,28.38-.29,42.57.01,13.81.29,21.1,8.05,21.27,21.97.08,6.01-.16,12.04.1,18.04.13,2.95,1.06,5.86,1.68,9.07-6.73,0-14.2.39-21.61-.13-5.1-.36-7.6-3.44-7.57-8.77.07-15.07-3.36-13.1-14.37-13.13-3.08,0-6.17-.01-9.25.04-4.1.08-6.31,2.23-6.41,6.3-.11,4.32-.31,8.66.05,12.95.65,7.82,5.64,12.66,12.5,15.18,8.93,3.28,18.14,5.82,27.25,8.64,12.34,3.82,17.64,10.9,17.66,23.73.02,11.26.08,22.52-.02,33.78-.14,14.73-7.95,22.44-22.75,22.51-12.8.06-25.6.02-38.41.01-16.4,0-24.12-7.55-24.4-23.93-.1-5.86.12-11.73-.08-17.58-.09-2.49-.88-4.95-1.43-7.83Z"/>
  <path class="cls-1" d="m431.7,644.21c0-1.6,0-3.21,0-4.81,0-24.07,0-48.15,0-72.22,0-7.32,3.35-10.66,10.71-10.7,5.09-.03,10.17,0,14.92,0-.4,2.74-1.1,5.35-1.11,7.97-.07,38.12-.07,76.23,0,114.35,0,2.5.73,5,1.16,7.7-5.41,0-11.26.16-17.09-.05-4.57-.17-7.42-3.21-9.98-6.69-15.51-21.14-31.07-42.25-46.65-63.34-1.27-1.72-2.66-3.46-4.32-4.77-2.98-2.36-5.68-1.2-6.31,2.56-.23,1.36-.12,2.77-.12,4.16,0,19.6,0,39.2,0,58.79,0,6.75-2.41,9.25-9.09,9.34-5.55.08-11.1.02-16.36.02.44-3.14,1.23-6.2,1.24-9.25.09-37.19.08-74.38,0-111.57,0-2.96-.76-5.92-1.21-9.2,5.17,0,11.03-.53,16.73.23,2.75.37,5.95,2.62,7.64,4.97,18.43,25.69,36.59,51.57,54.83,77.39,1.29,1.83,2.65,3.62,3.97,5.43.35-.1.7-.19,1.04-.29Z"/>
  <path class="cls-1" d="m209.19,543.72h-30.99c.56-3.27,1.59-6.49,1.6-9.71.12-34.56.08-69.12.07-103.68,0-8.12-1.51-9.6-9.75-9.62-1.39,0-2.78-.03-4.17.03-5.06.19-6.9,2.07-7.07,7.04-.1,2.91.02,5.88-.5,8.73-.92,5.08-3.43,7.2-8.54,7.31-7.09.15-14.18.04-20.72.04.56-3.13,1.44-6.16,1.6-9.23.39-7.68-.26-15.48.81-23.05,1.7-11.94,8.8-17.84,20.85-17.92,27.46-.18,54.93-.19,82.39,0,13.37.09,20.78,7.44,21.47,20.86.35,6.77,0,13.58.32,20.35.14,2.93,1.15,5.81,1.82,8.96-6.73,0-14.2.2-21.66-.07-4.8-.18-7.45-3.26-7.82-8.1-.06-.77-.12-1.55-.07-2.31,1.05-14.47-4.28-13.01-16.55-12.26-1.52.09-3.4,2.49-4.17,4.23-.82,1.87-.7,4.22-.7,6.37-.03,33.64-.08,67.27.06,100.91.01,3.68,1.1,7.36,1.7,11.13Z"/>
  <path class="cls-1" d="m776.28,686.51c.52-3.52,1.44-6.93,1.45-10.34.1-36.57.1-73.14,0-109.71,0-3.26-.91-6.52-1.41-9.95,18.73,0,38.14-.35,57.53.14,10.74.27,17.54,8.01,17.72,18.74.17,10.34.1,20.68.02,31.01-.04,5.53-1.52,8.18-7.82,15.05,7.25,5.35,8,13.14,7.9,21.35-.15,11.73-.11,23.45.02,35.18.03,2.67.74,5.33,1.2,8.46-6.02,0-12.56.3-19.05-.1-4.67-.28-6.37-3.72-6.36-8.13.02-8.49.01-16.97-.02-25.46-.03-8.88-.93-9.76-9.78-9.77-2.93,0-5.86-.03-8.8,0-5.43.07-7.17,1.7-7.23,7.22-.1,9.1-.01,18.21-.04,27.31-.02,6.57-2.33,8.92-8.85,8.97-5.7.04-11.4,0-16.48,0Zm25.37-72.52c.42.42.85.84,1.27,1.26,6.41-4.1,13.03-7.92,19.18-12.37,5.21-3.76,7.45-14.14,4.51-19.77-.75-1.44-3.04-2.75-4.72-2.89-4.75-.39-9.56-.16-14.34-.15-3.8,0-5.81,2.14-5.86,5.73-.14,9.4-.05,18.8-.05,28.19Z"/>
  <path class="cls-1" d="m577.8,599.47c.56-3.13,1.32-5.77,1.44-8.44.25-5.7-.14-11.43.29-17.11.85-11.2,7.04-17.17,18.2-17.39,12.49-.25,24.99-.25,37.48,0,11.52.23,17.61,6.04,18.4,17.62.5,7.37.3,14.8.31,22.2.03,27-.03,53.99.07,80.99.01,2.94.83,5.88,1.31,9.05-19.32,0-39.3,0-59.28-.03-.9,0-1.79-.41-2.7-.61-8.38-1.89-13.15-6.63-13.54-15.23-.55-12-.56-24.05-.2-36.06.26-8.64,6.11-13.48,13.65-16.32,6.91-2.6,14-4.72,20.96-7.2,15.85-5.64,15.97-12.47,14.59-26.56-.16-1.58-3.13-3.87-5.01-4.11-4.71-.59-9.54-.28-14.32-.18-3.54.07-5.11,2.11-5.45,5.58-1.33,13.35-1.88,13.78-15.52,13.78-3.7,0-7.39,0-10.69,0Zm51.24,29.15c-4.4,1.8-8.01,3.1-11.46,4.73-12.78,6.05-14.93,10.02-13.58,23.93.34,3.48,1.9,5.51,5.44,5.59,4.78.1,9.56.09,14.34,0,3.02-.05,5.16-1.57,5.21-4.72.13-9.51.05-19.02.05-29.54Z"/>
  <path class="cls-1" d="m676.97,599.47c.48-3.37,1.19-6.6,1.36-9.87.26-5.23-.12-10.5.28-15.72.87-11.17,7.07-17.13,18.24-17.35,12.49-.24,24.99-.25,37.48,0,11.5.23,17.56,6.05,18.36,17.66.5,7.22.3,14.49.31,21.73.03,27.15-.03,54.3.07,81.45.01,2.94.85,5.87,1.35,9.12-18.14,0-36.9.03-55.65-.04-2.44,0-4.92-.34-7.3-.9-7.23-1.69-12.19-6.7-12.51-14.16-.53-12.46-.63-24.97-.2-37.44.29-8.43,6.24-13.08,13.58-15.84,6.91-2.59,14-4.71,20.96-7.19,15.79-5.63,15.96-12.5,14.55-26.59-.16-1.57-3.14-3.82-5.04-4.07-4.55-.61-9.23-.24-13.86-.21-3.71.02-5.52,1.9-5.88,5.65-1.26,13.18-1.95,13.75-15.08,13.75-3.85,0-7.7,0-11.02,0Zm51.09,29.15c-4.44,1.84-8.05,3.15-11.5,4.79-12.75,6.05-14.93,10.11-13.47,23.99.34,3.24,1.77,5.33,5.08,5.44,5.08.16,10.21.39,15.24-.18,1.68-.19,4.37-2.65,4.44-4.16.41-9.63.21-19.29.21-29.88Z"/>
  <path class="cls-1" d="m504.53,609.57c9-2.73,17-5.45,22.22-12.29,2.32-3.04,3.34-7.56,3.66-11.52.57-7.05.11-14.17.19-21.27.06-5.51,2.39-7.89,7.88-7.98,6.01-.11,12.02-.02,17.43-.02-.47,3.31-1.26,6.53-1.31,9.76-.17,10.02-.17,20.05-.03,30.07.11,7.55-1.16,14.46-8.02,19.6,7.23,5.19,8.08,12.53,8.02,20.31-.11,13.88-.11,27.76.04,41.63.03,2.8.88,5.6,1.39,8.64-5.68,0-11.95.14-18.2-.05-4.88-.15-7.14-2.65-7.17-7.7-.07-12.03-.02-24.06-.03-36.08,0-1.54.04-3.09-.11-4.62-.65-6.89-2.43-7.91-8.92-5.28-19.01,7.7-16.96,6.37-17.01,25.36-.02,6.79.06,13.57-.03,20.35-.07,5.44-2.5,7.91-7.9,8-6.01.1-12.02.02-17.37.02.46-3.18,1.28-6.28,1.29-9.38.09-37.32.09-74.64,0-111.95,0-2.8-.87-5.6-1.38-8.69,5.66,0,11.91-.14,18.15.04,4.9.14,7.19,2.83,7.22,8.2.07,12.8.03,25.6.03,38.4,0,1.82,0,3.65,0,6.44Z"/>
  <path class="cls-1" d="m240.22,556.48c5.03,0,10.73-.07,16.42.02,6.45.11,8.85,2.6,8.85,9.07.01,29.16,0,58.31.01,87.47,0,7.7,1.24,8.96,8.74,8.99,6.17.02,12.34.05,18.51-.01,5.74-.06,7.38-1.7,7.38-7.5.03-29.31,0-58.62.01-87.94,0-7.73,2.37-10.07,10.25-10.1,5.24-.02,10.48,0,15.07,0-.4,3.24-1.11,6.35-1.12,9.47-.08,32.09-.05,64.18-.05,96.27,0,18.93-5.34,24.29-24.12,24.29-12.8,0-25.61.02-38.41,0-13.12-.02-19.1-5.57-20.18-18.75-.18-2.15-.23-4.31-.23-6.47-.01-31.78.02-63.56-.06-95.34,0-3.12-.69-6.24-1.08-9.47Z"/>
  <path class="cls-1" d="m874.19,643.53c5.42,0,11.42-.16,17.4.05,5.19.18,7.83,3.02,8.13,8.16.09,1.54,0,3.08.05,4.63.14,4.66,1.79,6.43,6.42,6.56,4.32.11,8.64.04,12.95.02,4.17-.03,6.26-2.08,6.09-6.33-.06-1.54,0-3.08,0-4.63,0-12.2-3.33-16.85-14.92-20.56-6.59-2.11-13.25-4.01-19.84-6.1-10.18-3.23-14.81-9.55-14.84-20.19-.03-9.72-.09-19.43.02-29.15.15-13.06,6.72-19.46,19.87-19.49,11.41-.03,22.83-.04,34.24,0,13.05.05,19.86,6.94,19.96,20.09.03,4.47-.14,8.95.05,13.42.13,3.11.72,6.2,1.13,9.47-5.15,0-10.85.09-16.54-.02-6.11-.12-8.88-3.01-9.1-9.22-.05-1.54,0-3.08-.03-4.63-.08-3.56-1.99-5.42-5.48-5.49-4.78-.1-9.56-.1-14.34,0-3.76.08-5.58,2.22-5.6,5.91-.03,3.39-.2,6.8.03,10.18.58,8.37,6.39,12.27,13.42,14.68,6.98,2.39,14.12,4.28,21.17,6.47,10.62,3.3,15.28,9.68,15.29,20.83,0,9.56.1,19.13-.03,28.69-.15,11.21-4.99,18.33-15.41,18.99-14.86.94-29.86.61-44.73-.27-8.19-.48-12.78-6.27-13.52-14.53-.51-5.66-.16-11.4-.46-17.09-.18-3.44-.88-6.85-1.36-10.43Z"/>
  <path class="cls-1" d="m156.3,610.18c9.56,0,18.35-.02,27.13,0,6.28.02,8.78,2.3,8.96,8.49.16,5.53.03,11.07.03,16.41-11.84-2.84-23.64-.51-35.89-1.58-.12,2.14-.28,3.76-.28,5.39-.02,12.8.01,25.61-.02,38.41-.02,6.79-2.41,9.16-9.16,9.2-5.55.03-11.1,0-16.27,0,.44-3.02,1.22-5.94,1.22-8.86.08-37.48.08-74.97,0-112.45,0-2.82-.8-5.63-1.26-8.72,10.85,0,22.21,0,33.57,0,11.11,0,22.21-.04,33.32.01,12.62.06,19.36,6.72,19.65,19.42.11,4.93-.09,9.88.1,14.81.11,2.82.71,5.62,1.12,8.75-5.74,0-12.02.17-18.28-.06-4.66-.17-7.02-2.56-6.95-7.5.22-14.54-3.66-11.7-12.92-11.85-6.01-.1-12.03,0-18.05.01-3.43,0-5.87,1.59-5.96,5.08-.22,8.13-.07,16.27-.07,25.04Z"/>
  <path class="cls-1" d="m941.12,393.65c-.59,3.11-1.56,5.88-1.57,8.65-.1,44.26-.1,88.53,0,132.79,0,2.78.96,5.57,1.5,8.49h-30.94c.58-3.01,1.73-6.21,1.74-9.42.12-43.49.12-86.98,0-130.48,0-3.36-1.19-6.72-1.82-10.04h31.09Z"/>
</svg>