<svg width="130" height="68" viewBox="0 0 130 68" fill="none" xmlns="http://www.w3.org/2000/svg">
<g id="Group 7">
<path id="Vector" d="M0.720703 66.4003V1.735C0.720703 1.15199 1.01137 0.861328 1.59438 0.861328H6.76417C7.34718 0.861328 7.63785 1.15199 7.63785 1.735V66.4003C7.63785 66.9834 7.34718 67.274 6.76417 67.274H1.59438C1.01137 67.274 0.720703 66.9834 0.720703 66.4003Z" fill="white"/>
<path id="Vector_2" d="M21.6915 67.2796H11.3502C10.7672 67.2796 10.4766 66.9889 10.4766 66.4059V1.59437C10.4766 1.01136 10.7672 0.720703 11.3502 0.720703H16.52C17.103 0.720703 17.3937 1.01136 17.3937 1.59437V63.8571H21.6898C22.2728 63.8571 22.5635 64.1478 22.5635 64.7308V66.4059C22.5635 66.9889 22.2728 67.2796 21.6898 67.2796H21.6915Z" fill="white"/>
<path id="Vector_3" d="M35.1642 67.2796H24.8229C24.2399 67.2796 23.9492 66.9889 23.9492 66.4059V1.59437C23.9492 1.01136 24.2399 0.720703 24.8229 0.720703H29.9927C30.5757 0.720703 30.8664 1.01136 30.8664 1.59437V63.8571H35.1625C35.7455 63.8571 36.0362 64.1478 36.0362 64.7308V66.4059C36.0362 66.9889 35.7455 67.2796 35.1625 67.2796H35.1642Z" fill="white"/>
<path id="Vector_4" d="M47.9796 0.86301H53.0049C53.635 0.86301 53.9508 1.15367 53.9508 1.73668V61.0121C53.9508 62.8569 53.3678 64.3623 52.2035 65.5267C51.0375 66.691 49.5085 67.274 47.615 67.274H43.7557C41.8622 67.274 40.3333 66.691 39.1673 65.5267C38.0029 64.3623 37.4199 62.8569 37.4199 61.0121L37.4922 1.66275C37.4922 1.12847 37.7828 0.861328 38.3658 0.861328H43.4634C44.0464 0.861328 44.3371 1.12847 44.3371 1.66275V62.9779C44.3371 63.5609 44.6025 63.8516 45.1385 63.8516H46.2306C46.7649 63.8516 47.032 63.5609 47.032 62.9779V1.735C47.032 1.15199 47.3479 0.861328 47.9779 0.861328L47.9796 0.86301Z" fill="white"/>
<path id="Vector_5" d="M72.0086 16.8126H66.9833C66.3515 16.8126 66.0373 16.4967 66.0373 15.8667V5.67158C66.0373 4.74918 65.5753 4.28714 64.6529 4.28714C63.7792 4.28714 63.3424 4.74918 63.3424 5.67158V17.2494C63.3424 17.8325 63.5238 18.3046 63.8884 18.6692C64.253 19.0338 64.7251 19.2152 65.3081 19.2152H66.911C68.8045 19.2152 70.3335 19.7982 71.4995 20.9626C72.6655 22.1269 73.2468 23.6323 73.2468 25.4771V60.9416C73.2468 62.8351 72.6638 64.364 71.4995 65.53C70.3351 66.6944 68.8045 67.2774 66.911 67.2774H63.0517C61.1582 67.2774 59.6293 66.6944 58.4632 65.53C57.2989 64.3657 56.7159 62.8351 56.7159 60.9416V25.9139C56.7159 25.3309 57.0318 25.0403 57.6618 25.0403H62.6871C63.3172 25.0403 63.633 25.3309 63.633 25.9139V62.4705C63.633 63.3929 64.0934 63.8532 65.0158 63.8532C65.8895 63.8532 66.3263 63.3929 66.3263 62.4705V24.6034C66.3263 23.9734 66.1449 23.4744 65.7803 23.1098C65.4157 22.7452 64.9436 22.5637 64.3605 22.5637H62.7577C60.8642 22.5637 59.3352 21.9942 58.1692 20.8517C57.0049 19.7109 56.4219 18.1937 56.4219 16.3002V7.1249C56.4219 5.23138 57.0049 3.71421 58.1692 2.57339C59.3336 1.43258 60.8642 0.861328 62.7577 0.861328H66.617C68.5105 0.861328 70.0394 1.43258 71.2055 2.57339C72.3715 3.71421 72.9528 5.23138 72.9528 7.1249V15.8633C72.9528 16.4951 72.6369 16.8092 72.0069 16.8092L72.0086 16.8126Z" fill="white"/>
<path id="Vector_6" d="M75.3594 61.0177V6.98428C75.3594 5.09075 75.9424 3.57358 77.1067 2.43276C78.2727 1.29195 79.8017 0.720703 81.6952 0.720703H85.5545C87.448 0.720703 88.9769 1.29195 90.143 2.43276C91.3073 3.57358 91.8903 5.09075 91.8903 6.98428V61.0177C91.8903 62.8625 91.3073 64.3679 90.143 65.5322C88.9786 66.6965 87.448 67.2796 85.5545 67.2796H81.6952C79.8017 67.2796 78.2727 66.6965 77.1067 65.5322C75.9424 64.3679 75.3594 62.8625 75.3594 61.0177ZM83.078 63.8571H84.17C84.7043 63.8571 84.9715 63.5664 84.9715 62.9834V5.01851C84.9715 4.4355 84.7043 4.14483 84.17 4.14483H83.078C82.5437 4.14483 82.2765 4.4355 82.2765 5.01851V62.9834C82.2765 63.5664 82.542 63.8571 83.078 63.8571Z" fill="white"/>
<path id="Vector_7" d="M103.977 66.3281V24.9663C103.977 24.1901 103.747 23.5718 103.285 23.1098C102.823 22.6494 102.205 22.4176 101.429 22.4176H101.282V66.3281C101.282 66.9111 100.992 67.2018 100.409 67.2018H95.2389C94.6559 67.2018 94.3652 66.9111 94.3652 66.3281V1.66275C94.3652 1.12847 94.6559 0.861328 95.2389 0.861328H104.56C106.454 0.861328 107.983 1.43258 109.149 2.57339C110.313 3.71421 110.896 5.23138 110.896 7.1249V15.6449C110.896 18.1214 109.95 19.941 108.057 21.107C109.95 22.6125 110.896 24.8202 110.896 27.7335V66.3281C110.896 66.9111 110.605 67.2018 110.022 67.2018H104.853C104.27 67.2018 103.979 66.9111 103.979 66.3281H103.977ZM102.012 4.28378H101.284V19.1396H102.012C102.595 19.1396 103.068 18.9581 103.431 18.5936C103.796 18.229 103.977 17.7316 103.977 17.1016V6.25122C103.977 5.66821 103.796 5.1961 103.431 4.83151C103.067 4.46692 102.595 4.28546 102.012 4.28546V4.28378Z" fill="white"/>
<path id="Vector_8" d="M123.929 0.86301H128.954C129.584 0.86301 129.9 1.15367 129.9 1.73668V60.9399C129.9 62.8334 129.317 64.3623 128.153 65.5283C126.988 66.6927 125.458 67.2757 123.564 67.2757H119.705C117.811 67.2757 116.294 66.6927 115.153 65.5283C114.013 64.364 113.441 62.8334 113.441 60.9399V56.6437C113.441 56.0607 113.732 55.7701 114.315 55.7701H119.413C119.996 55.7701 120.286 56.0607 120.286 56.6437V62.9796C120.286 63.5626 120.577 63.8532 121.16 63.8532H122.18C122.714 63.8532 122.981 63.5626 122.981 62.9796V53.4397H119.777C117.884 53.4397 116.355 52.8567 115.189 51.6924C114.023 50.528 113.441 48.9974 113.441 47.1039V1.66275C113.441 1.12847 113.732 0.861328 114.315 0.861328H119.413C119.996 0.861328 120.286 1.12847 120.286 1.66275V49.1419C120.286 49.6762 120.577 49.9433 121.16 49.9433H122.981V1.73668C122.981 1.15367 123.297 0.86301 123.927 0.86301H123.929Z" fill="white"/>
</g>
</svg>
