<svg width="56" height="28" viewBox="0 0 56 28" fill="none" xmlns="http://www.w3.org/2000/svg">
<path d="M0.720459 27.6302V0.42674C0.720459 0.18148 0.842736 0.0592041 1.088 0.0592041H3.26283C3.50809 0.0592041 3.63037 0.18148 3.63037 0.42674V27.6302C3.63037 27.8754 3.50809 27.9977 3.26283 27.9977H1.088C0.842736 27.9977 0.720459 27.8754 0.720459 27.6302Z" fill="white"/>
<path d="M9.54213 28H5.19176C4.9465 28 4.82422 27.8777 4.82422 27.6325V0.367536C4.82422 0.122276 4.9465 0 5.19176 0H7.36659C7.61185 0 7.73413 0.122276 7.73413 0.367536V26.5602H9.54142C9.78668 26.5602 9.90896 26.6825 9.90896 26.9278V27.6325C9.90896 27.8777 9.78668 28 9.54142 28H9.54213Z" fill="white"/>
<path d="M15.2103 28H10.86C10.6147 28 10.4924 27.8777 10.4924 27.6325V0.367536C10.4924 0.122276 10.6147 0 10.86 0H13.0348C13.2801 0 13.4023 0.122276 13.4023 0.367536V26.5602H15.2096C15.4549 26.5602 15.5772 26.6825 15.5772 26.9278V27.6325C15.5772 27.8777 15.4549 28 15.2096 28H15.2103Z" fill="white"/>
<path d="M20.6017 0.0599116H22.7157C22.9808 0.0599116 23.1137 0.182187 23.1137 0.427448V25.3635C23.1137 26.1395 22.8684 26.7728 22.3786 27.2626C21.8881 27.7524 21.2449 27.9977 20.4483 27.9977H18.8248C18.0282 27.9977 17.385 27.7524 16.8945 27.2626C16.4047 26.7728 16.1594 26.1395 16.1594 25.3635L16.1898 0.396348C16.1898 0.171585 16.3121 0.0592041 16.5574 0.0592041H18.7018C18.9471 0.0592041 19.0693 0.171585 19.0693 0.396348V26.1904C19.0693 26.4357 19.181 26.558 19.4065 26.558H19.8659C20.0907 26.558 20.203 26.4357 20.203 26.1904V0.426743C20.203 0.181482 20.3359 0.0592041 20.601 0.0592041L20.6017 0.0599116Z" fill="white"/>
<path d="M30.7098 6.76959H28.5958C28.33 6.76959 28.1979 6.63671 28.1979 6.37166V2.08278C28.1979 1.69475 28.0035 1.50038 27.6155 1.50038C27.2479 1.50038 27.0642 1.69475 27.0642 2.08278V6.95336C27.0642 7.19862 27.1405 7.39723 27.2939 7.55061C27.4472 7.70399 27.6459 7.78032 27.8911 7.78032H28.5654C29.362 7.78032 30.0052 8.02558 30.4957 8.5154C30.9862 9.00521 31.2308 9.6385 31.2308 10.4146V25.3338C31.2308 26.1303 30.9855 26.7735 30.4957 27.264C30.0059 27.7539 29.362 27.9991 28.5654 27.9991H26.9419C26.1453 27.9991 25.5021 27.7539 25.0116 27.264C24.5218 26.7742 24.2765 26.1303 24.2765 25.3338V10.5983C24.2765 10.3531 24.4094 10.2308 24.6745 10.2308H26.7885C27.0536 10.2308 27.1864 10.3531 27.1864 10.5983V25.977C27.1864 26.365 27.3801 26.5587 27.7681 26.5587C28.1357 26.5587 28.3194 26.365 28.3194 25.977V10.047C28.3194 9.78198 28.2431 9.57207 28.0897 9.41869C27.9363 9.26531 27.7377 9.18898 27.4925 9.18898H26.8182C26.0216 9.18898 25.3784 8.94937 24.8879 8.46875C24.3981 7.98883 24.1528 7.35058 24.1528 6.55402V2.69417C24.1528 1.8976 24.3981 1.25936 24.8879 0.779436C25.3777 0.299517 26.0216 0.0592041 26.8182 0.0592041H28.4417C29.2383 0.0592041 29.8815 0.299517 30.372 0.779436C30.8625 1.25936 31.1071 1.8976 31.1071 2.69417V6.37025C31.1071 6.63601 30.9742 6.76818 30.7091 6.76818L30.7098 6.76959Z" fill="white"/>
<path d="M32.1191 25.3657V2.63496C32.1191 1.83839 32.3644 1.20015 32.8542 0.72023C33.3447 0.240311 33.9879 0 34.7845 0H36.408C37.2046 0 37.8478 0.240311 38.3383 0.72023C38.8281 1.20015 39.0734 1.83839 39.0734 2.63496V25.3657C39.0734 26.1418 38.8281 26.7751 38.3383 27.2649C37.8485 27.7547 37.2046 28 36.408 28H34.7845C33.9879 28 33.3447 27.7547 32.8542 27.2649C32.3644 26.7751 32.1191 26.1418 32.1191 25.3657ZM35.3662 26.5602H35.8256C36.0504 26.5602 36.1628 26.438 36.1628 26.1927V1.808C36.1628 1.56274 36.0504 1.44046 35.8256 1.44046H35.3662C35.1414 1.44046 35.029 1.56274 35.029 1.808V26.1927C35.029 26.438 35.1407 26.5602 35.3662 26.5602Z" fill="white"/>
<path d="M44.1584 27.5998V10.1997C44.1584 9.87316 44.0615 9.61306 43.8672 9.41869C43.6728 9.22502 43.4127 9.12748 43.0861 9.12748H43.0247V27.5998C43.0247 27.845 42.9024 27.9673 42.6571 27.9673H40.4823C40.237 27.9673 40.1147 27.845 40.1147 27.5998V0.396348C40.1147 0.171585 40.237 0.0592041 40.4823 0.0592041H44.4036C45.2002 0.0592041 45.8434 0.299517 46.3339 0.779436C46.8237 1.25936 47.069 1.8976 47.069 2.69417V6.27836C47.069 7.32019 46.6711 8.08566 45.8745 8.57618C46.6711 9.20947 47.069 10.1382 47.069 11.3638V27.5998C47.069 27.845 46.9467 27.9673 46.7014 27.9673H44.5266C44.2814 27.9673 44.1591 27.845 44.1591 27.5998H44.1584ZM43.3314 1.49896H43.0254V7.74851H43.3314C43.5767 7.74851 43.776 7.67218 43.9287 7.5188C44.082 7.36542 44.1584 7.15621 44.1584 6.89116V2.32663C44.1584 2.08137 44.082 1.88276 43.9287 1.72938C43.7753 1.576 43.5767 1.49967 43.3314 1.49967V1.49896Z" fill="white"/>
<path d="M52.552 0.0599116H54.6661C54.9311 0.0599116 55.064 0.182187 55.064 0.427448V25.3331C55.064 26.1296 54.8187 26.7728 54.3289 27.2633C53.8391 27.7532 53.1952 27.9984 52.3986 27.9984H50.7751C49.9785 27.9984 49.3403 27.7532 48.8604 27.2633C48.3805 26.7735 48.1401 26.1296 48.1401 25.3331V23.5258C48.1401 23.2805 48.2624 23.1582 48.5077 23.1582H50.6521C50.8974 23.1582 51.0197 23.2805 51.0197 23.5258V26.1911C51.0197 26.4364 51.1419 26.5587 51.3872 26.5587H51.8162C52.041 26.5587 52.1534 26.4364 52.1534 26.1911V22.1779H50.8055C50.0089 22.1779 49.3657 21.9326 48.8752 21.4428C48.3847 20.953 48.1401 20.3091 48.1401 19.5125V0.396348C48.1401 0.171585 48.2624 0.0592041 48.5077 0.0592041H50.6521C50.8974 0.0592041 51.0197 0.171585 51.0197 0.396348V20.3699C51.0197 20.5947 51.1419 20.707 51.3872 20.707H52.1534V0.427448C52.1534 0.182187 52.2862 0.0599116 52.5513 0.0599116H52.552Z" fill="white"/>
</svg>
