<?xml version="1.0" encoding="UTF-8"?>
<svg id="Layer_1" data-name="Layer 1" xmlns="http://www.w3.org/2000/svg" viewBox="0 0 1080 1080">
  <defs>
    <style>
      .cls-1 {
        fill: #fff;
      }
    </style>
  </defs>
  <path class="cls-1" d="m196.16,539.91c0,17.29.02,34.59-.02,51.88,0,1.85.02,3.81-.55,5.52-1.55,4.68-5.11,7.04-9.92,7.59-1.17.14-2.36.07-3.54.07-34.16,0-68.32.02-102.48-.02-1.94,0-3.96-.15-5.81-.69-4.51-1.32-7.32-5.16-7.47-9.87-.08-2.55-.03-5.11-.03-7.66,0-33.02,0-66.03.01-99.05,0-1.56-.02-3.18.35-4.67,1.12-4.49,5.07-7.59,9.89-7.96,1.27-.1,2.56-.05,3.84-.05,34.16,0,68.32,0,102.48,0,.79,0,1.58-.02,2.36.02,6.32.3,10.75,4.64,10.78,10.94.08,17.98.03,35.96.03,53.94.02,0,.05,0,.07,0Zm-63.55-1.46c0-1.41,0-2.57,0-3.73,0-12.77,0-25.54,0-38.31,0-.79-.02-1.57-.04-2.36-.03-.93-.54-1.45-1.44-1.56-.68-.08-1.37-.1-2.06-.1-13.09,0-26.18.01-39.27.03-.79,0-1.58,0-2.36.11-2.62.4-3.58,1.44-3.73,4.07-.12,2.16-.25,4.32-.25,6.48-.02,25.84-.04,51.68-.01,77.51,0,6.03,1.06,7.03,7.05,7.03,27.36,0,54.72,0,82.09,0,1.08,0,2.19,0,3.22-.25,1.98-.48,2.74-1.5,2.91-3.54.05-.59.05-1.18.05-1.77.08-13.16.16-26.32.23-39.49.02-3.77-.31-4.08-3.98-4.02-.1,0-.2,0-.3,0-12.99.08-25.98.16-38.97.22-.95,0-1.89-.19-3.13-.32Z"/>
  <path class="cls-1" d="m780.11,587.19h-19.23v-93.94c.7-.07,1.35-.19,2.01-.19,5.71-.01,11.42.09,17.13-.06,2.01-.05,2.94.72,3.8,2.43,8.33,16.38,16.74,32.71,25.14,49.06.49.95,1.02,1.87,1.81,3.3,3.66-6.13,6.51-12.21,9.62-18.16,3.19-6.09,6.32-12.22,9.47-18.33,3.11-6.02,6.22-12.03,9.35-18.08h21.67v93.94h-18.7c-.07-1.17-.2-2.31-.2-3.44-.01-16.9,0-33.81-.01-50.71,0-1.14-.11-2.27-.17-3.41-.2-.04-.4-.08-.6-.13-.96,1.67-1.95,3.32-2.89,5-6.34,11.43-12.7,22.85-18.97,34.31-.8,1.46-1.64,2.21-3.4,2.16-4.12-.12-8.25-.04-12.37-.04-7.61-13.8-15.14-27.46-22.64-41.05-.46.14-.56.16-.65.2-.07.04-.18.12-.18.18,0,18.85,0,37.71,0,56.94Z"/>
  <path class="cls-1" d="m546.86,551.27c8.59,11.95,17,23.63,25.64,35.65-1.1.19-1.72.4-2.35.4-6.2.03-12.4-.01-18.6.07-1.6.02-2.43-.67-3.29-1.92-7.61-10.99-15.29-21.93-22.97-32.87-.43-.61-.98-1.15-1.95-2.27-.36,4.6-.16,8.59-.23,12.55-.07,4.03-.03,8.06-.03,12.09,0,3.99,0,7.99,0,12.19h-18.45c-.57-2.01-.86-87.96-.31-93.81.59-.09,1.23-.28,1.88-.28,9.75,0,19.49,0,29.24.06,5.45.03,10.78.87,15.92,2.74,10.08,3.68,15.98,10.77,17.39,21.43.87,6.54.41,12.94-2.47,19.01-3.12,6.57-8.31,10.83-15.05,13.33-1.35.5-2.7,1.01-4.37,1.63Zm-23.25-42.48v29.82c5.35.01,10.55.54,15.62-.87,5.71-1.59,9.26-5.34,10.25-11.28,1.38-8.27-3.21-15.46-11.06-17.15-4.83-1.04-9.73-.46-14.81-.52Z"/>
  <path class="cls-1" d="m656.44,587.23c10.93-31.61,21.7-62.76,32.51-94.04h24.17c10.68,31.18,21.39,62.41,32.2,93.97h-20.98c-1.21-3.63-2.48-7.32-3.68-11.03-2.08-6.38-1.06-5.13-6.9-5.18-9.45-.08-18.9-.02-28.35,0-3.06,0-3.07.01-4.11,2.97-1.26,3.61-2.5,7.24-3.77,10.85-.29.82-.65,1.61-.99,2.46h-20.11Zm57.33-32.12c-4.33-13.02-8.52-25.62-12.71-38.21l-.75.02c-4.33,12.6-8.58,25.24-12.86,38.19h26.32Z"/>
  <path class="cls-1" d="m348.64,560.04h18.18c.12.5.24.86.3,1.24.96,6.04,3.93,9.36,9.82,10.63,4.11.88,8.06.26,11.55-2.21,5.28-3.72,5.64-10.87.58-14.87-2.04-1.62-4.51-2.79-6.93-3.83-4.15-1.78-8.52-3.1-12.61-5-3.55-1.65-7.03-3.58-10.2-5.85-8.63-6.17-10.95-14.98-9.65-25.01,1.69-13.03,11.94-22.19,26.3-23.72,5.55-.59,11.01-.17,16.34,1.58,11.64,3.83,19.22,14,19.64,26.59h-18.98c-.19-.84-.37-1.69-.58-2.52-1.42-5.69-5.09-8.64-10.95-8.86-3.01-.11-5.88.23-8.46,2-5.11,3.5-5.92,10.19-1.47,14.51,1.65,1.61,3.75,2.9,5.87,3.85,3.94,1.77,8.07,3.12,12.07,4.77,3.09,1.27,6.18,2.59,9.13,4.14,9.51,4.99,14.53,13.01,14.22,23.66-.31,11.03-5.22,19.89-15.67,24.4-12.86,5.55-25.8,5.47-37.78-2.47-7.96-5.28-10.58-13.51-10.74-23.02Z"/>
  <path class="cls-1" d="m609.81,547.84v23.79h32.53c.63,5.29-.08,10.25.13,15.14-2.3.66-48.28.84-51.94.23v-93.75h51.91c.37,4.96-.17,9.82.04,15.06-1.45.1-2.78.26-4.11.27-8.47.06-16.94.08-25.4.12-.97,0-1.94.09-3.19.15v23.21h32.53c.57,5.24-.05,10.19.19,15.52-10.91.37-21.6-.05-32.7.25Z"/>
  <path class="cls-1" d="m963.88,587.26c0-1.3,0-2.27,0-3.23,0-11.8-.02-23.59.04-35.39,0-1.94-.43-3.6-1.45-5.27-8.64-14.3-17.22-28.64-25.8-42.98-1.35-2.25-2.6-4.56-4.07-7.15,1.06-.07,1.8-.15,2.54-.15,5.81-.02,11.62.05,17.43-.08,1.93-.04,2.94.57,3.89,2.3,5.09,9.31,10.35,18.54,15.56,27.78.42.74.94,1.43,1.66,2.53,6.08-11.02,11.96-21.66,17.91-32.44h22.08c-.37.86-.58,1.57-.94,2.19-9.57,16.27-19.14,32.54-28.76,48.77-.8,1.34-1.06,2.64-1.04,4.17.12,8.84.17,17.69.21,26.53,0,1.17-.14,2.36-.32,3.52-.71,4.55-4.48,8.41-9.06,8.85-3.11.29-6.26.06-9.89.06Z"/>
  <path class="cls-1" d="m330.15,587.22h-17.42c-.06-1.26-.15-2.4-.16-3.55-.01-11.99,0-23.98-.02-35.97,0-1.28-.05-2.56-.14-3.83-.6-7.88-8.89-11.35-15.42-7.98-4,2.06-6.03,5.55-6.31,9.99-.17,2.64-.1,5.3-.1,7.96,0,9.93,0,19.85,0,29.78,0,1.07,0,2.13,0,3.12-2.24.69-13.01.9-17.48.41-.61-1.98-.84-60.44-.26-64.66,2.13-.56,12.69-.71,17.62-.21.08,2.1.17,4.26.28,7.05.97-1.07,1.52-1.58,1.96-2.18,4.59-6.18,10.96-7.98,18.26-7.33,3.26.29,6.37,1.23,9.26,2.81,5.37,2.95,8.54,7.47,9.46,13.48.39,2.52.62,5.08.63,7.63.06,13.66.04,27.32.04,40.98,0,.76-.11,1.52-.19,2.5Z"/>
  <path class="cls-1" d="m466.18,508.65v78.48h-19.26v-78.45h-22.46v-15.44h63.95c.23,4.93.09,9.86.09,14.89-2.55.93-5.01.39-7.42.49-2.36.1-4.72.03-7.09.03-2.45,0-4.9,0-7.81,0Z"/>
  <path class="cls-1" d="m905.28,571.44h30.83c.76,2.4.89,11.65.26,15.88-16.61.04-33.28,0-50.17.02v-94.09h19.09v78.19Z"/>
  <path class="cls-1" d="m249.71,587.29c-3.56-.02-6.8.51-9.95-.5-4.42-1.42-7.2-4.32-7.56-9.11-.2-2.64-.33-5.29-.33-7.94-.05-15.12-.05-30.25-.06-45.37,0-.59.06-1.17.09-1.73,2-.74,11.35-.96,17.61-.39.48,5.28.12,10.64.19,15.97.07,5.5.02,11,.02,16.5v32.58Z"/>
  <path class="cls-1" d="m231.09,502.36c.07-5.34,4.22-9.19,9.84-9.13,5.77.07,9.76,4.21,9.65,10.02-.1,5.42-4.73,9.92-10.12,9.82-5.43-.1-9.46-4.71-9.38-10.71Z"/>
</svg>