<?xml version="1.0" encoding="UTF-8"?>
<svg id="Layer_1" data-name="Layer 1" xmlns="http://www.w3.org/2000/svg" viewBox="0 0 1080 1080">
  <defs>
    <style>
      .cls-1 {
        fill: #fff;
      }
    </style>
  </defs>
  <path class="cls-1" d="m708.44,637.55c1.02-3.52,2.08-7.02,3.05-10.55,4.71-17.1,9.38-34.21,14.08-51.31,5.92-21.53,11.87-43.05,17.77-64.58,6.19-22.56,12.35-45.14,18.52-67.71.66-2.42,1.24-4.87,1.98-7.26.16-.5.83-1.07,1.36-1.18,1.09-.22,2.23-.2,3.35-.2,10.97,0,21.95.02,32.92.01,4.47,0,4.47-.04,4.47,4.29-.02,45.13-.05,90.25-.06,135.38,0,36.56.02,73.12.03,109.69,0,1.5-.12,3-.01,4.49.1,1.4-.32,1.86-1.77,1.85-7.23-.06-14.45,0-21.68-.01-5.19,0-10.38-.08-15.58-.02-1.49.02-1.86-.46-1.86-1.93.06-47.9.07-95.8.08-143.7,0-14.66-.01-29.33-.02-43.99,0-1.7,0-3.39-.37-5.2-.27.7-.59,1.38-.79,2.09-4.82,17.4-9.62,34.81-14.42,52.22-6.32,22.92-12.64,45.84-18.95,68.76-6.23,22.61-12.44,45.23-18.65,67.85-1.07,3.89-1.04,3.9-5.13,3.9-8.24,0-16.49-.02-24.73.02-1.17,0-1.64-.35-1.96-1.51-6.98-25.12-14.03-50.22-21.01-75.34-6.31-22.7-12.53-45.42-18.83-68.12-3.99-14.36-8.06-28.7-12.11-43.04-.37-1.32-.81-2.63-1.53-3.9v191.69c-.53.08-.88.18-1.24.18-4.6.01-9.21-.05-13.81.04-1.59.03-2.05-.43-2.05-2.08.05-50.91.04-101.82.04-152.73,0-32.33,0-64.67-.01-97,0-.21,0-.43,0-.64-.04-3.16-.04-3.25,3.15-3.25,12.74,0,25.48.07,38.22.09,1.06,0,1.59.26,1.89,1.39,4.04,15.01,8.13,30,12.23,45,6.33,23.13,12.67,46.26,19,69.4,4.09,14.94,8.15,29.89,12.22,44.84,3.59,13.2,7.15,26.4,10.74,39.59.24.88.67,1.7,1.02,2.55.15-.03.3-.05.46-.08Z"/>
  <path class="cls-1" d="m482.8,571.4c-2.29,3.54-4.32,6.72-6.39,9.88-3.26,4.96-6.57,9.89-9.77,14.89-.48.74-.66,1.8-.66,2.71-.03,28.86-.03,57.71-.03,86.57,0,1.28-.08,2.57-.05,3.85.02.93-.41,1.2-1.26,1.2-12.69-.03-25.37-.03-38.06-.06-2.08,0-2.08-.04-2.09-2.19,0-38.44-.02-76.88-.02-115.31,0-45.4,0-90.8-.03-136.19,0-1.41.36-1.99,1.87-1.97,5.3.06,10.6,0,15.9,0,7.81,0,15.62,0,23.64,0v132.91c.11.03.22.06.33.09,1-1.47,2.02-2.92,2.98-4.4,12.65-19.47,25.28-38.94,37.93-58.41,11.97-18.44,23.96-36.86,35.93-55.3,2.91-4.49,5.72-9.04,8.63-13.52.33-.51,1.03-1.12,1.56-1.12,6.26-.05,12.51,0,18.77.04.08,0,.16.12.27.21-2.3,3.64-4.59,7.28-6.9,10.91-15.37,24.2-30.74,48.4-46.11,72.6-2.06,3.25-4.09,6.52-6.21,9.74-.9,1.36-.88,2.58-.27,4.06,4.73,11.34,9.41,22.7,14.09,34.07,5.54,13.49,11.04,27,16.6,40.49,4.92,11.96,9.9,23.89,14.83,35.84,6.03,14.62,12.04,29.24,18.05,43.87.45,1.08.83,2.19,1.31,3.47-.48.08-.87.21-1.25.21-14.02,0-28.05-.07-42.07,0-1.65,0-2.29-.71-2.81-1.97-2.95-7.11-5.9-14.21-8.85-21.32-7.7-18.55-15.41-37.1-23.1-55.66-4.7-11.35-9.34-22.73-14.02-34.09-.79-1.92-1.69-3.78-2.72-6.06Z"/>
  <path class="cls-1" d="m231.98,690.29c2.03-8.14,3.99-15.95,5.92-23.77,4.7-18.98,9.39-37.96,14.08-56.94,4.94-19.97,9.85-39.95,14.8-59.92,4.09-16.49,8.25-32.96,12.34-49.45,5.04-20.33,10.05-40.67,15.07-61.01.13-.52.23-1.04.35-1.57.63-2.87.63-2.88,3.69-2.88,8.24,0,16.49,0,24.73,0,2.99,0,5.98,0,8.77,0,3.59,14.02,7.15,27.88,10.67,41.74,6.61,26.05,13.16,52.11,19.78,78.15,3.66,14.4,7.45,28.76,11.11,43.15,3.87,15.22,7.61,30.47,11.46,45.7,3.82,15.07,7.7,30.12,11.56,45.18.43,1.66.32,1.85-1.42,1.84-13.12-.02-26.23-.08-39.35-.04-1.67,0-2.31-.61-2.69-2.15-3.81-15.57-7.66-31.14-11.53-46.7-1.68-6.74-3.44-13.46-5.11-20.2-.21-.85-.56-1.18-1.39-1.16-.86.02-1.71-.03-2.57-.03-20.82-.01-41.65-.01-62.47-.03-3.7,0-3.72-.05-4.61,3.6-3.43,14.07-6.83,28.15-10.26,42.22-1.88,7.74-3.82,15.46-5.67,23.21-.25,1.03-.54,1.28-1.68,1.24-4.44-.13-8.88-.04-13.33-.06-.68,0-1.35-.09-2.28-.16Zm68.81-210.5c-.17.01-.34.02-.52.04-.74,3.11-1.46,6.22-2.21,9.33-5.02,20.56-10.06,41.11-15.07,61.67-4.06,16.67-8.1,33.34-12.12,50.01-.24.98-.26,2.01-.37,2.95h61.45c-10.41-41.44-20.79-82.72-31.16-123.99Z"/>
  <path class="cls-1" d="m964.41,674.66v15.79c-1.41,0-2.77,0-4.14,0-33.4,0-66.81.02-100.21.03-3.43,0-6.85-.03-10.28.04-1.28.03-1.76-.27-1.76-1.69.01-46.3-.03-92.61-.05-138.91-.02-37.74,0-75.48-.05-113.22,0-1.45.39-1.94,1.9-1.94,35.38.03,70.77.02,106.15.02,2.34,0,4.69,0,7.1,0v15.62c-1,0-1.89,0-2.79,0-22.32,0-44.64-.03-66.97-.01-3.48,0-3.07-.46-3.07,3.11-.02,25.05.01,50.11.03,75.16,0,6.91.04,13.81-.02,20.72-.01,1.33.35,1.77,1.7,1.76,13.6-.06,27.19-.06,40.79-.08,7.06,0,14.13,0,21.31,0v15.64h-63.8c0,2.5,0,4.79,0,7.07,0,33.08.03,66.17-.01,99.25,0,1.46.64,1.54,1.73,1.54,10.55-.02,21.09-.03,31.64-.03,13.22,0,26.44.02,39.67.03.32,0,.63.06,1.13.11Z"/>
  <path class="cls-1" d="m157.95,674.45h51.67c0,5.21.02,10.16-.06,15.12,0,.33-.8.92-1.23.92-6.42.04-12.85-.01-19.27,0-23.93,0-47.86.02-71.79.05-1.18,0-1.63-.23-1.62-1.62.09-8.19.02-16.38.02-24.57,0-73.88.01-147.75.01-221.63,0-2.09-.03-4.18-.11-6.26-.04-1.13.3-1.7,1.54-1.65,1.66.06,3.32-.02,4.98-.01,11.46.02,22.91.08,34.37.05,1.23,0,1.56.37,1.56,1.54-.04,76.55-.06,153.11-.08,229.66,0,2.72,0,5.44,0,8.41Z"/>
  <path class="cls-1" d="m961.86,389.46v20.35h-114.75v-20.35h114.75Z"/>
</svg>