<?xml version="1.0" encoding="UTF-8"?>
<svg id="Layer_1" data-name="Layer 1" xmlns="http://www.w3.org/2000/svg" viewBox="0 0 1080 1080">
  <defs>
    <style>
      .cls-1 {
        fill: #fff;
      }
    </style>
  </defs>
  <path class="cls-1" d="m336.78,562.4c-1.66-1.21-2.88-2.27-4.25-3.07-7.85-4.6-15.72-9.18-23.66-13.64-.6-.34-1.95-.01-2.58.48-6.56,5.15-12.92,10.56-19.58,15.58-15.19,11.46-31.58,20.67-50.15,25.54-11.1,2.91-22.4,3.99-33.85,3.58-.42-.02-.85-.14-1.27-.13-2.68.07-3.44-1.29-3.21-3.82.22-2.36.16-4.77.01-7.15-.13-2.07.8-2.52,2.59-2.26,11.82,1.71,23.17-.12,34.21-4.46,15.57-6.12,29.17-15.4,41.54-26.47,6.52-5.84,12.47-12.31,18.73-18.45,1.4-1.37,1.59-2.44.18-4.04-17.95-20.31-39.33-35.25-65.83-42.17-9.35-2.44-18.91-3.33-28.56-2.86-2.3.11-2.93-.62-2.86-2.85.15-5.45.12-10.9.01-16.35-.04-1.93.62-2.46,2.5-2.46,50.51.04,101.03.05,151.54-.01,2.12,0,2.56.74,2.55,2.67-.04,53.3-.04,106.61,0,159.91,0,2.01-.57,2.62-2.61,2.62-50.43-.05-100.86-.05-151.29,0-2.18,0-2.77-.7-2.71-2.78.13-4.42.12-8.86,0-13.28-.05-1.85.45-2.62,2.43-2.48,22.92,1.6,44.95-3.41,66.79-9.36,16.85-4.59,33.25-10.54,48.66-18.83,6.27-3.37,12.16-7.48,18.19-11.29.76-.48,1.37-1.21,2.45-2.17Z"/>
  <path class="cls-1" d="m669.24,486.1c.97,0,1.8,0,2.63,0,15.33.06,30.65.07,45.98.19,8.03.06,16.01.89,23.68,3.38,14.45,4.71,23.03,14.99,26.65,29.43,3.8,15.17,3.61,30.36-1.1,45.35-4.5,14.33-14.68,22.36-29.14,25.01-5.66,1.04-11.5,1.46-17.26,1.52-16.52.2-33.04.07-49.56.07h-1.88v-104.96Zm29.36,82.52c5.23,0,10.24.04,15.25-.02,1.78-.02,3.56-.26,5.33-.51,11.89-1.65,19.44-8.73,21.72-20.48,1.29-6.68,1.21-13.38-.53-19.98-2.21-8.34-7.39-14-15.65-16.73-8.52-2.81-17.28-1.79-26.12-1.97v59.69Z"/>
  <path class="cls-1" d="m493.43,590.92h-28.85c0-3.77,0-7.41,0-11.05-.03-13.19.09-26.39-.19-39.58-.1-4.81-.74-9.69-1.84-14.38-1.98-8.47-7.74-13.6-16.3-14.2-9.3-.65-18.69-.15-28.33-.15v79.35h-29.7v-105.04c1.02,0,1.93,0,2.84,0,17.72.02,35.44-.08,53.16.09,9.05.09,18.01,1.03,26.51,4.58,10.65,4.45,17.43,12.4,20.27,23.4,1.45,5.63,2.34,11.55,2.43,17.36.3,19.16.13,38.32.13,57.48,0,.66-.07,1.32-.12,2.12Z"/>
  <path class="cls-1" d="m949.03,591.05c-10.36,0-20.4.03-30.43-.08-.64,0-1.57-1.07-1.84-1.83-1.76-4.88-3.44-9.79-5.01-14.73-.46-1.46-1.13-2-2.69-1.99-14.98.05-29.97.05-44.96,0-1.55,0-2.22.53-2.7,1.98-1.67,5-3.44,9.97-5.31,14.9-.28.73-1.3,1.67-1.98,1.68-9.1.11-18.21.07-27.57.07.21-.79.32-1.43.55-2.01,13.23-33.54,26.48-67.08,39.67-100.64.7-1.78,1.61-2.37,3.54-2.35,11.49.1,22.99.1,34.48,0,1.92-.02,2.78.59,3.5,2.4,13.16,33.21,26.4,66.38,39.62,99.56.37.92.69,1.86,1.12,3.04Zm-62.05-85.76c-6.33,16.77-12.38,32.77-18.47,48.9h36.32c-5.92-16.23-11.76-32.22-17.85-48.9Z"/>
  <path class="cls-1" d="m554.11,568.24c1.58-5.25,3.18-10.49,4.74-15.75,6.38-21.44,12.73-42.89,19.16-64.32.24-.79,1.13-1.97,1.73-1.97,9.53-.12,19.05-.09,28.97-.09-.28,1.05-.45,1.83-.69,2.59-10.78,33.17-21.59,66.33-32.29,99.53-.74,2.29-1.74,2.91-4.08,2.89-12.26-.13-24.53-.06-36.79-.06h-2.88c-11.27-34.92-22.49-69.72-33.8-104.8,1.05-.06,1.86-.16,2.68-.16,8.86-.01,17.72.06,26.57-.06,2.06-.03,2.9.54,3.48,2.59,7.24,25.71,14.59,51.39,21.92,77.08.24.85.54,1.69.81,2.53.16,0,.32,0,.48,0Z"/>
  <path class="cls-1" d="m814.01,590.91h-29.36v-104.63h29.36v104.63Z"/>
  <path class="cls-1" d="m621.55,486.26h29.32v104.63h-29.32v-104.63Z"/>
  <path class="cls-1" d="m197.84,480.11c0,3.48.11,6.78-.1,10.06-.04.57-1.36,1.45-2.15,1.53-14.2,1.39-27.37,5.82-39.52,13.24-9.52,5.82-17.88,12.98-24.9,21.69-1.09,1.35-1.3,2.55-.66,4.17,7.41,18.81,18.19,35.14,34.71,47.24,9.14,6.7,19.36,10.92,30.55,12.64,1.66.26,2.17.83,2.11,2.41-.09,2.64-.08,5.28,0,7.91.05,1.64-.4,2.26-2.21,2.03-24.34-3.11-44.7-13.95-61.65-31.49-12.02-12.44-21.17-26.76-28-42.62-.82-1.91-.75-3.18.91-4.64,19.05-16.71,40.04-30.21,64.1-38.53,8.5-2.94,17.23-5.13,26.81-5.65Z"/>
  <path class="cls-1" d="m198.18,565.04c.04-13.78.07-27.57.11-41.35,0-3.8-.01-3.7,3.66-3.01,7.02,1.31,12.35,5.09,16.27,10.9,2.89,4.29,5.59,8.7,8.64,13.46,7.24-6.1,14.35-12.08,22-18.53-3.1-2.9-5.82-5.78-8.87-8.25-11.11-8.97-23.79-13.17-38.13-12.21-3.56.24-3.57.08-3.57-3.51,0-2.64.1-5.28-.03-7.91-.1-1.87.54-2.48,2.43-2.59,10.63-.63,20.84,1.2,30.63,5.27,14.75,6.13,26.98,15.69,37.29,27.8.72.84,1.52,1.49.48,2.79-10.81,13.43-22.8,25.49-38.39,33.41-10.15,5.15-20.7,6.94-31.83,3.66-.23-.07-.5,0-.76,0l.08.08Z"/>
  <path class="cls-1" d="m198.1,564.96v11.51c-2.56-.58-4.7-.89-6.72-1.56-17.14-5.61-28.98-17.23-37.03-33.02-1.54-3.02-2.71-6.23-4.06-9.34-.6-1.39-.43-2.47.78-3.58,11.81-10.82,25.48-17.97,41.25-20.98,1.73-.33,3.49-.49,5.54-.77,0,3.76.06,7.23-.07,10.69-.02.5-1.01,1.39-1.53,1.37-10.47-.44-18.32,4.82-25.44,11.61-.74.71-1.37,2.34-1.07,3.2,4.39,12.59,11.48,23.1,23.7,29.38,1.46.75,3.15,1.07,4.74,1.58,0,0-.08-.08-.08-.08Z"/>
  <path class="cls-1" d="m974.49,585.1c-.15,4.54-4.41,9.4-10.14,9.21-5.56-.19-9.42-3.87-9.4-9.24.02-5.32,3.97-9.16,9.45-9.25,5.61-.09,9.89,4.49,10.1,9.28Zm-3.08.03c.02-3.96-2.92-7.06-6.78-7.15-3.94-.09-7,3.06-6.97,7.18.03,4.02,2.93,6.97,6.87,6.99,3.85.02,6.85-3.05,6.87-7.02Z"/>
  <path class="cls-1" d="m966.91,586.64c.38.67,1.04,1.84,1.76,3.1-3.77,1.36-2.98-3.29-5.23-3.78q-1.48,3.89-2.63,3.83v-9.83c2,.15,4.02.08,5.92.53.82.2,1.92,1.49,1.91,2.27-.01,1.11-.94,2.21-1.74,3.87Zm-3.41-5.17c-.29.43-.57.87-.86,1.3.64.47,1.24,1.24,1.92,1.32.55.06,1.19-.72,1.79-1.12-.95-.5-1.9-1-2.84-1.5Z"/>
</svg>