<?xml version="1.0" encoding="UTF-8"?>
<svg id="Layer_1" data-name="Layer 1" xmlns="http://www.w3.org/2000/svg" viewBox="0 0 1080 1080">
  <defs>
    <style>
      .cls-1 {
        fill: #fff;
      }
    </style>
  </defs>
  <path class="cls-1" d="m524.88,490.04c.75-.43,1.5-.84,2.25-1.28,16.93-9.86,32.47-21.68,47.96-33.6,15.95-12.28,32.05-24.37,48.13-36.48,6.26-4.72,13.04-8.53,20.61-10.78,4.35-1.29,8.97-2.03,13.16-.54,5.65,2.01,10.48,5.58,12.91,11.47.97,2.34.16,4.52-1.48,6.13-3.27,3.22-6.51,6.57-10.23,9.21-18.96,13.46-37.91,26.92-57.18,39.93-11.31,7.64-23.15,14.51-34.84,21.57-12.34,7.45-24.59,15.03-35.97,23.92-5.61,4.38-6.9,7.36-4.49,14.07,3.45,9.61,7.29,19.09,11.23,28.52,6.32,15.11,12.86,30.13,19.33,45.17.84,1.95,1.88,3.81,3.02,6.1.92-1.14,1.65-1.94,2.26-2.81,12.67-18.23,25.33-36.46,37.99-54.69,30.22-43.5,61.65-86.09,95.38-126.97,3.4-4.12,6.6-8.42,10.02-12.53,3.53-4.25,7.69-7.78,13.4-8.54,6.07-.8,12.16-.89,17.99,1.49,6.5,2.66,9.43,7.87,8.66,14.86-1.32,11.85-2.37,23.74-3.79,35.58-1.73,14.41-3.68,28.78-5.62,43.16-1.59,11.81-3.3,23.6-4.95,35.41-.08.56,0,1.14,0,2.03,4.2-.92,8.15-1.78,12.1-2.66,5.42-1.21,10.86-2.37,16.25-3.71.89-.22,1.93-1.14,2.3-2,14.21-32.62,28.35-65.27,42.52-97.91,1.27-2.92,2.62-5.81,4-8.69,4.69-9.79,12.65-15.3,23.13-17.3,3.33-.64,6.77-1.11,10.15-1.04,7.69.16,12.32,3.79,14.35,11.23.95,3.48,1.54,7.11,1.77,10.71,1.45,22.95,2.98,45.91,2.87,68.93-.02,4.3.26,8.6.43,12.91.03.88.18,1.75.32,2.96,3.12-.55,6.09-1.02,9.03-1.6,19.04-3.73,38.06-7.6,57.14-11.13,4.6-.85,9.43-.93,14.13-.73,5.97.25,9.93,3.76,10.75,9.68.58,4.2.44,8.58.06,12.82-.41,4.56-3.37,7.36-7.8,8.31-6.08,1.3-12.18,2.51-18.31,3.57-15.33,2.66-30.67,5.23-46.01,7.83-4.82.82-9.63,1.71-14.47,2.4-1.92.27-2.79.83-2.75,3.01.36,16.39,1.27,32.73,3.49,49,1.68,12.32,2.93,24.71,4.13,37.09.59,6.11.97,12.28.85,18.41-.2,10.09-5.83,15.86-15.88,16.88-5.16.52-10.34,1-15.52,1.27-3.92.2-6.23-1.24-7.46-5.01-1.22-3.71-2.06-7.57-2.71-11.42-2.42-14.29-2.96-28.73-3.26-43.2-.34-16.69-.95-33.38-1.41-50.07-.08-2.88-.01-5.76-.01-9.03-2.98.44-5.74.77-8.47,1.25-8.9,1.56-17.78,3.24-26.7,4.73-2.08.35-3.16,1.15-3.75,3.27-6.18,22.32-12.41,44.63-18.73,66.92-3.21,11.32-6.63,22.59-9.96,33.88-1.46,4.95-5.25,7.53-9.96,8.06-4.5.51-9.21.42-13.69-.27-7.65-1.19-10.86-7.02-9.54-14.26,1.47-8.05,3.82-15.96,6.11-23.84,6.17-21.18,12.51-42.31,18.78-63.47.21-.7.35-1.42.61-2.46-.89.1-1.58.12-2.25.25-6.61,1.31-13.21,2.68-19.84,3.92-1.28.24-1.67.79-1.85,2-1.41,9.22-2.91,18.42-4.35,27.63-1.86,11.84-3.68,23.69-5.54,35.54-.81,5.19-1.4,10.43-2.56,15.53-1.23,5.43-3.79,10.28-8.12,14.02-4.49,3.87-10.01,4.69-15.58,5.07-3.31.22-6.67-.13-10-.43-3.85-.35-6.28-2.77-7.34-6.25-.94-3.09-1.69-6.34-1.83-9.55-.62-14.67,2.34-28.88,5.94-42.98,2.54-9.97,5.06-19.94,7.57-29.92.14-.56.18-1.15.32-2.13-2.89.52-5.53.98-8.17,1.48-21.61,4.09-43.22,8.23-64.85,12.23-1.62.3-2.22,1.17-2.86,2.37-11.1,20.73-22.18,41.47-33.35,62.17-2.04,3.78-4.27,7.48-6.76,10.97-3.05,4.29-7.39,6.63-12.74,6.62-4.51,0-9.05-.07-13.54-.48-5.5-.49-9.15-3.72-10.97-8.83-2.44-6.83-4.76-13.71-6.98-20.62-10.42-32.5-20.8-65.02-31.19-97.54-.31-.98-.72-1.93-1.31-3.5-1.33,2.13-2.47,3.8-3.45,5.56-9.09,16.28-16.49,33.34-23.68,50.52-7.15,17.09-14.45,34.12-21.83,51.11-1.56,3.58-3.48,7.08-5.73,10.26-4.44,6.26-10.9,9.33-18.42,9.84-4.71.32-9.5.22-14.2-.2-7.93-.72-8.53-5.56-7.51-11.09.62-3.39,1.81-6.74,3.21-9.9,22.89-51.74,48.17-102.28,77.4-150.74,16.48-27.33,33.74-54.2,52.89-79.79,7.83-10.46,22.86-15.64,34.74-12.16,3.07.9,5.88,2.28,7.26,5.4,1.39,3.15.12,5.96-1.54,8.59-1.63,2.57-3.39,5.06-5.08,7.58-13.21,19.74-26.43,39.48-39.64,59.23-.45.67-.86,1.36-1.28,2.04l.41.43Zm180.21-32.64c-.28-.13-.56-.26-.84-.39-26.26,34.17-51.48,69.08-74.97,105.32,6.03-1,11.78-2.33,17.53-3.6,13.01-2.87,26.03-5.72,39.05-8.57,1.3-.28,2.28-.72,2.56-2.28,1.9-10.48,3.9-20.94,5.83-31.41,2.93-15.93,5.83-31.86,8.75-47.79.69-3.76,1.39-7.52,2.09-11.28Zm88.99,68.82c.36.08.58.2.77.16,9.52-1.82,19.03-3.69,28.57-5.44,1.6-.29,1.59-1.21,1.57-2.37-.15-7.26-.25-14.53-.44-21.79-.33-13.12-.73-26.24-1.06-39.35-.09-3.43-.01-6.86-.01-10.29l-.96-.12c-9.47,26.38-18.94,52.76-28.43,79.21Z"/>
  <path class="cls-1" d="m230.47,514.39c-.79,1.89-1.59,3.78-2.38,5.67-12.34,29.37-24.78,58.71-36.99,88.13-5.96,14.37-11.51,28.9-17.24,43.37-2.88,7.28-7.33,13.38-13.7,18-3.96,2.88-8.39,4.4-13.32,4.24-2.82-.09-5.64-.14-8.44-.42-8.74-.88-12.37-5.79-9.84-14.22,1.87-6.21,4.43-12.26,7.11-18.18,10.05-22.22,20.62-44.22,30.38-66.56,20.93-47.91,43.68-94.95,67.46-141.5,2.21-4.33,4.98-8.43,7.86-12.37,4.83-6.61,11.41-8.91,19.42-6.92.14.04.28.1.43.11,8.33.92,9.58,3.93,10.71,11.43,1.34,8.87.5,17.75-.53,26.61-1.01,8.75-2.08,17.5-2.95,26.27-.93,9.36-1.98,18.73-2.43,28.12-.62,13.11-.72,26.25-1.03,39.37,0,.42.17.84.4,1.87.86-1.3,1.53-2.1,1.99-3.02,6.57-13.21,13.04-26.47,19.69-39.64,14.43-28.6,28.94-57.16,43.47-85.71,1.14-2.23,2.59-4.34,4.12-6.32,2.55-3.28,5.81-5.56,10.14-5.7,4.73-.16,9.49-.57,14.18-.16,7.21.63,9.51,5,6.34,11.5-3.6,7.4-7.36,14.72-11.08,22.06-14.02,27.64-28.35,55.13-41.99,82.95-18.38,37.48-34.44,76-49.57,114.9-3.03,7.8-6.47,15.44-9.86,23.1-2.18,4.93-5.32,9.06-11.09,9.96-5.57.86-11.11.56-16.41-1.59-4.02-1.63-5.67-4.99-5.61-9.04.07-4.51.59-9.01.95-13.52.52-6.43,1.12-12.84,1.63-19.27.73-9.23,1.43-18.47,2.11-27.71.52-7.1.96-14.2,1.49-21.3.64-8.57,1.28-17.14,2.03-25.71,1.03-11.88,2.16-23.76,3.23-35.64.09-1,.01-2.02.01-3.04l-.69-.13Z"/>
  <path class="cls-1" d="m342.6,512.97c.11-7.14,2.84-16.4,6.71-25.24,4.96-11.33,10.29-22.52,15.93-33.54,6.59-12.86,13.69-25.46,20.55-38.19,2.93-5.44,7.84-7.81,13.66-8.25,2.97-.22,6.14.07,8.99.9,7.04,2.06,9.43,7.6,6.4,14.27-2.7,5.94-5.61,11.78-8.4,17.68-5.5,11.66-11.2,23.24-16.36,35.05-2.08,4.75-3.65,9.96-4.2,15.09-.91,8.42,4.83,13.05,13.37,12.1,8.23-.91,14.4-5.14,18.94-11.63,7.01-10.03,13.74-20.27,20.36-30.57,8.95-13.92,17.65-28,26.54-41.96,2.91-4.56,6.3-8.84,11.89-10.17,6.62-1.58,12.86,0,18.49,3.59,2.85,1.82,3.74,4.96,2.91,8.08-1.01,3.76-2.16,7.63-4.11,10.96-11.38,19.47-22.67,39.01-34.63,58.12-26.22,41.93-51.31,84.47-72.7,129.09-5.96,12.43-11.75,24.95-17.65,37.41-.95,2.01-2,3.98-3.15,5.87-3.47,5.69-8.65,8.86-15.15,9.88-5.03.79-10.07.71-15.06-.4-4.92-1.09-7.78-3.72-7.71-7.62.04-2.32.61-4.73,1.47-6.9,1.36-3.43,2.94-6.82,4.81-10,17.2-29.31,34.53-58.54,51.66-87.89,2.78-4.77,5.1-9.88,7-15.06,1.7-4.64-.05-7.13-5-7.62-3.13-.31-6.35.26-9.53.34-6.21.15-12.54,1.02-18.62.17-12.28-1.71-17.57-8.57-17.41-23.58Z"/>
</svg>