<?xml version="1.0" encoding="UTF-8"?>
<svg id="Layer_1" data-name="Layer 1" xmlns="http://www.w3.org/2000/svg" viewBox="0 0 1080 1080">
  <defs>
    <style>
      .cls-1 {
        fill: #fff;
      }
    </style>
  </defs>
  <path class="cls-1" d="m275.75,497.09c0-21.39.04-42.79-.05-64.18,0-2.51.62-3.53,3.3-3.54,25.27-.15,50.53-.58,75.8-.55,7.72.01,15.58.76,22.27,5.44,11.26,7.89,16.32,19.05,17.13,32.53,1.18,19.59-6.27,34.43-23.71,43.92-7.08,3.85-14.89,4.17-22.61,4.33-7.52.16-15.06-.42-22.58-.74-4.51-.19-4.57-.25-4.51,4.44.13,8.98.38,17.95.5,26.93.07,5.65-.08,11.29.03,16.94.04,2.44-1.5,2.76-3.23,2.78-5.43.07-10.86.08-16.29.01-7.53-.09-15.07-.37-22.6-.36-2.81,0-3.55-1.14-3.55-3.77.07-21.39.04-42.79.04-64.18h.05Zm53.08-9.42c3.2-.78,6.53-1.21,9.56-2.39,10.87-4.23,13.94-15.06,6.44-22.98-4.25-4.49-9.97-6.13-16.04-5.59-5.21.47-7.22,2.23-7.5,7.56-.3,5.67.37,11.42.89,17.11.46,4.98,1.62,5.84,6.64,6.28Z"/>
  <path class="cls-1" d="m707.97,564.59c-7.65,0-14.72.04-21.79-.02-2.54-.02-5.1-.53-7.63-.41-2.83.13-3.89-1.35-5.15-3.62-5.89-10.62-11.98-21.12-18.23-31.53-.78-1.31-3.46-2.87-4.3-2.44-1.43.73-2.94,2.94-2.95,4.55-.07,6.86.43,13.72.63,20.58.1,3.43-.04,6.86.01,10.3.03,1.98-.85,2.8-2.81,2.75-8.42-.23-16.84-.46-25.26-.58-2.47-.03-2.91-1.31-2.88-3.39.1-7.76.15-15.52.15-23.28-.02-20.61-.07-41.23-.12-61.84-.01-5.02-.03-5.21,4.76-5.16,18.5.19,37.01.48,55.51.82,2.76.05,5.51.53,8.26.87,7.95.97,12.59,5.92,15.35,12.99,2.53,6.49,2.51,13.23,1.44,19.98-.68,4.26-2.92,7.59-6.83,9.65-.39.21-.73.51-1.13.69-7.99,3.76-7.76,8.97-2.7,15.54,7.66,9.93,12.08,21.22,15.67,33.57Zm-50.45-55.48c11.2-.05,15.78-5.66,12.29-14.54-.7-1.78-3.08-3.75-4.93-4.04-3.65-.57-7.5-.22-11.23.13-3.15.3-5.4,2.03-5.55,5.52-.1,2.3-.19,4.62.02,6.9.31,3.3,2.37,5.1,5.61,5.56,1.53.22,3.07.38,3.8.47Z"/>
  <path class="cls-1" d="m710.55,564.76c1.05-2.75,1.96-5.08,2.83-7.42,6.94-18.67,13.92-37.33,20.78-56.04,3.17-8.62,6.21-17.3,9.09-26.02,1.23-3.73,3.45-5.34,7.33-5.21,8.64.3,17.28.46,25.92.66,3.04.07,4.99,1.69,6.04,4.38,2.28,5.88,4.49,11.78,6.68,17.69,7.81,21.06,15.62,42.13,23.39,63.21.95,2.58,1.66,5.26,2.59,8.26-1.46.21-2.73.6-3.99.55-8.52-.3-17.05-.57-25.56-1.2-1.29-.09-2.78-1.79-3.56-3.12-.94-1.57-1-3.64-1.82-5.31-1.87-3.84-4.86-6.32-9.32-6.35-6.54-.05-13.09-.17-19.61.19-1.58.09-3.64,1.61-4.44,3.06-1.37,2.46-2.01,5.36-2.81,8.12-.64,2.24-1.81,3.82-4.25,4.03-2.75.24-5.51.47-8.27.5-6.84.07-13.68.02-21.02.02Zm51.73-59.93c-1.05,1.6-1.92,2.5-2.29,3.57-1.29,3.75-2.41,7.56-3.59,11.35-2.29,7.33-1.78,9.41,7.94,9.47.87,0,1.74-.3,2.6-.45,2.6-.45,3.71-2.14,3.04-4.53-1.48-5.28-3.15-10.52-4.92-15.71-.39-1.16-1.52-2.06-2.78-3.69Z"/>
  <path class="cls-1" d="m507.53,564.26c-3.68,0-7.07.07-10.45-.02-6.87-.18-13.73-.53-20.6-.61-2.29-.03-3.06-.69-3.06-3.06-.02-8.88-2.9-11.7-11.76-11.76-5.88-.04-11.75.13-17.63,0-3.22-.07-4.98,1.33-5.67,4.36-.54,2.37-.92,4.82-1.78,7.08-.48,1.27-1.7,3.11-2.71,3.18-9.68.74-19.39,1.17-30.01,1.73,1.05-3.72,1.68-6.59,2.67-9.32,9.65-26.66,19.36-53.3,29.06-79.93,1.78-4.88,3.12-5.83,8.37-5.75,7.76.12,15.51.42,23.27.51,4.57.05,6.76,2.96,8.17,6.62,6.18,16.01,12.32,32.03,18.33,48.11,4.49,12.02,8.76,24.13,13.11,36.21.25.71.39,1.46.7,2.65Zm-53.46-35.78c0,.06.01.12.02.19,1.97-.23,3.94-.48,5.91-.67,2.81-.28,3.69-2.01,2.91-4.41-1.58-4.93-3.3-9.82-5.22-14.63-.47-1.17-2.08-2.86-2.86-2.71-1.2.23-2.2,1.78-3.15,2.9-.4.46-.48,1.22-.63,1.87-1.01,4.42-2.02,8.84-2.97,13.27-.65,3.05.14,4.01,3.33,4.2.88.05,1.77,0,2.66,0Z"/>
  <path class="cls-1" d="m513.28,470.6c1.67,0,3.32,0,4.97,0,26.6.06,53.19.12,79.79.18,4.84.01,4.93.02,5.08,4.95.14,4.65.15,9.31.05,13.96-.1,4.78-.29,4.92-5.25,4.9-5.65-.02-11.3-.16-16.95-.19-1.55,0-3.09.14-4.64.27-2.42.2-3.47,1.53-3.44,3.97.22,17.84.39,35.68.57,53.52.03,2.88,0,5.76.14,8.64.11,2.43-1.09,3.45-3.35,3.52-.89.03-1.77.08-2.66.07-6.74-.03-13.48-.05-20.23-.1-4.67-.03-4.62-.05-4.59-4.61.14-19.06.25-38.12.38-57.18,0-.89,0-1.77-.04-2.66-.2-4.41-.85-5.19-5.33-5.37-6.86-.28-13.73-.49-20.6-.51-2.86,0-3.98-1.07-3.93-3.91.1-6.28.03-12.57.03-19.45Z"/>
  <path class="cls-1" d="m476.56,612.03c0,2.36.07,4.3-.01,6.24-.37,9.28-.74,18.57-1.18,27.85-.11,2.35-1.48,3.87-3.74,4.55-4.38,1.32-6.17.2-6.69-4.31-.27-2.31-.46-4.64-.5-6.96-.23-15.95-.41-31.9-.57-47.86-.01-1.32-.13-2.84.46-3.91.67-1.21,2.11-2.86,3.15-2.82,3.82.15,7.89.31,10.52,3.84,1.84,2.48,3.59,5.04,5.26,7.65,5.36,8.4,10.65,16.85,16.02,25.24.65,1.01,1.66,1.79,3.14,3.34.13-2.04.24-3.09.26-4.14.23-10.41.39-20.83.7-31.24.06-2.01-.65-4.62,2.85-4.97,5.71-.58,7.01-.09,7.93,3.9.37,1.6.48,3.28.48,4.93.02,16.73-.08,33.47.05,50.2.03,3.35-.83,4.99-4.37,5.59-6.4,1.09-8.25.72-11.69-4.71-5.44-8.6-10.61-17.38-15.97-26.03-1.44-2.33-2.36-5.26-6.11-6.37Z"/>
  <path class="cls-1" d="m671.21,586c10.57,0,20.85,0,31.12.01,1.22,0,2.43.28,3.65.27,12.19-.16,16.58,9.35,16.82,18.93.14,5.55-3.9,9.23-8.01,12.36-5.26,4.01-5.4,4.29-1.52,9.86,4.25,6.09,8.53,12.15,12.77,18.24.62.89,1.12,1.86,1.68,2.8-5.75,3.04-12.27,1.46-16.01-3.4-4.86-6.32-9.98-12.43-14.88-18.72-2.45-3.15-5.77-4.27-9.49-4.85-2.13-.33-3.1.39-3.21,2.56-.32,6.31-.73,12.61-1.08,18.92q-.38,6.84-7.18,6.57c-4.9-.19-4.72.65-4.73-5.03-.03-18.73-.08-37.47-.11-56.2,0-.66.1-1.32.17-2.32Zm23.05,10.97c-1.5,0-4.38-.1-7.26.03-3.44.16-4.58,1.45-4.43,4.82.07,1.55.27,3.09.48,4.63.33,2.37,1.54,3.84,4.1,3.95,4.76.19,9.51.56,14.27.6,6.64.05,8.97-2.4,9.19-8.95.08-2.33-.77-3.61-3.06-3.84-3.97-.4-7.94-.74-13.3-1.23Z"/>
  <path class="cls-1" d="m252.74,585.06c13.81.81,27.4,1.34,40.94,2.53,6.19.55,8.87,5.56,9.74,11.15.48,3.11.15,6.41-.23,9.57-.43,3.55-2.26,6.36-5.46,8.29-2.35,1.41-4.49,3.18-6.96,4.96,6.62,8.36,12.61,16.99,16.81,26.76-5.45,2.41-11.67.8-14.71-3.48-4.23-5.96-8.41-11.96-12.61-17.95-3.03-4.33-7.91-4.47-12.41-5.15-.73-.11-2.5,2.14-2.63,3.42-.51,5.17-.56,10.39-.8,15.59-.05,1.11-.17,2.21-.3,3.31-.69,5.8-3.37,7.59-9.03,5.85-.84-.26-1.74-1.34-2.01-2.22-.4-1.34-.36-2.85-.37-4.28-.11-18.63-.2-37.26-.28-55.88,0-.43.11-.86.32-2.47Zm23.25,11.64s0,.06-.01.1c-1.99,0-3.99-.02-5.98,0-4.3.05-5.35.81-5.9,5.02-.25,1.93-.04,3.98.35,5.9.18.91,1.23,2.34,1.91,2.35,7.26.15,14.55.38,21.79-.1,2.81-.18,5.39-5.39,4.88-8.29-.6-3.4-3.55-3.71-6.12-4.08-3.61-.52-7.28-.63-10.92-.91Z"/>
  <path class="cls-1" d="m529.29,585.71c3.65,0,6.85-.08,10.03.02,6.75.21,13.5.55,20.26.76,12.16.37,18.84,7.53,21.93,18.39,3.18,11.2,1.81,22.18-3.54,32.58-3.32,6.45-8.8,10.08-15.87,10.59-9.94.72-19.93.83-29.9,1.23-1.88.07-2.8-.52-2.8-2.63-.06-19.73-.21-39.47-.32-59.2,0-.63.15-1.27.21-1.73Zm12.02,32.56s-.06,0-.08,0c0,4.99-.12,9.98.03,14.97.14,4.67.74,5.19,5.32,5.07,4.21-.11,8.41-.47,12.62-.61,4.8-.17,8.16-2.65,9.58-6.97,2.75-8.4,3.41-16.99-.34-25.32-1.84-4.09-4.9-7.21-9.66-7.79-3.51-.43-7.07-.66-10.61-.75-5.52-.15-6.59.8-6.82,6.43-.21,4.98-.04,9.98-.04,14.97Z"/>
  <path class="cls-1" d="m116.32,618.32c1.28-5.71,2.07-11.2,3.77-16.4,2.76-8.44,9.06-13.72,17.5-15.74,15.72-3.75,31.68.9,38.71,18.85,4.95,12.64,2.42,32.24-13.7,41.06-15.28,8.36-35.8,2.54-42.8-12.78-2.09-4.58-2.38-9.99-3.49-15Zm11.79,1.43c-.34,4.68,1.96,9.72,5.76,14.18,7.63,8.95,24.47,6.91,29.3-3.84,4.1-9.13,3.56-18.29-1.59-27.1-4.73-8.1-18.49-9.01-23.98-4.81-6.76,5.16-9.44,12.03-9.49,21.57Z"/>
  <path class="cls-1" d="m903.38,621.57c-8.49,0-16.68-.02-24.87,0-7.64.02-7.75.03-8.27,7.56-.77,11.04-.97,9.08,8.45,9.21,8.2.11,16.41.11,24.61-.07,2.72-.06,3.59.84,3.26,3.43-.28,2.18-.35,4.39-.55,7.11h-47.12c0-2.14,0-4.53,0-6.92-.07-15.07-.16-30.15-.19-45.22,0-3.21.1-6.43.41-9.62.07-.69,1.24-1.85,1.89-1.84,14.62.25,29.23.63,44.32,1.01-.17,3.58-.35,7.27-.54,11.11-10.22,0-20.15-.01-30.07,0-1.9,0-4.36-.05-4.49,2.34-.17,3.07.42,6.21,1.01,9.26.09.45,1.95.74,3.01.79,8.41.4,16.83.73,25.25,1.08,1.21.05,2.42.12,3.89.2v10.57Z"/>
  <path class="cls-1" d="m337.93,649.49c-9.5,1.08-16.68-4.34-22.9-11.61-1.12-1.31-1.92-2.98-2.57-4.61-.77-1.92-.35-3.47,2.02-3.98,1.29-.28,2.54-.78,3.8-1.18,3.32-1.05,5.43-.33,7.08,3.21,2.8,6,8.76,7.1,14.58,7.5,2.49.17,5.24-.6,7.57-1.62,2.72-1.2,3.96-3.71,3.61-6.85-.34-3.14-1.77-5.57-4.77-6.61-2.81-.97-5.81-1.37-8.64-2.31-5.33-1.75-10.85-3.2-15.81-5.72-5.21-2.65-8.49-7.4-7.85-13.58.67-6.52,3.69-11.56,10.23-14.31,9.4-3.95,18.69-3.32,27.86.15,5.79,2.19,8.47,7.3,9.45,13.15.57,3.42-1.88,5.68-5.19,4.7-2.53-.75-5.36-1.94-7.03-3.84-4.84-5.53-10.71-6.52-17.47-5.41-3.11.51-4.75,2.21-5,5.25-.27,3.19,2.14,4.45,4.48,5.39,2.03.82,4.34.94,6.43,1.64,5.54,1.88,11.19,3.56,16.51,5.95,10.24,4.6,15.45,20.34,2.4,29.94-5.33,3.92-11.49,5.02-18.79,4.74Z"/>
  <path class="cls-1" d="m995.65,649.37c-1.99-.16-3.97-.41-5.96-.46-10.35-.26-16.18-6.11-19.22-15.45-1.15-3.53.5-6.24,4.22-6.64,1.63-.17,3.59-.42,4.88.3,1.12.63,1.62,2.53,2.2,3.94,3.48,8.43,18.62,11.17,24.9,4.48,2.78-2.97,1.76-8.42-2.39-10.36-3.58-1.68-7.49-2.65-11.27-3.86-5.43-1.73-11.27-2.2-15.87-6.3-8.43-7.52-7.55-20.5,2.06-26.64,5.91-3.78,12.36-4.8,19.13-3.25,3.43.79,6.87,1.79,10.1,3.17,4.77,2.04,7.74,5.98,8.92,10.93.35,1.48-.44,3.83-1.55,4.88-.97.92-3.42,1.23-4.71.66-2.27-.99-4.21-2.78-6.19-4.37-5.52-4.42-11.61-6-18.29-3.26-1.63.67-3.68,2.43-3.86,3.9-.18,1.47,1.44,3.57,2.83,4.7,1.35,1.11,3.37,1.62,5.18,1.94,7.71,1.37,14.73,4.23,21.67,7.96,10.43,5.61,10.79,22.53.4,29.39-5.26,3.47-11.08,4.26-17.16,4.32Z"/>
  <path class="cls-1" d="m394.59,650.54c2.96-9.37,5.79-18.44,8.7-27.48,3.46-10.75,7.04-21.45,10.46-32.21,1.5-4.73,2.64-5.7,8.17-5.99,5.81-.3,8.98,1.12,10.39,5.19,5.68,16.31,11.25,32.66,16.81,49.01.64,1.88,1.16,3.86,1.29,5.82.1,1.53.03,3.93-.87,4.49-2.98,1.85-7.03,1.06-8.28-1.31-1.81-3.42-3.35-6.98-4.96-10.51-1.07-2.34-2.62-3.59-5.4-3.45-4.42.23-8.87.28-13.29.13-3.75-.13-6.09,1.52-7.49,4.83-.34.82-.77,1.6-1.06,2.43-2.7,7.59-5.25,9.29-14.47,9.04Zm21.47-27.23h15.25c-2.02-6.95-3.64-13.37-8.11-19.94-2.56,7.16-4.79,13.39-7.14,19.94Z"/>
  <path class="cls-1" d="m730.63,649.12c1.93-6.27,3.63-12.31,5.66-18.23,4.7-13.71,9.64-27.35,14.32-41.07.9-2.63,2.23-4.16,5.04-4.37.98-.07,1.94-.45,2.93-.56,6.08-.69,7.67.19,9.71,5.95,5.07,14.3,10.03,28.63,15.03,42.95,1.39,3.97,2.79,7.93,4.12,11.92,1.2,3.6.62,4.29-3.25,4.09q-7.7-.39-10.36-7.72c-.49-1.35-.99-2.7-1.5-4.05-.96-2.53-2.67-4.01-5.52-3.9-5.08.18-10.17.31-15.25.52-2.57.11-4.34,1.41-5.34,3.82-.76,1.84-1.69,3.61-2.42,5.45-2.06,5.22-3.85,6.35-9.33,5.7-1.18-.14-2.35-.31-3.83-.5Zm20.84-25.3c3.89.3,7.6.66,11.31.83,1.76.08,2.69-.89,2.22-2.76-1.24-4.91-2.38-9.85-3.81-14.7-.48-1.65-1.71-3.08-3.01-5.34-2.39,7.84-4.48,14.68-6.71,21.96Z"/>
  <path class="cls-1" d="m239.6,584.85c-.39,16.56-.53,32.4-1.24,48.21-.37,8.35-6.18,14.34-15.19,15.48-6.06.77-12.44.69-18.47-.28-9.58-1.55-14.64-6.71-15.21-16.65-.8-13.79-.45-27.67-.28-41.5.05-4.27,6.91-7.46,10.38-5.09.69.47.97,1.92,1,2.93.26,8.52.33,17.06.63,25.58.21,5.97.4,11.96,1.09,17.89.63,5.5,1.98,6.72,7.45,6.94,4.04.16,8.14-.16,12.15-.74,2.87-.41,4.65-2.61,5.07-5.49.43-2.95.69-5.94.77-8.92.31-11.51.6-23.03.7-34.55.03-3.16,1.36-4.06,4.22-3.85,2.06.15,4.13.03,6.96.03Z"/>
  <path class="cls-1" d="m851.22,584.41c-1.24,3.96-2.17,7.46-3.42,10.83-5.22,14-10.52,27.97-15.83,41.95-.98,2.59-1.93,5.21-3.23,7.64-1.62,3.03-3.86,5.28-7.78,5.25-3.04-.02-5.11-1.14-6.25-3.93-1.67-4.1-3.48-8.16-4.94-12.34-4.86-13.91-9.61-27.86-14.35-41.81-.74-2.18-1.23-4.45-1.83-6.67,5.72-1.89,12.82,1.39,14.54,6.73,3.9,12.11,7.67,24.27,11.51,36.4.42,1.32.97,2.61,1.79,4.77,1.65-3.71,3.1-6.54,4.18-9.49,4.27-11.65,8.52-23.3,12.55-35.04,1.15-3.34,3.21-4.42,6.41-4.31,1.97.07,3.94.01,6.66.01Z"/>
  <path class="cls-1" d="m663.07,585.91c-.27,3.42-.6,6.17-.68,8.92-.06,2.07-1.11,2.79-2.94,2.63-3.2-.28-6.39-.64-9.58-.98-5.14-.54-5.19-.4-5.28,4.68-.27,15.07-.69,30.14-.91,45.22-.04,2.61-.89,3.57-3.45,3.43-2.64-.14-5.29-.03-8.49-.03,0-1.99,0-3.93,0-5.87.04-14.19,0-28.38.18-42.57.03-2.91-.93-3.96-3.77-3.97-3.54-.01-7.08-.39-10.62-.55-3.36-.15-4.85-1.75-4.88-5.22-.04-5.33-.07-5.35,5.14-5.37,13.74-.06,27.49-.21,41.23-.32,1.19,0,2.39,0,4.04,0Z"/>
  <path class="cls-1" d="m79.4,649.95c0-15.4,0-30.45,0-45.51q0-7.58-7.64-7.87c-2.88-.11-5.76-.26-8.64-.19-2.8.07-3.79-1.24-3.48-3.86.01-.11,0-.22,0-.33q.21-5.75,5.98-5.76c13.4-.06,26.8-.06,40.2-.25,2.9-.04,3.77.83,3.71,3.78-.13,6.53-.74,7.31-7.26,6.98-2.54-.13-5.1-.19-7.63-.5-2.46-.3-3.28.52-3.31,3.05-.17,14.07-.32,28.14-.83,42.2-.36,10.08,1.42,7.7-8.69,8.49-.63.05-1.28-.12-2.42-.23Z"/>
  <path class="cls-1" d="m961.94,638.24c.35.62.44.71.45.81.89,10.24.53,8.97-7.72,9.3-11.18.44-22.36.67-33.54.98-.97.03-1.95,0-3,0v-64.07c3.59,0,6.85-.21,10.04.16.74.08,1.76,2.1,1.79,3.25.23,9.3.31,18.6.3,27.9,0,5.65-.25,11.29-.35,16.94-.08,4.57.07,4.68,4.55,4.68,7.98,0,15.95.04,23.93.06,1.2,0,2.4,0,3.56,0Z"/>
</svg>