<?xml version="1.0" encoding="UTF-8"?>
<svg id="Layer_1" data-name="Layer 1" xmlns="http://www.w3.org/2000/svg" viewBox="0 0 1080 1080">
  <defs>
    <style>
      .cls-1 {
        fill: #fff;
      }
    </style>
  </defs>
  <path class="cls-1" d="m671.64,292.8c5.78,3.3,11.67,6.74,17.64,10.05,3.07,1.7,4.1,4.08,3.85,7.57-1.73,23.75-3.31,47.5-4.95,71.25-.02.36-.19.72-.14,1.07,1.9,15.03-5.31,25.56-16.34,34.72-7.89,6.55-15.26,13.8-22.31,21.26-5.65,5.99-10.83,12.52-15.55,19.26-5.37,7.66-10.24,15.7-14.82,23.86-1.58,2.81-2.13,6.47-2.23,9.77-.23,7.57.32,15.16.13,22.73-.1,4.31,1.35,7.54,4.22,10.64,5.14,5.56,10.3,11.16,14.77,17.25,1.95,2.65,3.1,6.53,3.09,9.85-.07,14.79-.83,29.57-1.02,44.36-.05,4.09-1.37,6.72-4.85,8.81-14.21,8.55-28.27,17.36-42.53,25.83-2.18,1.3-5.29,2.32-7.61,1.83-5.02-1.07-8.28.99-11.49,4.21-4.84,4.86-9.74,9.67-14.72,14.38-5.79,5.47-14.55,5.73-20.49.43-6.06-5.4-11.77-11.2-17.87-16.56-1.6-1.41-4-2.07-6.14-2.7-4.22-1.24-9.01-1.36-12.7-3.46-12.84-7.32-25.24-15.39-37.95-22.94-4.55-2.7-6.24-6.14-6.29-11.45-.13-14.24-1.03-28.47-1.25-42.72-.04-2.84.91-6.18,2.55-8.47,4.29-5.99,8.96-11.77,13.98-17.17,3.95-4.24,5.27-8.84,5.81-14.54,1.68-17.74-2.72-32.96-12.66-48.15-9.7-14.83-22.33-26.33-34.41-38.63-5.94-6.05-12.02-11.98-18.15-17.84-3.59-3.43-5.19-7.39-5.54-12.41-1.9-27.53-3.97-55.05-6.31-82.54-.44-5.16,1.12-8.06,5.64-10.25,4.52-2.19,8.64-5.24,13.15-7.45,1.46-.71,4.28-.73,5.37.21,10.52,9.06,20.8,18.41,31.17,27.66,4.44,3.96,8.6,8.32,13.44,11.72,15.59,10.91,26.96,25.25,36.22,41.69,10.17,18.06,20.96,35.76,31.45,53.64,3.81,6.48,17.01,7.18,21.17.81,4.53-6.94,8.57-14.19,12.8-21.32,10.2-17.21,19.54-35.01,30.91-51.41,6.42-9.26,15.92-16.5,24.46-24.16,15.16-13.6,30.65-26.84,46.48-40.65Zm-164.39,333.23c.3-.35.59-.7.89-1.05-3.1-3.11-6.57-5.93-9.17-9.41-2.03-2.71-3.9-6.14-4.25-9.41-.86-8.05-.57-16.22-1.21-24.3-.33-4.14,1.08-6.69,4.34-9.04,6.28-4.54,12.66-9.07,18.23-14.4,2.53-2.42,4.21-6.62,4.59-10.19.7-6.42-.51-13.04.22-19.45,1.53-13.47-2.27-24.46-13.06-32.88-.56-.44-1.24-.96-1.45-1.58-.55-1.67-.88-3.41-1.29-5.12,1.89.23,4.33-.21,5.56.81,4.57,3.79,9.04,7.81,12.95,12.27,1.95,2.22,3.55,5.53,3.67,8.42.55,13.15.2,26.34.85,39.48.29,5.85-1.01,9.98-6.04,13.25-4.06,2.64-7.27,6.69-11.47,9.01-8.2,4.53-9.82,10.78-9.75,19.94.09,11.52,3.72,19.88,12.14,27.37,6.63,5.91,13.73,10.45,22.14,13.03,4.85,1.48,6.77.12,7.12-4.92.09-1.26-.16-2.56.07-3.78,2.23-12.15-1.35-21.05-13.15-26.59-5.23-2.46-4.88-10.45.13-14.83,1,1.51,2.62,2.89,2.82,4.45.88,6.82,6.51,9.12,11.21,12.26,1.01.67,3.1,1.08,3.89.5,4.78-3.48,11.25-5.48,11.64-13.09.06-1.27,2.16-2.43,3.32-3.65,1.13,1.18,2.93,2.19,3.27,3.56,1.19,4.81.84,9.28-4.25,12.13-2.98,1.67-5.88,3.58-8.51,5.74-1.4,1.15-3,3.05-3.06,4.67-.32,7.67-.14,15.36-.14,23.29,3.36,0,5.58.42,7.58-.07,14-3.39,23.05-13.5,31.76-23.95.84-1.01,1.16-2.65,1.26-4.03.43-6.3.6-12.61,1.04-18.91.26-3.74-.87-6.39-4.04-8.74-6.23-4.61-12-9.84-18.17-14.55-3.97-3.03-5.51-6.68-5.34-11.63.45-12.98.39-25.98.9-38.96.11-2.88,1.03-6.28,2.8-8.43,3.88-4.72,8.48-8.85,12.9-13.11,2.59-2.49,5.27-2.61,8.45.87-3.55,3.79-6.9,7.45-10.36,11.03-4.12,4.27-7.13,8.88-7.1,15.22.06,10.64-.09,21.28-.54,31.91-.17,4.08,1.18,6.95,4.24,9.33,6.7,5.19,13.57,10.19,19.97,15.72,1.86,1.61,3.3,4.78,3.32,7.26.07,7.37-1.04,14.76-.93,22.14.08,5.74-1.79,9.99-6.07,13.67-2.96,2.54-5.4,5.67-8.07,8.54,15.33-8.02,29.87-16.69,44.14-25.76,1.88-1.2,3.3-4.43,3.45-6.82.82-13.32,1.22-26.67,1.64-40.01.05-1.72-.12-3.88-1.08-5.14-5.66-7.39-11.58-14.58-17.79-22.3-2.33,2.84-4.12,5.03-5.92,7.23-5.38,6.57-12.73,8.55-20.66,5.47-.89-.34-1.77-1.15-2.26-1.98-5.44-9.21-5.19-11.94,1.31-20.4,7.77-10.12,15.47-20.3,24.03-31.54-1.45-.89-2.78-1.51-3.88-2.41-14.66-12-29.2-24.14-43.95-36.02-10.09-8.13-20.78-7.92-30.87.27-14.42,11.72-28.68,23.65-43.26,35.17-3.53,2.79-3.35,4.75-.93,7.91,7.34,9.6,14.44,19.38,21.78,28.98,3.8,4.97,3.43,15.54-.98,19.69-3.18,3-16.26,1.76-19.62-2.02-2.81-3.16-5.36-6.53-8.16-9.98-6.19,7.19-12.14,13.94-17.86,20.89-1.03,1.26-1.6,3.33-1.54,4.99.54,13.88,1.07,27.76,2.15,41.6.2,2.6,2.2,5.9,4.39,7.36,9.9,6.58,20.17,12.6,30.29,18.85,3.29,2.03,6.52,4.13,9.78,6.2Zm-25.57-189.95c-.09-.6-.22-2.2-.57-3.74-3.67-16.14-8.07-32.15-10.83-48.45-1.94-11.41-6.29-21.21-12.99-30.35-10.34-14.09-20.63-28.22-30.75-42.47-6.95-9.79-8.61-10.24-17.8-2.38-1.46,1.25-2.51,4.02-2.35,5.97,2.19,25.67,4.86,51.29,6.83,76.97.47,6.09,2.84,9.4,7.99,12.1,20.2,10.6,40.25,21.49,60.47,32.34Zm130.03.14c2.16-1.14,3.85-1.89,5.4-2.87,3.04-1.92,5.87-4.24,9.03-5.91,16.08-8.48,32.2-16.89,48.4-25.12,3.1-1.58,4.52-3.45,4.74-6.99.59-9.88,1.53-19.74,2.42-29.6,1.54-17.04,3.1-34.09,4.73-51.12.72-7.56-6.15-8.05-10.27-10.81-3.67-2.46-5.53,1.49-7.19,3.74-11.84,16.09-23.35,32.44-35.32,48.44-5.11,6.83-8.33,14.17-9.8,22.5-1.47,8.32-3.21,16.6-4.96,24.87-2.26,10.64-4.65,21.26-7.2,32.88Zm38.34-113.59c-.33-.3-.66-.6-1-.9-8.36,7.36-16.37,15.18-25.18,21.96-10.7,8.23-18.27,18.57-24.85,30.18-11.1,19.57-22.8,38.8-34.62,57.95-2.3,3.73-2.37,5.67,1.04,8.43,13.03,10.54,25.86,21.32,38.81,31.97.99.81,2.3,1.21,4.32,2.24-.72-2.9-1.33-4.73-1.62-6.61-1.27-8.3-4.13-16.8-3.28-24.9,1.54-14.62,5.73-28.95,8.06-43.51,3.5-21.86,10.17-42.18,24.93-59.29,4.79-5.55,8.94-11.65,13.38-17.5Zm-205.05.27c-.29.28-.58.56-.87.84.27.55.47,1.15.83,1.63,8.23,10.95,16.65,21.76,24.63,32.89,2.44,3.4,4.52,7.47,5.37,11.53,4.2,20.07,8.09,40.2,11.74,60.38,1.35,7.5,2.66,15.22,2.28,22.76-.36,7.14-2.96,14.17-4.91,22.72,16.37-13.46,31.62-25.99,47.03-38.66-.74-1.55-1.25-2.88-1.96-4.08-12.41-20.9-25.05-41.67-37.19-62.73-5.39-9.37-11.92-17.55-20.16-24.47-4.28-3.6-8.41-7.36-12.67-10.99-4.67-3.98-9.41-7.88-14.12-11.82Zm31.81,150.77c.45-.19.9-.39,1.34-.58,1.53-6.63,2.79-13.35,4.72-19.87.92-3.13.23-5.07-1.95-7.07-14.26-13.06-31.93-20.17-49.46-28.06,19.38,15.11,34.36,33.7,45.36,55.58Zm137.61-.88c.38.25.77.5,1.15.75,11.42-20.98,25.83-39.51,44.51-54.64-6.23,2.17-11.95,4.73-17.27,7.95-9.52,5.77-18.84,11.88-28.16,17.97-3.18,2.07-4.11,4.98-3.27,8.91,1.33,6.29,2.06,12.71,3.05,19.08Zm-3.78,21.67c-7.42,10.29-14.03,19.19-20.27,28.35-1.15,1.69-1.85,5.59-.92,6.41,1.99,1.76,5.22,3.09,7.84,2.94,3.79-.22,13.2-11.92,13.3-15.81.18-6.77.05-13.54.05-21.89Zm-127.89,1.29c0,5.59.41,10.03-.09,14.36-.98,8.62,3.59,14.39,9.4,19.54,3.19,2.82,7.05,4.13,10.72.93,3.74-3.27,1.36-6.55-.75-9.54-5.3-7.49-10.67-14.93-16.06-22.35-.57-.78-1.45-1.34-3.23-2.93Zm53.9,146.29c7.59,9.69,16.63,8.52,21.74-3.62-3.56,3.88-6.27,3.19-9.46.7-1.32-1.03-4.1-.78-6-.3-2.13.54-4.02,2.01-6.27,3.21Z"/>
  <path class="cls-1" d="m738.09,771c7.54,2.6,12.76,7.07,14.5,14.9,3.25,14.57-5.94,26.63-22.55,28.28-8.36.83-16.87.15-25.73.15-.16-1.37-.45-2.74-.45-4.1-.04-23.77.01-47.55-.12-71.32-.02-3.4.79-5.03,4.49-4.77,7.88.56,16.04-.23,23.59,1.59,15.41,3.72,19.56,20.37,8.62,31.77-.83.87-1.38,2.02-2.37,3.5Zm-24.53,19.66c0,3.41-.25,6.86.12,10.23.15,1.37,1.57,3.61,2.6,3.72,8.12.86,16.16,1.14,22.72-5.29,5.47-5.37,5.6-11.64-.07-16.86-5.71-5.27-12.69-6.04-20.09-5.98-4.16.04-6.02,1.09-5.37,5.57.41,2.81.08,5.74.08,8.61Zm8.59-47.11c-8.42-.16-8.66.07-8.56,6.96.03,1.98.04,3.96.03,5.93-.02,11.52,2.41,13.21,13.53,9.26,1.34-.48,2.69-1.1,3.84-1.92,3.76-2.68,6.33-6.18,5.01-11-1.26-4.59-4.1-7.99-9.21-8.72-1.96-.28-3.93-.44-4.64-.52Z"/>
  <path class="cls-1" d="m138.57,734.63c11.11,0,21.93-.54,32.67.15,10.84.7,17.14,8.93,17.42,20.97.25,10.71-6.43,19.25-16.41,21.01-2.79.49-5.57,1.02-8.59,1.57,9.27,11.85,18.25,23.33,27.49,35.14-7.72,2.96-11.65,1.99-15.49-3.07-7.4-9.75-14.72-19.56-22.14-29.3-.78-1.03-1.97-1.74-3.85-3.36-.62,2.88-1.33,4.69-1.33,6.49-.02,7.02.09,14.05.31,21.07.31,9.78.27,9.88-10.08,8.98v-79.65Zm9.88,21.94c0,2.7-.29,5.44.12,8.07.22,1.39,1.72,3.75,2.52,3.71,7.09-.42,14.31-.62,21.17-2.24,4.88-1.15,7.31-5.78,7-10.95-.32-5.2-3.56-8.63-8.32-10.2-2.84-.94-5.98-1.31-9-1.36-13.41-.23-13.41-.15-13.49,12.98Z"/>
  <path class="cls-1" d="m818.23,770.51c1.88,1.36,3.47,2.44,4.99,3.63,6.65,5.17,10.01,11.9,8.47,20.32-1.56,8.51-6.12,15.97-14.66,17.71-10.1,2.06-20.68,1.85-31.07,2.17-.91.03-2.75-3.3-2.77-5.08-.22-19.82-.17-39.65-.2-59.47,0-3.06.29-6.17-.09-9.18-.61-4.86.97-6.93,6.1-6.6,6.11.4,12.28-.08,18.37.44,15.4,1.33,23.17,18.09,14.52,30.97-1.08,1.61-2.27,3.16-3.67,5.1Zm-25.84,34.33c5.76,0,10.27.26,14.73-.06,6.81-.48,13.33-5.9,14.67-11.72,1.17-5.08-1.42-11.4-7.44-13.44-6.1-2.07-12.9-2.14-19.42-2.79-.75-.07-2.4,1.75-2.42,2.72-.2,8.22-.11,16.44-.11,25.29Zm.14-37.34c4.96-.58,8.85-.85,12.67-1.54,5.31-.97,9.37-3.55,10.34-9.4.84-5.07-1.03-9.68-5.57-11.04-5.08-1.52-10.78-1.01-16.21-1.13-.38,0-1.15,2.06-1.17,3.17-.11,6.24-.06,12.48-.06,19.94Z"/>
  <path class="cls-1" d="m328.68,777.79c0,10.42-.14,19.41.04,28.4.17,8.9.17,9.02-9.55,7.99-.18-2.31-.53-4.75-.54-7.19-.07-22.72-.02-45.44-.19-68.16-.02-3.22.72-4.64,4.13-4.57,9.02.19,18.07-.26,27.05.36,11.44.78,18.72,8.54,19.36,19.52.66,11.42-4.86,20.1-14.43,22.36-3.37.79-6.86,1.11-10.94,1.75,9.83,12.29,18.96,23.7,28.31,35.39-7.9,3.33-12.09,2.09-16.06-3.23-7.44-9.96-15.08-19.76-22.73-29.56-.78-1.01-2.18-1.53-4.45-3.06Zm.04-21.57c0,3.06-.35,6.19.16,9.17.23,1.33,2.15,3.36,3.33,3.38,5.58.09,11.2-.07,16.73-.77,6.36-.79,10.28-5.67,10.32-11.89.04-5.95-4.17-10.9-10.36-11.93-2.48-.42-5.02-.56-7.54-.62q-13.16-.31-12.63,12.66Z"/>
  <path class="cls-1" d="m524.34,734.54c10.66,0,20.95-.49,31.18.13,11.43.69,18.74,9.14,19.23,20.87.43,10.37-6.48,18.98-17.05,21.18-2.61.55-5.25,1-9.09,1.73,9.56,12.02,18.63,23.44,27.84,35.02-6.38,3.26-11.22,2.31-15.18-2.76-6.88-8.8-13.52-17.8-20.32-26.68-1.47-1.92-3.16-3.67-4.75-5.51-.71.13-1.41.25-2.12.38-.07,5.84-.17,11.69-.2,17.53-.04,5.89,0,11.77,0,17.91h-9.54v-79.81Zm9.42,21.2c0,3.06-.24,6.16.12,9.18.15,1.24,1.49,3.25,2.46,3.35,7.91.82,15.94,1.38,23.17-2.88,7.11-4.18,8.13-12.69,1.39-17.36-3.97-2.75-9.54-4.06-14.48-4.34-12.74-.72-12.76-.34-12.66,12.06Z"/>
  <path class="cls-1" d="m291.6,814.21c-10.65,1.33-10.56,1.28-14.49-7.64-2.54-5.76-4.03-13.42-8.54-16.46-4.42-2.98-12.14-.7-18.28-1.6-10.23-1.49-16.78,1.71-19.45,12.2-.91,3.59-3,6.95-4.95,10.18-.93,1.54-2.63,3.17-4.28,3.58-2.29.57-4.85.04-7.29-.01.43-2.2.44-4.59,1.37-6.56,11.07-23.66,22.26-47.26,33.46-70.86.6-1.26,1.55-2.35,3.08-4.63,1.93,2.9,3.73,5,4.88,7.41,5.74,12.03,11.35,24.12,16.95,36.22,5.81,12.55,11.56,25.13,17.56,38.16Zm-38.72-58.54c-.59.19-1.19.39-1.78.58-3.2,7.59-6.41,15.18-9.66,22.88h23.18c-4.28-8.56-8.01-16.01-11.74-23.46Z"/>
  <path class="cls-1" d="m410.54,775.63c0,8.97.01,17.23,0,25.49,0,3.25,2.01,3.71,4.68,3.7,9.2-.06,18.41.07,27.61-.03,3.3-.03,5.59.33,5.38,4.6-.19,3.8-1.37,5.38-5.47,5.31-13.68-.23-27.36-.09-41.83-.09,0-4.91.02-9.35,0-13.79-.1-20.73-.16-41.47-.37-62.2-.03-3.07.44-4.61,4.06-4.55,12.81.2,25.62.13,38.43.05,3.07-.02,5.21.29,5.24,4.23.02,3.95-1.55,5.61-5.42,5.54-9.2-.18-18.4-.15-27.6-.45-3.86-.13-5.17,1.3-4.8,5.08.37,3.75.57,7.58.29,11.33-.37,5.05,1.88,6.69,6.6,6.58,8.66-.19,17.32.01,25.97-.19,3.93-.09,5.01,1.64,4.78,5.24-.21,3.23-1.63,4.25-4.8,4.2-10.44-.16-20.88-.06-32.74-.06Z"/>
  <path class="cls-1" d="m598.85,813.83c12.76-26.79,25.4-53.33,38.92-81.71,15.15,27.32,26.97,54.6,39.52,81.79-10.2,1.81-10.16,1.72-13.88-6.39-2.77-6.04-4.45-14.07-9.25-17.28-4.7-3.14-12.82-.72-19.29-1.75-10.16-1.61-16.41,1.93-19.1,11.92-.7,2.58-2.09,4.97-3.08,7.48-2.9,7.32-4.18,7.95-13.84,5.93Zm27.98-34.16c6.88,0,12.23.16,17.56-.05,4.63-.18,5.23-1.55,3.14-5.83-2.2-4.51-4.24-9.09-6.53-13.55-.8-1.57-2.12-2.88-3.75-5.04-3.57,8.37-6.67,15.66-10.42,24.47Z"/>
  <path class="cls-1" d="m556.84,264.69c3.59,4.18,5.83,6.52,7.75,9.09,3.06,4.09,5.94,4.5,9.55.54,2.89-3.16,6.23-5.91,10.4-9.8.3,2.85.6,4.45.62,6.06.09,7.02.42,14.06-.02,21.05-.21,3.31-1.94,6.52-3.02,9.76-.1.32-.57.51-.68.83-2.83,8.53-9.55,8.24-16.82,8.03-14.97-.43-29.96-.32-44.94-.24-3.32.02-5.58-.75-6.5-4.18-.27-1.02-.72-2.31-1.5-2.81-6.36-4.09-5.3-10.39-5.21-16.48.1-6.61.02-13.22.02-21.63,4.29,3.85,7.49,6.57,10.52,9.48,4.68,4.48,5.48,4.52,9.82-.43,2.12-2.43,4.13-4.95,6.89-8.28,2.74,2.82,5.42,5.31,7.78,8.08,4.12,4.83,4.41,4.95,8.31.18,2.36-2.88,4.52-5.92,7.02-9.23Zm-42.39,16.12c-.47.21-.95.41-1.42.62,0,3.54-.36,7.13.08,10.62.76,6.02,7.32,11.44,13.26,11.44,13.18,0,26.36.09,39.54-.09,2.14-.03,4.72-.76,6.32-2.1,6.19-5.16,7.98-12,6.5-20.7-1.86,1.14-3.51,1.77-4.66,2.91-5.35,5.25-5.31,5.31-10.29-.19-.97-1.07-1.96-2.14-2.75-3.34-2.42-3.67-4.96-3.03-7.38-.18-2.6,3.07-4.99,6.32-7.76,9.86-2.75-3.44-5.19-6.32-7.43-9.35-2.58-3.49-5.01-4.39-8.02-.43-2.15,2.84-4.62,5.44-7.31,8.56-2.94-2.58-5.81-5.11-8.69-7.64Z"/>
  <path class="cls-1" d="m923.67,814.42h-9.65c-.19-2.44-.54-4.72-.53-7,.04-19.83.03-39.66.32-59.48.05-3.41-1.44-4.06-4.09-4.14-3.42-.1-6.85-.08-10.26-.22-3.46-.14-3.8-2.45-3.77-5.28.03-3.11,1.53-4.06,4.37-4.06,12.27.02,24.54.01,36.8-.09,3.64-.03,4.45,1.86,4.57,5.09.14,3.53-1.73,4.41-4.6,4.43-2.52.02-5.05-.03-7.56-.22-4.15-.3-5.61,1.27-5.54,5.64.3,19.83.25,39.66.3,59.49,0,1.77-.21,3.53-.35,5.82Z"/>
  <path class="cls-1" d="m700.12,500.85c0-7.21.11-14.42-.05-21.63-.08-3.42,1.04-4.93,4.65-4.75,5.94.29,11.92-.02,17.85.39,12.4.85,18.19,11.41,12.74,22.35-1.09,2.18-1.32,5.14-.98,7.61.76,5.51,2.07,10.96,3.27,16.4.53,2.4,1.35,4.87-2.16,5.42-3.35.52-6.24-.13-6.66-4.3-.38-3.76-.86-7.53-1.02-11.31-.16-3.78-2.11-5.54-5.66-5.93-.18-.02-.36-.04-.54-.05-17.52-.26-14.31-2.27-13.88,15.58.07,2.98.98,5.97-3.71,5.94-3.26-.02-4.44-1.44-4.37-4.64.14-7.03.04-14.06.04-21.09.16,0,.31,0,.47,0Zm16.89-3.7c1.62,0,3.25.1,4.86-.02,5.03-.36,8.55-3.49,7.92-7.69-.65-4.37-3.52-6.92-8.2-6.98-2.16-.03-4.32-.14-6.48-.16-6.74-.07-7.89,1.07-7.81,7.72.08,6.78.51,7.1,9.71,7.14Z"/>
  <path class="cls-1" d="m393.94,500.02c0,7.21-.09,14.42.05,21.62.05,2.81-.76,5.03-3.71,4.39-1.41-.31-3.16-2.71-3.32-4.31-.41-4.09,0-8.27.03-12.41.02-3.02-1.21-4.55-4.56-4.48-16.86.35-15.4-1.71-17.25,13.79-.19,1.6-.2,3.54-1.12,4.65-1.23,1.5-3.25,2.34-4.93,3.46-.73-1.58-2.25-3.27-2.05-4.72.9-6.36,2.42-12.64,3.43-18.99.23-1.47-.22-3.43-1.09-4.64-6.55-9.24-2.55-21.05,8.65-22.98,7.54-1.3,15.44-.74,23.16-.58.92.02,2.51,2.66,2.57,4.13.27,7.02.12,14.05.13,21.08Zm-16.65-2.71c9.58,0,10.4-.78,9.05-10.62-.22-1.58-2.28-4.05-3.62-4.13-4.59-.3-9.37-.29-13.8.77-2.08.5-5.21,4.02-4.89,5.56.59,2.83,2.91,5.88,5.38,7.55,1.94,1.31,5.2.66,7.88.88Z"/>
  <path class="cls-1" d="m870.81,814.62c-1.71,0-2.98-.16-4.2.03-4.36.66-5.59-1.29-5.56-5.46.13-19.98.03-39.97.02-59.95,0-3.78.03-7.56-.03-11.34-.06-3.79,2.48-3.86,5.16-3.6,2.5.25,5.68-.66,5.66,3.75-.12,24.3-.14,48.61-.23,72.91,0,1.04-.45,2.07-.81,3.66Z"/>
</svg>