<?xml version="1.0" encoding="UTF-8"?>
<svg id="Layer_1" data-name="Layer 1" xmlns="http://www.w3.org/2000/svg" viewBox="0 0 1080 1080">
  <defs>
    <style>
      .cls-1 {
        fill: #fff;
      }
    </style>
  </defs>
  <path class="cls-1" d="m130.6,576.84h10.04c1.39,3.38,2.22,6.73,4.02,9.44,3.47,5.2,8.78,7.03,14.98,7,21.97-.09,43.95-.04,65.92-.04,10.35,0,20.7-.05,31.05.01,7.26.04,12.79-2.88,16.13-9.37.93-1.81,1.54-3.99,1.59-6.01.15-5.99.29-12.01-.21-17.97-.65-7.72-7.31-13.66-15.08-14.14-1.2-.07-2.4-.08-3.6-.08-32.1,0-64.19-.01-96.29,0-12.25,0-21.11-5.52-26.36-16.48-1.35-2.82-2.13-6.16-2.21-9.29-.19-7.33-.51-14.77.51-21.98,1.72-12.19,13.23-21.86,25.51-21.91,34.12-.15,68.24-.07,102.36-.03,1.92,0,3.88.37,5.76.8,11.91,2.72,20.89,14.18,20.72,26.55h-10.84c-.22-1.24-.35-2.56-.69-3.83-2.08-7.69-8.42-12.59-16.8-12.61-32.77-.07-65.54-.09-98.31,0-10.35.03-17.28,7.15-17.35,17.5-.04,5.32-.09,10.66.32,15.95.62,7.88,8.05,14.22,15.92,14.2,33.45-.05,66.89-.11,100.34-.03,14.65.03,26.65,11.29,27.36,25.92.36,7.38.53,14.94-.64,22.19-1.98,12.32-13.33,21.56-25.78,21.61-34.27.13-68.54.15-102.81-.03-13.97-.07-26.69-13.91-25.56-27.39Z"/>
  <path class="cls-1" d="m481.12,604.33c-4.41,0-8.45.07-12.47-.07-.66-.02-1.43-.93-1.89-1.61-6.07-8.92-12.11-17.86-18.09-26.84-.85-1.27-1.75-1.72-3.27-1.72-35.92.04-71.85.04-107.77,0-1.51,0-2.42.43-3.27,1.71-5.94,8.92-12,17.76-17.93,26.68-.95,1.44-1.95,1.97-3.64,1.9-3.5-.13-7.01-.04-10.82-.04.46-.81.73-1.39,1.09-1.92,28.1-41.61,56.21-83.21,84.32-124.81,1.72-2.55,6.46-2.68,8.12-.22,28.19,41.73,56.37,83.46,84.56,125.19.29.43.54.88,1.07,1.76Zm-41.27-41.37c-16.21-24.04-32.18-47.71-48.31-71.64-16.23,24.02-32.21,47.68-48.4,71.64h96.71Z"/>
  <path class="cls-1" d="m712.84,486.88v117.29h-10.89v-117.25h-68.69v-10.95h148.24v10.9h-68.66Z"/>
  <path class="cls-1" d="m873.89,604.25h-11.17c0-.9,0-1.77,0-2.64,0-18.97-.01-37.94.03-56.91,0-1.47-.4-2.47-1.53-3.46-23.92-21.05-47.81-42.13-71.7-63.21-.65-.58-1.27-1.19-2.32-2.18,5.78,0,10.99-.04,16.2.06.62.01,1.27.72,1.82,1.21,19.69,17.35,39.37,34.7,59.05,52.06,1.29,1.14,2.59,2.26,4.04,3.53,5.02-4.42,10.01-8.81,14.99-13.2,15.97-14.08,31.92-28.19,47.95-42.2,1-.87,2.62-1.39,3.97-1.44,4.55-.18,9.12-.07,14.39-.07-1.23,1.12-2.01,1.84-2.8,2.54-23.73,20.92-47.46,41.85-71.22,62.73-1.24,1.09-1.75,2.15-1.74,3.81.06,18.9.04,37.79.04,56.69v2.69Z"/>
  <path class="cls-1" d="m513.04,593.3h111.03v10.87h-122.04v-128.21h11v117.34Z"/>
</svg>