<?xml version="1.0" encoding="UTF-8"?>
<svg id="Layer_1" data-name="Layer 1" xmlns="http://www.w3.org/2000/svg" viewBox="0 0 1080 1080">
  <defs>
    <style>
      .cls-1 {
        fill: #fff;
      }
    </style>
  </defs>
  <path class="cls-1" d="m554.79,341.15c0,11.82,0,23.65,0,35.47,0,.69-.11,1.37-.14,2.06-.08,2.06-.26,4.13-.21,6.19.18,7.23,2.65,9.68,9.92,9.69,21.94.03,43.88-.08,65.82.03,11.59.05,23.19.34,34.77.72,3.76.12,7.51.83,11.26,1.33,6.91.92,13.89,1.45,20.49,4.05,5.24,2.07,10.47,4.11,14.87,7.78,5.48,4.57,8.65,10.33,8.95,17.53.43,10.3-1.57,20.26-3.97,30.23-4.96,20.61-13.07,40.1-21.06,59.6-4.6,11.22-10.51,21.92-15.99,32.77-10.73,21.24-23.27,41.43-36.31,61.28-11.78,17.93-24.2,35.45-37.14,52.58-8.51,11.26-16.97,22.57-25.76,33.61-9,11.3-18.35,22.33-27.63,33.4-2.95,3.52-6.15,6.82-9.27,10.18-2.06,2.22-3.07,2.22-4.96-.21-7.17-9.25-14.19-18.62-21.44-27.8-14.81-18.75-28.24-38.5-42.05-57.97-2.85-4.02-5.29-8.32-7.99-12.45-7.2-11.04-14.72-21.9-21.57-33.15-4.88-8.01-9.05-16.48-13.22-24.9-1.45-2.92-2.22-6.28-2.76-9.53-.6-3.65.48-5.33,3.86-6.78,2.51-1.08,5.16-1.95,7.82-2.57,6.57-1.53,13.17-3.01,19.81-4.22,3.25-.59,6.62-.69,9.94-.78,10.9-.3,21.81-.98,32.69-.56,7.95.31,15.98,1.3,23.65,3.85,1.09.36,2.17.74,3.21,1.21,4.18,1.87,6.31,4.94,6.23,9.71-.2,11.8-.1,23.61-.31,35.42-.08,4.36,1.39,7.83,4.61,10.63,3.04,2.65,5.96,2.98,9.52,1.14.81-.42,1.55-1.05,2.4-1.33,4.23-1.39,5.38-4.66,5.34-8.64-.06-6.66-.22-13.32-.22-19.97.01-14.58.12-29.16.15-43.74,0-1.6-.09-3.22-.33-4.79-.63-4.1-3.17-6.57-7.09-7.49-2.1-.49-4.3-.75-6.46-.76-18.95-.07-37.91-.03-56.86-.09-5.15-.02-10.29-.41-15.44-.38-14.24.06-28.47.33-42.71.36-4.7.01-9.41-.28-14.08-.73-4.24-.41-7.84-2.46-10.93-5.37-5.06-4.77-8.98-10.42-12.46-16.39-6.82-11.74-12.41-24.04-16.92-36.84-2.36-6.7-5.03-13.3-7.54-19.96-5.08-13.44-8.41-27.37-11.72-41.32-2.74-11.53-4.33-23.22-5.3-34.99-.69-8.46-.74-16.97.21-25.45.62-5.58,1.1-11.19,1.72-16.77.21-1.93.58-3.86,1.04-5.75,1.45-6.02,2.82-12.07,4.52-18.02,1.03-3.62,2.63-7.08,3.95-10.63,6.03-16.26,14.54-31.16,24.96-44.95,14.03-18.56,30.69-34.49,50.17-47.22,11.22-7.33,23.11-13.48,35.76-18.28,10.56-4,21.4-6.78,32.31-9.31,5.88-1.36,12.04-1.51,18.06-2.29,9.61-1.24,19.27-.67,28.89-.59,5.24.04,10.47,1.04,15.72,1.51,9.29.84,18.21,3.46,27.14,5.9,6.39,1.74,12.62,4.17,18.82,6.55,19.07,7.31,35.92,18.32,51.43,31.44,13.58,11.49,25.29,24.76,35.28,39.42,7.1,10.42,12.91,21.6,17.54,33.45,4.4,11.27,7.73,22.79,10.49,34.51,1.1,4.66,1.42,9.52,2.04,14.29.12.9.05,1.84-.02,2.75-.22,3.34-1.69,5.8-4.78,7.4-7.7,3.98-15.84,6.47-24.31,8.28-11.11,2.38-22.35,3.7-33.56,5.31-2.95.42-5.94.54-8.91.71-5.04.29-10.08.63-15.12.76-11.24.29-22.49.79-33.73.57-8.57-.17-17.13-1.29-25.69-2.05-1.12-.1-2.24-.5-3.32-.88-2.23-.79-3.65-2.34-4.03-4.72-.2-1.24-.4-2.51-.4-3.76,0-10.22.12-20.44.09-30.65-.03-9.29-.19-18.59-.28-27.88-.01-1.15-.06-2.31.1-3.43.57-4.1-1.15-7.46-3.61-10.42-3.9-4.69-14.5-3.98-17.01,3.04-.94,2.63-1.31,5.58-1.33,8.4-.13,13.89-.06,27.78-.06,41.68.16,0,.32,0,.47,0Z"/>
  <path class="cls-1" d="m412.2,851.52c.42-1,.89-1.99,1.25-3.02,3.9-11.14,7.79-22.29,11.68-33.44.23-.65.44-1.3.69-1.94,1.61-4.22,2.04-4.27,6.51-4.63,4.36-.36,8.66-.61,13.02-.08,3.34.41,3.92,1.04,2.79,4.13-3.17,8.6-6.46,17.15-9.56,25.77-4.89,13.58-9.65,27.21-14.52,40.8-2.24,6.26-4.6,12.47-6.91,18.71-.49,1.33-1.06,2.57-2.73,2.73-1.9.18-3-.87-3.75-2.44-3.41-7.14-6.82-14.28-10.22-21.42-2.07-4.34-4.05-8.73-6.21-13.02-1.63-3.26-3.47-6.42-5.24-9.6-.26-.46-.69-.83-1.3-1.54-.65.94-1.24,1.59-1.59,2.35-3.4,7.27-6.68,14.6-10.15,21.83-3.32,6.92-6.84,13.74-10.27,20.61-.26.51-.51,1.04-.85,1.49-1.91,2.51-4.67,2.29-5.95-.59-1.16-2.61-2.05-5.35-3.06-8.03-2.8-7.4-5.68-14.76-8.37-22.19-5.35-14.75-10.58-29.54-15.91-44.29-1.36-3.77-2.93-7.46-4.4-11.19-.37-.94-.7-1.89-1.21-3.3,1.24-.25,2.17-.59,3.11-.6,3.33-.06,6.66.05,9.99,0,1.94-.03,3.89-.19,5.82-.43,2.75-.35,4.13.19,5.22,2.75,1.35,3.16,2.53,6.4,3.66,9.64,3.23,9.19,6.4,18.4,9.6,27.6.4,1.14.84,2.25,1.27,3.38.28.03.56.06.84.09.56-1.03,1.19-2.04,1.68-3.11,5.19-11.24,10.35-22.5,15.53-33.75.67-1.46,1.34-2.92,2.08-4.35.84-1.62,2.07-2.82,4-2.82,2.04,0,2.85,1.43,3.62,3.12,5.95,13.03,11.97,26.03,17.99,39.03.28.6.67,1.15,1.01,1.72.28.02.57.04.85.05Z"/>
  <path class="cls-1" d="m617.12,866.7c.18,5.16.21,10.32.57,15.47.4,5.61-1.97,9.5-6.78,12.07-5,2.68-10.4,4.35-15.91,5.33-5.16.92-10.48,1.54-15.7,1.41-9.52-.23-18.85-2.39-26.79-7.65-8.31-5.5-14.63-12.86-17.93-22.79-4.01-12.04-3.32-23.87.73-35.42,2.97-8.48,9.02-15.15,16.59-20.16,10.1-6.67,21.22-8.84,33.15-7.27,2.27.3,4.54.56,6.8.89,5.33.79,10.14,2.78,14.26,6.32,1.56,1.35,3.31,2.5,4.79,3.93,1.7,1.64,1.71,3.1.1,4.8-3.24,3.41-6.51,6.79-9.88,10.06-2.43,2.36-3.81,2.37-5.75.09-3.79-4.46-8.93-6.04-14.38-6.33-14.63-.77-24.71,8.11-26.03,22.84-.32,3.61-.28,7.38.36,10.94,1.69,9.49,7.68,15.32,16.72,18.27,6.77,2.21,13.58,1.71,20.38.33,3.24-.65,4.2-1.98,4.37-5.2.03-.57.04-1.15.03-1.72-.1-3.19-.96-4.1-4.12-4.16-3.33-.06-6.66-.01-9.99-.01-1.26,0-2.53.04-3.79-.03-2.91-.17-3.44-.65-3.48-3.47-.07-4.36-.11-8.72-.06-13.08.03-2.54.28-2.73,2.78-2.83,6.31-.24,12.61-.61,18.92-.63,5.39-.02,10.78.33,16.16.61,2.54.13,3.64,1.19,3.74,3.98.16,4.47.04,8.95.04,13.42.04,0,.08,0,.13,0Z"/>
  <path class="cls-1" d="m713.87,836c-1.28-1.18-2.2-2.03-3.12-2.87-5.57-5.13-12.12-6.68-19.46-5.32-1.01.19-2.02.41-3.04.56-4.57.67-7.89,3.23-10.96,6.56-4.6,5-6.95,10.83-6.91,17.49.02,3.75.58,7.57,1.47,11.22,1.76,7.19,6.44,12.01,13.3,14.71,5.76,2.26,11.64,3.42,17.84,2.13,1.9-.4,3.89-.37,5.76-.82,2.6-.63,3.62-1.98,3.83-4.59.07-.91.09-1.84.01-2.75-.21-2.47-1.2-3.5-3.72-3.55-4.13-.08-8.27-.02-12.41-.02-.92,0-1.85.06-2.75-.04-1.95-.21-2.95-1.02-2.65-2.86.75-4.46.09-8.91.21-13.36.05-1.84.98-3.1,2.77-3.44,1.32-.25,2.71-.21,4.07-.21,2.4-.01,4.81.04,7.21.07,2.86.03,5.71.07,8.57.08,2.64,0,5.27-.1,7.91-.05,2.96.06,5.92.24,8.88.36,1.59.07,2.2,1,2.23,2.48.04,2.3.16,4.59.14,6.89-.07,9.53-.24,19.06-.22,28.59,0,2.28-.9,3.55-2.76,4.64-11.28,6.58-23.34,10.21-36.47,9.17-9.61-.76-18.89-3.43-26.82-8.9-8.07-5.57-13.72-13.26-16.69-22.93-3.61-11.74-2.95-23.35,1.35-34.43,4.7-12.1,13.93-20.24,26.21-24.82,7.84-2.92,15.87-3.26,24.05-2.24,1.93.24,3.87.43,5.8.66,7.43.86,13.21,4.92,18.55,9.73,2.52,2.27,2.5,3.74.22,6.08-3.04,3.13-6.1,6.24-9.21,9.3-.88.86-1.95,1.53-3.22,2.51Z"/>
  <path class="cls-1" d="m306.88,874.26c1.04,6.8-2.13,12.22-6.01,17.34-.87,1.15-2.16,2.05-3.4,2.82-4.52,2.81-9.48,4.62-14.67,5.71-9.29,1.95-18.23.87-26.69-3.53-4.11-2.13-7.87-4.82-10.85-8.35-1.66-1.97-2.86-4.38-3.98-6.73-.63-1.32-.19-2.59,1.32-3.44,4.2-2.36,8.29-4.91,12.48-7.27,2.11-1.19,2.77-.97,4.36,1,1.09,1.33,2.02,2.8,3.21,4.03,4.02,4.2,8.91,5.85,14.67,4.74.56-.11,1.13-.18,1.69-.27,3.55-.55,5.59-2.4,6.13-5.55.52-3.03-.88-5.47-4.23-7.08-4.65-2.22-9.43-4.2-13.99-6.59-3.94-2.07-8.01-4.14-11.41-6.95-12.38-10.25-12.77-29.55-1.04-40.55,3.1-2.91,7.09-4.13,11.12-5.14,7.04-1.76,14-1.84,20.94.72,6.34,2.34,10.86,6.72,14.57,12.12,1.25,1.82,1.18,2.76-.68,4.1-4,2.88-8.1,5.62-12.28,8.24-1.85,1.16-3.13.8-4.6-.78-.69-.75-1.29-1.62-1.76-2.53-2.32-4.49-9.03-3.97-11.88-1.94-2.5,1.78-2.87,5.86-.69,8.29,1.04,1.16,2.41,2.16,3.82,2.85,4.01,1.96,8.19,3.58,12.16,5.61,3.87,1.97,7.66,4.13,11.31,6.49,6.9,4.47,9.96,11.14,10.36,19.18.06,1.14,0,2.29,0,3.47Z"/>
  <path class="cls-1" d="m796.68,848.25c.67-.89,1.16-1.35,1.42-1.91.92-1.97,1.66-4.03,2.64-5.97,3.11-6.13,6.32-12.2,9.46-18.32,1.94-3.78,3.87-7.56,5.68-11.39.89-1.88,2.05-2.81,4.24-2.71,5.49.25,10.99.28,16.49.49,2.26.09,2.85,1.08,2.05,3.13-.21.53-.54,1.01-.82,1.51-2.72,5.04-5.43,10.1-8.17,15.13-2.79,5.13-5.64,10.24-8.42,15.38-1.58,2.92-3.07,5.9-4.63,8.83-1.4,2.62-2.77,5.27-4.29,7.82-3.48,5.86-5.67,11.97-4.54,18.97.34,2.12.03,4.35.03,6.53,0,2.63.01,5.26.03,7.89,0,.8.09,1.61.02,2.41-.22,2.65-1.24,3.74-3.91,3.79-3.33.07-6.66-.06-9.99-.1-1.26-.01-2.53.01-3.79,0-3.56-.05-4.42-.85-4.45-4.52-.06-6.43-.13-12.86.04-19.28.1-3.82-.89-7.25-2.73-10.5-4.81-8.47-9.68-16.9-14.45-25.39-1.63-2.9-2.98-5.95-4.61-8.84-3.21-5.69-6.56-11.3-9.77-16.99-.87-1.54-2.19-3.04-1.26-5.5,1.84-.22,3.85-.65,5.86-.66,4.12-.01,8.25.37,12.36.28,3.54-.08,5.68,1.36,7.31,4.51,3.73,7.23,7.85,14.26,11.67,21.45,1.66,3.13,2.95,6.46,4.43,9.69.61,1.33,1.29,2.62,2.11,4.28Z"/>
  <path class="cls-1" d="m499.77,853.99c0,11.02,0,22.03,0,33.05,0,2.98.02,5.96-.14,8.93-.17,3.2-.81,3.73-3.98,3.78-4.82.07-9.64.18-14.46.16-3.28,0-3.62-.37-3.59-3.54.08-8.59.29-17.18.31-25.76.01-4.12-.37-8.25-.39-12.37-.05-9.17.03-18.33.04-27.5,0-5.95-.02-11.91-.04-17.87-.01-3.78.14-3.97,3.89-4.67.67-.12,1.36-.23,2.04-.24,4.13-.02,8.27-.05,12.4.02,2.76.04,3.73.98,3.93,3.66.08,1.03.04,2.06.04,3.1,0,13.08,0,26.16,0,39.25h-.06Z"/>
</svg>