<?xml version="1.0" encoding="UTF-8"?>
<svg id="Layer_1" data-name="Layer 1" xmlns="http://www.w3.org/2000/svg" viewBox="0 0 1080 1080">
  <defs>
    <style>
      .cls-1 {
        fill: #fff;
      }
    </style>
  </defs>
  <path class="cls-1" d="m433.23,542.49c-1.38,3.12.14,6.03-1.69,8.32-4.27,1.18-13.85,1.2-18.66-.04-.17-.93-.48-2-.53-3.08-.09-2.08-.04-4.16-.04-6.24,0-37.44,0-74.88,0-112.33q0-7.27,7.15-7.3c3.21,0,6.43-.03,9.64.12,2.18.1,3.08,1.04,3.29,3.13.13,1.31.1,2.64.1,3.97,0,7.75,0,15.51,0,23.26,0,1.87,0,3.75,0,6.24,1.71-.75,2.92-1.13,3.97-1.77,5.39-3.27,11.1-5.72,17.34-6.7,15.96-2.49,30.46.56,42.77,11.58,9.33,8.35,15.57,18.49,17.35,31.02,1.96,13.86-.54,26.74-9.23,38.05-7.62,9.91-17.19,17.04-29.55,19.73-12.59,2.75-24.8,1.68-36.26-4.73-1.79-1-3.56-2.03-5.67-3.23Zm29.89-11.01c17,.96,31.02-14.93,31.26-30.79.26-16.68-14.81-30.98-31.01-31.25-18.02-.29-32.19,16.65-30.86,31-1.76,15.21,13.76,31.82,30.61,31.04Z"/>
  <path class="cls-1" d="m605.14,458.53c.08-2.23.1-4.29.25-6.35.14-1.89.94-2.73,2.9-2.77,4.72-.09,9.45-.09,14.18,0,1.79.03,2.7,1.02,2.91,2.86.15,1.31.13,2.64.13,3.96,0,29.49.01,58.99,0,88.48,0,6.92-.03,6.93-6.93,6.95-3.02.01-6.05.03-9.07-.03-1.09-.02-2.18-.29-3.61-.49-.2-1.61-.41-3.05-.56-4.49-.13-1.27-.19-2.55-.31-4.34-1.18.45-2.03.68-2.78,1.09-1.82,1-3.56,2.16-5.4,3.11-6.48,3.33-13.31,5.32-20.68,5.16-4.53-.1-9.06.23-13.54-.89-25.9-6.47-42.8-30.71-39.38-57.63,2.32-18.3,18.24-39.57,42.85-43.37,11.7-1.81,22.99.06,33.33,6.25,1.45.87,2.94,1.68,4.42,2.49.14.08.36.01,1.3.01Zm-30.98,72.95c15.74,1,30.78-13.84,30.89-31.07.12-18.15-16.5-31.06-31.17-30.99-16.66.09-30.87,14.79-30.94,31.27-.07,18.16,16.89,31.81,31.22,30.78Z"/>
  <path class="cls-1" d="m839.16,459.5c.13-3.05.15-4.92.3-6.78.18-2.21,1.07-3.26,3.08-3.3,4.72-.09,9.45-.08,14.18.02,1.93.04,2.7.91,2.88,2.82.12,1.31.1,2.64.1,3.97,0,29.5,0,59,0,88.5,0,6.92-.03,6.93-6.88,6.95-3.21.01-6.43.06-9.64-.05-2.84-.09-3.54-.88-3.75-3.82-.12-1.66-.17-3.32-.28-5.49-4.56,2.27-8.64,4.53-12.89,6.37-4.35,1.89-8.98,3-13.77,2.94-4.72-.06-9.47,0-14.14-.57-4.51-.55-8.86-2.14-12.75-4.51-4.02-2.45-7.85-5.24-11.63-8.05-3.85-2.86-6.56-6.75-9.1-10.77-11.51-18.26-10.44-44.32,5.17-61.09,5.76-6.19,12.36-11.02,20.26-14.16,8.14-3.25,16.58-3.78,25.1-2.81,8.37.95,15.92,4.43,23.78,9.84Zm-30.69,71.98c17.15.94,30.83-15.78,30.92-31.07.1-16.71-15.47-31.03-31.21-30.99-16.54.05-30.82,15.04-30.89,31.28-.08,17.6,16.59,31.86,31.18,30.78Z"/>
  <path class="cls-1" d="m220.33,479.81c0-7.76,0-15.51,0-23.27,0-1.32-.04-2.65.06-3.97.17-2.31.87-3.13,3.12-3.17,4.73-.09,9.46-.08,14.18.02,1.83.04,2.74,1.01,2.95,2.8.13,1.12.12,2.27.12,3.4-.05,14.94.05,29.89-.22,44.83-.33,18.07,15.39,30.45,28.65,30.99,16,.66,29.54-9.33,32.61-24.79.44-2.2.47-4.51.48-6.77.04-14.38.02-28.75.03-43.13,0-1.7,0-3.41.16-5.1.12-1.25.99-2.15,2.25-2.17,5.1-.07,10.21-.06,15.31,0,1.28.02,2.06.98,2.28,2.16.21,1.1.19,2.26.2,3.39.07,15.89.31,31.78.12,47.67-.11,9.04-2.62,17.54-7.78,25.11-4.08,5.99-8.93,11.27-14.9,15.42-7.65,5.32-16.11,8.32-25.46,8.37-4.34.02-8.74,0-13-.69-9-1.44-16.83-5.53-23.55-11.67-8.3-7.59-14.4-16.53-16.55-27.76-.6-3.14-.93-6.36-1-9.56-.14-7.38-.05-14.75-.05-22.13Z"/>
  <path class="cls-1" d="m742.77,521.71c0,7.57,0,15.13,0,22.7,0,1.32.04,2.65-.06,3.97-.18,2.26-.95,3.17-3.13,3.21-4.73.1-9.46.1-14.18,0-2.18-.05-2.91-.93-3.07-3.24-.09-1.32-.06-2.65-.05-3.97.06-14.37-.01-28.75.22-43.12.27-16.62-11.82-28.26-23.6-30.83-11.57-2.53-21.76.03-29.94,8.98-5.45,5.96-8.37,12.83-8.28,21.07.17,14.75.06,29.5.04,44.26,0,6.91-.03,6.91-6.9,6.93-3.22.01-6.43.06-9.64-.05-2.67-.09-3.42-.83-3.59-3.33-.1-1.51-.04-3.02-.05-4.54-.08-14.94-.18-29.88-.24-44.82-.02-6.52,1.23-12.89,4.03-18.72,6.76-14.07,17.05-24.75,32.41-28.9,19.27-5.21,36.71-1.49,51.09,13.18,9.87,10.06,14.99,22.07,14.95,36.22-.02,7,0,14,0,20.99Z"/>
  <path class="cls-1" d="m345.87,580.04c.31,1.06.6,1.59.6,2.11.02,24,.02,47.99,0,71.99,0,.53-.29,1.05-.43,1.52-4.47,1.14-13.64,1.17-18.58.05-.9-1.67-.56-3.59-.57-5.43-.04-6.61,0-13.23-.03-19.84,0-1.86-.16-3.71-.26-5.86h-5.53c-.18,1.31-.49,2.58-.5,3.85-.05,7.18-.01,14.36-.04,21.54,0,1.86-.13,3.72-.22,5.91-6.33,1.28-12.44.39-18.74.57-.25-1.57-.58-2.64-.58-3.72-.03-23.05-.03-46.1-.01-69.15,0-.93.17-1.85.28-2.95,3.16-1.19,6.38-.49,9.52-.61,2.99-.11,5.98.02,9.28.04.19,1.61.45,2.87.46,4.12.05,5.86,0,11.71.04,17.57.01,1.66.18,3.32.28,5.09,1.02.18,1.73.41,2.45.42.92.02,1.85-.13,3.05-.23.19-1.38.5-2.63.51-3.89.06-5.67,0-11.34.05-17,.01-1.84.18-3.69.27-5.47.9-.29,1.42-.59,1.94-.6,5.47-.04,10.95-.02,16.78-.02Z"/>
  <path class="cls-1" d="m770.95,618.21c0,5.48.07,10.95-.03,16.43-.04,2.44-.29,4.9-.67,7.32-1.09,6.95-5.07,11.68-11.57,14.18-7.16,2.76-14.43,2.73-21.56-.1-6.71-2.67-10.55-7.69-11.49-14.88-.05-.37-.09-.75-.12-1.13-.92-14.34-.78-28.67-.08-43.02.58-11.99,10.11-17.81,18.74-18.35,4.74-.3,9.45-.33,13.97,1.39,6.71,2.54,10.95,7.23,12.1,14.42.39,2.41.63,4.87.68,7.32.1,5.47.03,10.95.03,16.43Zm-26.1.29c0,6.41-.03,12.82.02,19.23.01,1.69.14,3.39.4,5.06.21,1.38,1.54,2.29,2.87,2.16,1.23-.12,2.22-.74,2.44-1.98.32-1.85.57-3.73.58-5.6.05-13.01.05-26.02.02-39.02,0-1.68-.23-3.38-.55-5.04-.24-1.21-1.21-1.88-2.46-1.93-1.28-.06-2.3.66-2.6,1.77-.43,1.61-.65,3.32-.67,5-.07,6.79-.03,13.57-.03,20.36Z"/>
  <path class="cls-1" d="m835.25,655.73c-3.45-9.72-5.84-19.97-9.3-30.07-1.73,1.03-1.08,2.25-1.18,3.22-.13,1.12-.03,2.27-.03,3.4s0,2.27,0,3.4c0,1.13,0,2.27,0,3.4v6.24c0,1.13,0,2.27,0,3.4s.03,2.27-.02,3.4c-.04,1.11-.15,2.22-.26,3.62-5.1,1.39-10.11.57-15.32.6-.27-1.34-.67-2.41-.67-3.48-.03-23.27-.03-46.53-.01-69.8,0-.75.17-1.49.25-2.2,3.58-1.12,7.6-1.27,16.07-.58.55,1.36,1.27,2.85,1.79,4.42,2.36,7.18,4.67,14.38,6.99,21.57.44,1.37.92,2.72,2.06,5,.93-4.31.51-7.47.58-10.6.07-3.4.02-6.81.02-10.21v-9.87c5.52-1.13,10.69-.62,16.15-.36.88,6.4.31,12.61.41,18.78.1,6.43.02,12.86.02,19.29s.03,12.48,0,18.73c-.03,6.2.17,12.41-.15,18.46-4.56,1.28-12.09,1.35-17.39.23Z"/>
  <path class="cls-1" d="m615.65,580.5c3.7,24.69,7.36,49.12,11,73.56.08.51-.12,1.07-.18,1.57-4.15,1.13-13.87,1.23-19.28.17-1.36-3.98-.34-8.51-2.02-12.61-2.08-.74-4.07-.65-6.13-.13-1.15,2-.89,4.14-1.22,6.15-.33,2.03-.42,4.11-.64,6.3-3.25,1.72-6.69.87-9.98.95-3.16.08-6.37.38-9.9-.46,0-1.39-.16-2.66,0-3.89,2.03-15.34,4.12-30.67,6.17-46.01.93-6.92,1.8-13.85,2.73-20.77.22-1.65.57-3.29.84-4.81,4.87-.71,22.92-.74,28.6-.02Zm-10.62,48.39c-.89-8.86-1.72-17.07-2.59-25.29-.02-.19-.59-.32-1.17-.62-.55,4.38-1.26,8.65-1.59,12.95-.32,4.25-1.83,8.47-.68,12.95h6.02Z"/>
  <path class="cls-1" d="m355.97,551.67c-4.61,0-9.32.03-14.03-.02-1.11-.01-2.22-.26-3.65-.44-.27-1.29-.73-2.52-.76-3.77-.09-4.91-.04-9.83-.05-14.74,0-13.42.1-26.84-.07-40.26-.05-4.46.88-8.61,2.44-12.7,6.15-16.16,17.67-25.96,34.66-29.27,7.67-1.49,17.99-1.71,24.72-.55.97,4.1,1.07,15.43.14,20.94-1.24-.15-2.52-.21-3.75-.48-7.23-1.58-14.31-.95-21.18,1.61-9.41,3.51-14.61,10.54-15.63,20.4-.71,6.94-.97,13.95-1.09,20.94-.17,10.77-.03,21.55-.06,32.33,0,1.85.4,3.82-1.71,6.01Z"/>
  <path class="cls-1" d="m543.37,602.27c-5.15,1.23-13.53,1.17-17.92-.11-.1-1.17-.22-2.45-.32-3.73-.11-1.51-.12-3.03-.33-4.52-.21-1.5-1.33-2.51-2.59-2.57-1.28-.06-2.55.78-3.1,2.07-1.85,4.33-.37,9.83,3.48,12.62,1.68,1.22,3.54,2.18,5.25,3.37,3.42,2.36,6.85,4.71,10.15,7.23,3.44,2.62,5.4,6.18,6.29,10.45,1.13,5.45,1.06,10.9.56,16.37-.53,5.85-3.8,9.76-9.05,12.07-5.68,2.5-11.64,3.19-17.76,2.2-3.37-.55-6.62-1.49-9.59-3.29-3.77-2.29-6.26-5.51-7.05-9.83-.85-4.66-1.17-9.37-.54-14.1.04-.33.37-.62.77-1.24,5.38-.41,10.96-.43,16.75.04.83,2.38.44,4.65.54,6.87.09,2.08.06,4.16.28,6.22.15,1.44,1.15,2.35,2.62,2.59,1.57.26,3.12-.54,3.77-1.89,2.09-4.33.45-11.98-3.38-14.98-2.53-1.98-5.25-3.71-7.88-5.55-2.17-1.52-4.33-3.04-6.51-4.55-4.29-2.98-6.72-7.19-7.47-12.24-.73-4.87-.69-9.78.36-14.66,1.04-4.83,3.87-8.11,8.22-10.17,1.36-.64,2.78-1.26,4.24-1.56,6.39-1.29,12.78-1.35,19.04.67,1.78.58,3.49,1.46,5.1,2.42,3.1,1.85,4.95,4.67,5.44,8.23.52,3.73.96,7.48.61,11.59Z"/>
  <path class="cls-1" d="m385.08,655.92c-.2-1.14-.52-2.22-.56-3.3-.67-17.05-.25-67.24.65-72.35,3.38-.58,6.94-.21,10.46-.27,3.59-.06,7.18-.05,10.78,0,3.55.05,7.12-.24,10.9.25.66,4.92.67,9.54.04,14.04-2.15,1.37-4.28.75-6.31.92-2.04.17-4.16-.38-6.3.78-.68,4.2-.43,8.48-.17,13,3.8,1.59,7.92-.1,12.02,1.31.46,4.45.25,8.88.07,13.68-4.1.18-7.8.34-11.76.52-1.09,5.43-.31,10.65-.51,16.16,1.52.24,2.76.55,4.01.62,3.35.19,6.74-.25,9.98.29.99,4.92.99,9.65.05,14.25-.46.18-.98.54-1.49.54-9.83.06-19.66.09-29.49.08-.72,0-1.44-.31-2.36-.51Z"/>
  <path class="cls-1" d="m254.39,656.11c-6.44.7-12.41.38-18.08.25-1.63-1.41-1.4-2.99-1.4-4.46-.02-8.5-.02-17-.02-25.5,0-8.31.02-16.62-.01-24.93,0-1.84-.17-3.68-.27-5.5-3.73-1.61-7.5.06-11.28-1.54-.6-4.47-.39-9.09-.07-14.06,7.38-.79,14.51-.27,21.62-.37,6.97-.09,13.94-.02,21.23-.02.75,5.02.66,9.64.11,14.35-3.62,1.88-7.65-.09-11.3,1.63-.76,5.05-.24,10.13-.33,15.2-.09,4.91-.02,9.82-.02,14.73,0,5.1.02,10.2,0,15.3-.03,4.86.15,9.74-.17,14.94Z"/>
  <path class="cls-1" d="m680.13,641.06c4.31.15,7.84.28,11.32.41,1.13,4.05,1.22,8.7.28,14.35-3.11,1.34-6.53.54-9.83.67-3.58.13-7.17.11-10.76,0-3.36-.1-6.78.52-10.33-.61-.19-1.05-.54-2.12-.54-3.2-.03-23.02-.03-46.05-.01-69.07,0-.92.15-1.84.22-2.67,3.87-1.2,13.57-1.34,19.43-.26.51,4.93.16,9.99.22,15.03.06,4.91.01,9.81.01,14.72v30.63Z"/>
</svg>