<?xml version="1.0" encoding="UTF-8"?>
<svg id="Layer_1" data-name="Layer 1" xmlns="http://www.w3.org/2000/svg" viewBox="0 0 1080 1080">
  <defs>
    <style>
      .cls-1 {
        fill: #fff;
      }
    </style>
  </defs>
  <g>
    <path class="cls-1" d="m114.27,378.54v322.91h322.91v-322.91H114.27Zm303.07,303.07H134.11v-283.23h283.23v283.23Z"/>
    <g>
      <path class="cls-1" d="m246.02,408.67v45.22c0,1.24-1.01,2.25-2.26,2.25h-30.99c-1.68,0-3.03,1.35-3.03,3.02v19.39c0,1.67,1.36,3.02,3.03,3.02h54.23c1.68,0,3.03-1.35,3.03-3.02v-69.87h-24.01Z"/>
      <path class="cls-1" d="m337.29,491.96h-29.86c-1.25,0-2.26-1.01-2.26-2.25v-81.04h-24.01v105.32c0,1.67,1.36,3.02,3.03,3.02h53.1c1.68,0,3.03-1.35,3.03-3.02v-19.01c0-1.67-1.36-3.02-3.03-3.02Z"/>
      <path class="cls-1" d="m383.04,408.67v47.56c0,2.01-.93,3.02-2.78,3.02h-24.4c-1.86,0-2.78-1.01-2.78-3.02v-47.56h-23.94l-.08,52.82c0,6.38,2.02,11.58,6.07,15.61,4.04,4.03,9.36,6.04,15.93,6.04h34c6.57,0,11.88-2.01,15.93-6.04,4.04-4.03,6.07-9.23,6.07-15.61v-52.82h-24.02Z"/>
      <path class="cls-1" d="m196.73,607.23c-4.04-4.03-9.36-6.04-15.93-6.04h-5.56c-2.02,0-3.66-.63-4.93-1.89-1.26-1.26-1.89-2.89-1.89-4.91v-30.47c0-3.02,1.52-4.53,4.55-4.53,3.2,0,4.8,1.51,4.8,4.53v25.68c0,2.19,1.09,3.28,3.29,3.28h17.44c2.19,0,3.29-1.09,3.29-3.28v-20.39c0-6.55-2.02-11.79-6.07-15.74-4.04-3.95-9.36-5.92-15.93-5.92h-13.4c-6.57,0-11.88,1.97-15.93,5.92-4.04,3.95-6.07,9.19-6.07,15.74v21.9c0,6.55,2.02,11.84,6.07,15.87,4.04,4.03,9.36,6.04,15.93,6.04h5.56c2.02,0,3.67.63,4.93,1.89,1.27,1.26,1.89,2.89,1.89,4.91v51.52h24.02v-48.24c0-6.55-2.02-11.84-6.07-15.87Zm-30.59,14.1h-18.45c-2.19,0-3.29,1.1-3.29,3.28v46.73h25.03v-46.73c0-2.18-1.1-3.28-3.29-3.28Z"/>
      <path class="cls-1" d="m263.97,495.59c-4.04-4.03-9.35-6.04-15.92-6.04h-13.4c-6.57,0-11.88,2.01-15.92,6.04-4.04,4.03-6.07,9.32-6.07,15.87v159.88h24.02v-166.93c0-1.85.92-2.77,2.78-2.77h3.79c1.86,0,2.78.92,2.78,2.77v166.93h24.01v-159.88c0-6.55-2.02-11.84-6.07-15.87Z"/>
      <path class="cls-1" d="m338.55,567.47v-20.39c0-6.55-2.02-11.79-6.07-15.74-4.04-3.95-9.36-5.92-15.93-5.92h-32.36c-2.02,0-3.03,1-3.03,3.02v142.89h24.02v-80.7h.51c2.69,0,4.84.8,6.45,2.39,1.6,1.6,2.4,3.74,2.4,6.42v30.95c0,2.01,1.01,3.02,3.03,3.02h17.95c2.02,0,3.03-1.01,3.03-3.02v-21.38c0-9.73-3.29-17.38-9.86-22.92,6.57-3.86,9.86-10.07,9.86-18.63Zm-24.02,5.04c0,2.01-.63,3.65-1.89,4.91-1.26,1.26-2.91,1.89-4.93,1.89h-2.53v-42.05h2.53c2.02,0,3.67.63,4.93,1.89,1.27,1.26,1.89,2.89,1.89,4.91v28.45Z"/>
      <path class="cls-1" d="m403.77,491.57h-17.44c-1.82,0-3.29,1.47-3.29,3.28v122.02c0,1.24-1.01,2.25-2.26,2.25h-4.32c-1.53,0-2.78-1.24-2.78-2.77v-121.75c0-1.67-1.36-3.02-3.03-3.02h-17.95c-1.68,0-2.69,1.01-3.03,3.02v114.7c0,6.55,2.02,11.83,6.07,15.86,4.04,4.03,9.36,6.04,15.93,6.04h11.37v21.23c0,2.01-.93,3.02-2.78,3.02h-38.97c-1.86,0-2.78-1.01-2.78-3.02v-9.4c0-1.67-1.36-3.02-3.03-3.02h-17.7c-1.68,0-3.03,1.35-3.03,3.02v6.04c0,6.55,1.98,11.83,5.95,15.86,3.96,4.03,9.22,6.39,15.8,6.39h48.53c6.57,0,11.92-2.36,15.97-6.39,4.04-4.03,6.07-9.31,6.07-15.86v-154.23c0-1.81-1.47-3.28-3.29-3.28Z"/>
      <path class="cls-1" d="m236.67,408.67v15.54c0,1.24-1.01,2.25-2.26,2.25h-45.97c-1.57,0-2.84,1.27-2.84,2.83v88.7c0,1.56,1.27,2.83,2.84,2.83h15.1c1.5,0,2.26.75,2.26,2.24v13.29c0,1.24-1.01,2.25-2.26,2.25h-56.89c-1.25,0-2.26-1.01-2.26-2.25v-13.28c0-1.24,1.01-2.25,2.26-2.25h12.1c1.57,0,2.84-1.27,2.84-2.83v-88.7c0-1.56-1.27-2.83-2.84-2.83h-12.1c-1.25,0-2.26-1.01-2.26-2.25v-15.54h92.28Z"/>
    </g>
  </g>
  <g>
    <path class="cls-1" d="m493.86,399.29h33.75c10.73,0,18.72,2.85,23.95,8.53,5.24,5.69,7.85,14.03,7.85,25.02v68.66c0,10.99-2.62,19.33-7.85,25.02-5.24,5.69-13.22,8.53-23.95,8.53h-33.75v-135.76Zm21.33,19.39v96.97h12.03c3.36,0,6.01-.97,7.95-2.91,1.94-1.94,2.91-5.36,2.91-10.28v-70.6c0-4.91-.97-8.34-2.91-10.28-1.94-1.94-4.59-2.91-7.95-2.91h-12.03Z"/>
    <path class="cls-1" d="m594.33,456.5h29.29v19.39h-29.29v39.76h36.85v19.39h-58.18v-135.76h58.18v19.39h-36.85v37.82Z"/>
    <path class="cls-1" d="m641.65,431.87c0-10.99,2.62-19.43,7.85-25.31,5.24-5.88,13.09-8.82,23.56-8.82s18.33,2.94,23.56,8.82c5.24,5.89,7.85,14.32,7.85,25.31v4.27h-20.17v-5.62c0-4.91-.94-8.37-2.81-10.38-1.88-2-4.49-3.01-7.85-3.01s-5.98,1-7.85,3.01c-1.88,2.01-2.81,5.46-2.81,10.38,0,4.65,1.03,8.76,3.1,12.32,2.07,3.56,4.66,6.92,7.76,10.09,3.1,3.17,6.43,6.34,9.99,9.5,3.55,3.17,6.89,6.63,9.99,10.38,3.1,3.75,5.69,8.02,7.76,12.8,2.07,4.79,3.1,10.41,3.1,16.87,0,10.99-2.69,19.43-8.05,25.31-5.37,5.89-13.29,8.82-23.76,8.82s-18.4-2.94-23.76-8.82c-5.37-5.88-8.05-14.32-8.05-25.31v-8.34h20.17v9.7c0,4.92,1,8.34,3.01,10.28,2,1.94,4.69,2.91,8.05,2.91s6.04-.97,8.05-2.91c2-1.94,3.01-5.36,3.01-10.28,0-4.65-1.04-8.76-3.1-12.32-2.07-3.55-4.65-6.92-7.76-10.09-3.1-3.17-6.43-6.33-9.99-9.5-3.56-3.17-6.88-6.62-9.99-10.38-3.1-3.75-5.69-8.02-7.76-12.8-2.07-4.78-3.1-10.41-3.1-16.87Z"/>
    <path class="cls-1" d="m716.9,399.29h21.33v135.76h-21.33v-135.76Z"/>
    <path class="cls-1" d="m785.75,459.41h29.87v43.06c0,10.99-2.69,19.43-8.05,25.31-5.37,5.89-13.29,8.82-23.76,8.82s-18.39-2.94-23.76-8.82c-5.37-5.88-8.05-14.32-8.05-25.31v-70.6c0-10.99,2.68-19.43,8.05-25.31,5.36-5.88,13.29-8.82,23.76-8.82s18.39,2.94,23.76,8.82c5.36,5.89,8.05,14.32,8.05,25.31v13.19h-20.17v-14.55c0-4.91-1-8.37-3.01-10.38-2.01-2-4.69-3.01-8.05-3.01s-6.05,1-8.05,3.01c-2.01,2.01-3.01,5.46-3.01,10.38v73.31c0,4.92,1,8.34,3.01,10.28,2,1.94,4.69,2.91,8.05,2.91s6.04-.97,8.05-2.91c2-1.94,3.01-5.36,3.01-10.28v-25.02h-9.7v-19.39Z"/>
    <path class="cls-1" d="m848.4,436.72v98.33h-19.2v-135.76h26.76l21.92,81.26v-81.26h19.01v135.76h-21.92l-26.57-98.33Z"/>
    <path class="cls-1" d="m491.15,577.34c0-10.99,2.62-19.43,7.85-25.31,5.24-5.88,13.09-8.82,23.56-8.82s18.33,2.94,23.56,8.82c5.24,5.89,7.85,14.32,7.85,25.31v4.27h-20.17v-5.62c0-4.91-.94-8.37-2.81-10.38-1.88-2-4.49-3.01-7.85-3.01s-5.98,1-7.85,3.01c-1.88,2.01-2.81,5.46-2.81,10.38,0,4.65,1.03,8.76,3.1,12.32,2.07,3.56,4.66,6.92,7.76,10.09,3.1,3.17,6.43,6.34,9.99,9.5,3.55,3.17,6.89,6.63,9.99,10.38,3.1,3.75,5.69,8.02,7.76,12.8,2.07,4.79,3.1,10.41,3.1,16.87,0,10.99-2.69,19.43-8.05,25.31-5.37,5.89-13.29,8.82-23.76,8.82s-18.4-2.94-23.76-8.82c-5.37-5.88-8.05-14.32-8.05-25.31v-8.34h20.17v9.7c0,4.92,1,8.34,3.01,10.28,2,1.94,4.69,2.91,8.05,2.91s6.04-.97,8.05-2.91c2-1.94,3.01-5.36,3.01-10.28,0-4.65-1.04-8.76-3.1-12.32-2.07-3.55-4.65-6.92-7.76-10.09-3.1-3.17-6.43-6.33-9.99-9.5-3.56-3.17-6.88-6.62-9.99-10.38-3.1-3.75-5.69-8.02-7.76-12.8-2.07-4.78-3.1-10.41-3.1-16.87Z"/>
    <path class="cls-1" d="m560.19,544.75h65.94v19.39h-22.3v116.37h-21.33v-116.37h-22.3v-19.39Z"/>
    <path class="cls-1" d="m655.81,544.75v104.73c0,4.92,1,8.34,3.01,10.28,2,1.94,4.69,2.91,8.05,2.91s6.04-.97,8.05-2.91c2-1.94,3.01-5.36,3.01-10.28v-104.73h20.17v103.38c0,10.99-2.68,19.43-8.05,25.31-5.37,5.89-13.29,8.82-23.76,8.82s-18.39-2.94-23.76-8.82c-5.37-5.88-8.05-14.32-8.05-25.31v-103.38h21.33Z"/>
    <path class="cls-1" d="m712.63,544.75h33.75c10.73,0,18.72,2.85,23.95,8.53,5.24,5.69,7.85,14.03,7.85,25.02v68.66c0,10.99-2.62,19.33-7.85,25.02-5.24,5.69-13.22,8.53-23.95,8.53h-33.75v-135.76Zm21.33,19.39v96.97h12.03c3.36,0,6.01-.97,7.95-2.91,1.94-1.94,2.91-5.36,2.91-10.28v-70.6c0-4.91-.97-8.34-2.91-10.28-1.94-1.94-4.59-2.91-7.95-2.91h-12.03Z"/>
    <path class="cls-1" d="m791.76,544.75h21.33v135.76h-21.33v-135.76Z"/>
    <path class="cls-1" d="m826.87,577.34c0-10.99,2.78-19.43,8.34-25.31,5.56-5.88,13.58-8.82,24.05-8.82s18.49,2.94,24.05,8.82c5.56,5.89,8.34,14.32,8.34,25.31v70.6c0,10.99-2.78,19.43-8.34,25.31-5.56,5.89-13.58,8.82-24.05,8.82s-18.49-2.94-24.05-8.82c-5.56-5.88-8.34-14.32-8.34-25.31v-70.6Zm21.33,71.96c0,4.92,1,8.37,3.01,10.38,2,2.01,4.69,3.01,8.05,3.01s6.04-1,8.05-3.01c2-2,3.01-5.46,3.01-10.38v-73.31c0-4.91-1-8.37-3.01-10.38-2.01-2-4.69-3.01-8.05-3.01s-6.05,1-8.05,3.01c-2.01,2.01-3.01,5.46-3.01,10.38v73.31Z"/>
    <path class="cls-1" d="m902.7,577.34c0-10.99,2.62-19.43,7.85-25.31,5.24-5.88,13.09-8.82,23.56-8.82s18.33,2.94,23.56,8.82c5.24,5.89,7.85,14.32,7.85,25.31v4.27h-20.17v-5.62c0-4.91-.94-8.37-2.81-10.38-1.88-2-4.49-3.01-7.85-3.01s-5.98,1-7.85,3.01c-1.88,2.01-2.81,5.46-2.81,10.38,0,4.65,1.03,8.76,3.1,12.32,2.07,3.56,4.66,6.92,7.76,10.09,3.1,3.17,6.43,6.34,9.99,9.5,3.55,3.17,6.89,6.63,9.99,10.38,3.1,3.75,5.69,8.02,7.76,12.8,2.07,4.79,3.1,10.41,3.1,16.87,0,10.99-2.69,19.43-8.05,25.31-5.37,5.89-13.29,8.82-23.76,8.82s-18.4-2.94-23.76-8.82c-5.37-5.88-8.05-14.32-8.05-25.31v-8.34h20.17v9.7c0,4.92,1,8.34,3.01,10.28,2,1.94,4.69,2.91,8.05,2.91s6.04-.97,8.05-2.91c2-1.94,3.01-5.36,3.01-10.28,0-4.65-1.04-8.76-3.1-12.32-2.07-3.55-4.65-6.92-7.76-10.09-3.1-3.17-6.43-6.33-9.99-9.5-3.56-3.17-6.88-6.62-9.99-10.38-3.1-3.75-5.69-8.02-7.76-12.8-2.07-4.78-3.1-10.41-3.1-16.87Z"/>
  </g>
</svg>