<svg width="40" height="40" viewBox="0 0 40 40" fill="none" xmlns="http://www.w3.org/2000/svg">
<g id="window-grid">
<path id="Vector" d="M34.9997 3.33337H4.99967C4.55765 3.33337 4.13372 3.50897 3.82116 3.82153C3.5086 4.13409 3.33301 4.55801 3.33301 5.00004V35C3.33301 35.4421 3.5086 35.866 3.82116 36.1786C4.13372 36.4911 4.55765 36.6667 4.99967 36.6667H34.9997C35.4417 36.6667 35.8656 36.4911 36.1782 36.1786C36.4907 35.866 36.6663 35.4421 36.6663 35V5.00004C36.6663 4.55801 36.4907 4.13409 36.1782 3.82153C35.8656 3.50897 35.4417 3.33337 34.9997 3.33337ZM13.333 33.3334H6.66634V6.66671H13.333V33.3334ZM33.333 33.3334H16.6663V21.6667H33.333V33.3334ZM33.333 18.3334H16.6663V6.66671H33.333V18.3334Z" fill="#15171E"/>
</g>
</svg>
